<svg xmlns="http://www.w3.org/2000/svg" xml:space="preserve" id="Layer_6" x="0" y="0" viewBox="0 0 1125 2436"><style>.st0{fill:none;stroke:#000;stroke-width:4;stroke-linecap:round;stroke-linejoin:round;stroke-miterlimit:10}</style><path d="M816.04 1602.81c6.9-5.03 15.52-8.95 26.31-10.62 16.23-2.51 54.99 9.05 65.06 32.71 10.07 23.67-4.74 46.27-46.36 56.78s-55.27 2.24-58.4 1.07m-6.43-57.51c1.44-2.76 1.25-4.47 4.31-8.27m0 0c-.87-8.16-1.95-23.43 1.59-25.31 3.55-1.88 12.7 9.51 13.6 10.92" class="st0"/><path d="M885.74 1602.8c-2.04-7.95-6.42-22.89-10.4-23.41s-9.3 13.29-9.65 14.92m-28.26 21.67c2.46 3.58-1.76 11.44-12.48 16.36-11.37 5.21-17.14 1.9-18.86-.96-5.5-9.16 25.1-24.48 31.34-15.4m20.29-7.35c-1.29 4.1 4.61 10.57 15.63 12.52 11.68 2.06 16.05-2.63 16.85-5.83 2.57-10.26-29.22-17.07-32.48-6.69m.31 10.82c1.17 2.85-5.89 6.13-8.44-1.04 1.7 6.54-7.89 7.93-7.69 4.13" class="st0"/><circle cx="821.85" cy="1621.04" r=".37" class="st0"/><circle cx="872.29" cy="1608.82" r=".37" class="st0"/><path d="M855.18 1592.47c-18.8-13.88-17.15-74.83-59.08-101.79-41.93-26.97-79.62-7.88-84.49-4.35" class="st0"/><path d="M822.89 1687.36c6.02 7.73 38.87 35.5 39.09 44.48s-13.2 9.68-23.57 4.05-65.64-48.94-84.31-71.89c-39.81-48.95-65.55-92.67-69.65-158.24s-10.6-70.12-8.43-77.85c2.16-7.74 12.23-8.43 15.99-4.73 7.56 7.43 19.85 30.86 25.95 59.45m153.95 195.83c13.59 7.32 45.09 21.16 53.33 21.02 7.79-.13 9.66-7.8 3.66-14.65-5.99-6.85-27.3-18.64-31-20.57m-126.23-184.44c-.62-7.25 5.58-52.37 16.72-60.32 11.14-7.96 15.23 2.1 15.21 8.85s-2.78 58.75 2.25 69.87m-74.13-20.08c-4.49-13.77-17.12-95.67 4.15-100.22 21.26-4.55 12.3 35.8 13.44 54.81.72 12.02 1.33 26.11 4.66 43.01" class="st0"/><path d="M846.91 1731.23c1.56.58 6.57 5.29 3.11 7.92m4.89-10.29c1.3 1.05 4.85 3.23 4.59 7.75m61.15-44.88c2.3.5 4.88 4.07 4.51 7.01m.28-11.28c3.87 1.08 5.91 6.11 6.15 8.34m-245.53-265.22c2.97-.32 7.8 2.78 8.06 5.13.24 2.22-4.05 4.19-6.51 2.21-1.16 3.13-5.69 2.87-5.93.64-.29-2.68 1.42-7.66 4.38-7.98m109.16-4.41c2.26 1.31 3.84 6.4 2.65 8.44-1.12 1.94-5.26 1.26-5.83-1.66-2.63 1.93-5.64-.68-4.52-2.62 1.36-2.33 5.45-5.47 7.7-4.16m15.33 179.31-4.75-3.82-.02 7.81" class="st0"/><path d="m872.45 1592.71 2.96-4.66 2.46 6.67" style="fill:none;stroke:#000;stroke-width:3.5;stroke-linecap:round;stroke-linejoin:round;stroke-miterlimit:10"/><path d="M924.02 2329.22c3.58-.89 6.63-1.42 8.97-1.42 10.34 0 55.16-2.59 64.64-3.45s17.24-12.93 6.89-18.96c-10.34-6.03-31.03-3.45-36.2-11.2-5.17-7.76-7.76-37.06-39.64-47.4m-73.31 101.74c6.99-1.11 13.98-2.54 20.75-4.36 8.24-2.22 16.72-5.02 24.66-7.68m-15.18-222.43c-11.2-.86-36.2-.86-49.12 1.72-1.72-6.03-10.34-19.82-12.93-19.82s-9.48 23.27-9.48 29.3c-6.89 6.89-12.07 18.1-12.93 37.06-.63 13.78-1.72 31.89-6.89 41.37s-28.44 62.91-41.37 74.98-17.44 32.86-19.82 54.3c-.86 7.76-11.2 23.27-18.96 31.89s-7.76 17.24-3.45 20.68c4.31 3.45 12.93.86 21.55-6.89 8.62-7.76 36.2-25.85 40.51-27.58 4.03 0 29.08 2.24 58.46.17" class="st0"/><path d="M885.6 2114.06c4.4-8.27 8.62-20.68 11.2-21.55 2.59-.86 9.48 16.38 10.34 26.72 7.76 6.03 14.65 14.65 15.51 41.37 1.03 31.88 5.17 61.19 6.03 79.29s-2.59 62.91-4.31 74.12c-1.72 11.2 0 18.96 1.72 25.85 1.32 5.29-12.93 13.79-22.41 2.59-8.7-10.28-4.31-52.57-6.03-57.74m-75.83-166.34 2.59-9.48 4.31 6.9" class="st0"/><path d="m893.35 2112.34 3.45-6.9 2.59 9.48m-83.6 164.61c0 9.48 6.33 47.08 8.62 57.74 2.59 12.07 9.48 18.96 18.1 18.96s15.51-6.89 12.07-11.2-9.48-49.12-7.76-56.88m12.01 59.81c15.57 10.87 56.94 32.41 71.59 42.75 10.01 7.06 29.3 2.59 22.41-10.34-8.35-15.66-57.95-35.65-67.22-38.78m-169.79 34.47c-1.72 1.72-2.22 7.75 3.63 10.34" class="st0"/><path d="M840.78 2346.76c1.72 1.72 2.27 7.29-2.75 8.82m10.51-9.68c.86.86 3.45 3.45 1.72 7.76m62.05-16.38c.86 1.72 1.86 6.35-5.1 8.34m12.86-8.34c1.72 1.72 2.59 7.76 0 9.48m82.74-35.34c3.45 1.72 5.01 5.39 3.37 8.73" class="st0"/><ellipse cx="832.6" cy="2142.93" class="st0" rx="16.81" ry="13.36"/><ellipse cx="890.34" cy="2142.07" class="st0" rx="16.81" ry="13.36"/><circle cx="890.7" cy="2141.95" r=".37" class="st0"/><circle cx="833.2" cy="2143" r=".37" class="st0"/><path d="M853.71 2157.15c-1.72 5.17 8.62 1.72 8.62-3.45 0 4.31 9.48 8.62 8.62 2.59m6.56-183.01c3.08-1.63 6.32-3.1 9.67-4.39 5.96-2.29 38.98-15.13 65.57 2.29m22.47 49.06c-4.59 15.59-31.18 38.52-89.88 19.26-48.05-15.77-41.13-43.45-16.63-60.83" class="st0"/><path d="M965.59 1983.1c0-7.34-.92-26.6-5.5-31.18-4.59-4.59-13.71 13.1-14.65 15.26m-38.15-3.87c-1.31-7.72-3.15-17.81-5.9-18.73s-15.59 19.26-17.43 24.76m25.69 17.43c-4.59 6.42 33.93 18.34 38.52 11.01 4.58-7.34-30.95-21.62-38.52-11.01m-16.51-3.67c-4.68 4.68-28.43-.92-23.85-7.34 3.89-5.43 29.35 1.84 23.85 7.34m3.67 5.5c-.92-.92-.92-3.67 0-3.67s4.59.92 4.59 2.75c-.01.92-3.67 1.84-4.59.92" class="st0"/><path d="M896.81 1988.6c-.92.92-25.68 13.76-25.68 13.76-3.67-2.75-4.59-3.67-6.42-2.75s-1.83 6.42 0 8.25m47.75-45.25c16.45-15.28 21.03-52.88 44.88-76.73s49.52-27.51 59.61-27.51c.92-16.51 4.59-30.27-10.09-72.45s1.28-77.2 10.09-93.55c6.42-11.92 15.59-17.43 22.01-14.67 6.42 2.75 11.01 11.01 6.42 21.09s-17.43 38.52-15.59 57.78 22.01 62.36 12.84 104.55c15.59 6.42 37.6 22.93 39.44 49.52 1.83 26.6-7.34 42.19-10.09 56.86s-6.19 44.33-18.34 58.7c-10.09 11.92-21.69 11.02-21.09-7.34.92-28.43-7.34-77.04 20.18-88.04" class="st0"/><path d="M1032.08 1987.62c-7.79 18.41-34.39 49.59-40.81 57.85-6.42 8.25-25.68 48.61-43.1 45.86-17.43-2.75 10.12-42.61 13.32-53.86m-80.18.63c-17.52 3.69-65.93 10.51-74.38-6.4-5.5-11.01 38.01-11.92 45.6-13.76" class="st0"/><path d="M812.43 2037.21c-2.81-3.24 2.75-4.59 8.25-6.42m135.74 49.52c-1.83 2.75-.92 8.25-.92 8.25m-7.33-9.16s-4.59 7.34-3.67 9.17m100.88-67.87c-2.75 3.67-1.83 9.17 0 11.01m-9.17-10.09c-1.83 4.59-1.62 8.63-1.62 8.63M922 1985l-4.49 9.53M879 1975l-4.12 7.66m-753.55-550.67c-10.96 2.42-25.65 8.59-36.45 27.11-16.24 27.84 5.92 57.83 44.56 58.09 29.96.2 54.58-17.95 56.51-39.94s-20.78-54.97-64.62-45.26" class="st0"/><path d="m127.83 1456.05 2.72 1.32 3.1-1.52" class="st0"/><circle cx="159.55" cy="1468.45" r="15.82" class="st0"/><circle cx="105.57" cy="1467.14" r="15.82" class="st0"/><path d="M130.43 1458.33s-2.25 17.11.1 21.29" class="st0"/><circle cx="104.91" cy="1467.88" r=".41" class="st0"/><circle cx="159.26" cy="1468.48" r=".41" class="st0"/><path d="M79.79 1527.08c8.33 6.18 103.08 2.94 108.96-4.99s7.23-76.08 4.87-88.32c-.57-2.98 9.68-7.43 8.08-17.31s-33.66-25.38-73.76-21.95c-40.53 3.46-62.7 22.79-63.77 30.91-1.13 8.55 6.93 13.48 7.63 15.51s.06 80.27 7.99 86.15" class="st0"/><path d="M72.14 1533.8c10.22 14.48 120.56 6.36 125.79-5.08 6.96-15.26 6.74-76.09 5.9-91.67-.2-3.61 11.36-9.95 7.06-24.21-4.03-13.36-37.37-33.01-85.12-28.94-48.26 4.12-70.86 27.57-72.61 37.17-2.86 15.62 9.96 23.91 10.05 26.46.18 5.83-1.42 71.61 8.93 86.27" class="st0"/><path d="M101.21 1540.85c-5.96 23.07-3.23 84.19-3.7 93.96-.55 11.53-9.53 20.98-7.43 27.06 2.38 6.9 16.36 7.96 23.06 1.1s12.19-26.44 11.46-42.97m23.11-.47c.06 9.57.17 16.96.02 19.85-.59 11.53-9.29 21.02-7.29 27.08 2.26 6.89 15.73 7.87 22.22.99s13.95-33.94 13.33-50.46m27.98-135.02c25.58 17.99 29.42 73.6 31.34 89.89s8.63 50.81-2.88 64.23c-11.25 13.12-20.13 16.3-28.76 24.93s-17.26 26.84-25.88 24.93c-8.63-1.92-6.71-14.38 6.71-32.59-3.83-20.13.96-67.11 32.6-65.19" class="st0"/><path d="M169.52 1653.91c6.28-.65 11.44-1.55 14.65-2.5m-64.86.98c7.34 1.58 14.92 2.03 22.89 2.35m-44.94-61.78c-11.5 7.67-9.43 38.99-12.46 45.06-2.88 5.75-26.84 23.97-19.17 31.64 6.1 6.1 17.26-.96 23.97-7.67" class="st0"/><path d="M86.89 1624.61c-24.14 3.82-70.16 2.86-81.66 7.65s-9.59 21.09.96 23.01 48.45-1.89 68.07-5.75m78.6 12.46c-2.88 1.92-3.83 8.49-.96 10m-6.71-11.92c-1.92.96-4.31 5.47-3.6 8.49m-38.58-11.36c-1.92.96-2.88 6.71 0 9.59m-6.71-10.55c-2.88 1.92-3.83 4.79-2.88 8.63m85.33 11.5c-1.92 1.92-2.88 8.63 0 9.59m-106.42-23.01c-3.83 1.92-6.2 6.39-4.06 8.47m315.7-176.02c10.34-7.76 39.64-45.68 42.23-50.85s9.48-26.72 13.79-29.3c4.31-2.59 6.89 12.93 7.76 15.51 4.31-1.72 27.58.86 43.09 7.76 5.17-2.59 9.48-12.07 12.07-11.2 2.59.86 0 19.82 0 23.27s8.62 18.1 9.48 25.85c.86 7.76-6.25 26.02-26.72 41.37-3.45 2.59-2.66 12.93 17.24 12.93 19.82 0 44.82-27.58 42.23-37.92s-18.1-16.37-8.62-25.85 26.56 5.8 31.03 20.68c5.17 17.24-7.5 41.39-29.3 57.74-20.68 15.51-33.95 17.91-36.2 22.41-1.72 3.45 7.76 53.43 11.2 60.33s15.51 12.07 15.51 18.96c0 6.56-18.1 12.93-30.16 2.59-12.07-10.34-24.13-56.02-27.58-60.33s-75.84-2.59-79.29-1.72c-3.45.86-16.79 51.04-20.68 59.47-5.17 11.2-18.96 8.62-21.55.86-3.55-10.66 4.31-53.43 6.89-68.08 2.59-14.65-1.72-45.68 8.62-67.22-13.79-14.65-29.3-30.16-26.72-54.3 2.59-24.13 30.16-40.51 38.78-40.51s16.37 6.03 12.93 12.07c-3.45 6.03-17.24 10.34-24.13 19.82s-11.21 20.67 18.1 45.66" class="st0"/><ellipse cx="438.74" cy="1468.29" class="st0" rx="9.91" ry="16.81" transform="rotate(-88.017 438.711 1468.272)"/><ellipse cx="489.5" cy="1471.65" class="st0" rx="9.91" ry="16.81" transform="rotate(-88.017 489.47 1471.637)"/><path d="m462.28 1472.34 1.96 2.4 2.41-1.96" class="st0"/><circle cx="489.9" cy="1471.57" r=".37" class="st0"/><circle cx="439.3" cy="1468.31" r=".37" class="st0"/><path d="M466.36 2064.78c3.06 1.44 6.07 2.85 9.01 4.25 20.54 9.77 77.32 52.29 145.7 33.38m-234.95-148.93c-5.67 12.07-6.35 42.14 8.49 65.19 6.56 10.19 18.22 19.31 35.62 28.52M455 1924.55c-16.63-.35-35.93 5.38-50.02 12.88m92.61 28.8c-.68-5.03-3.04-26.44-21.05-36.45m163.1 194.14c-27.1 28.47-28.31 34.46-29.47 45-1.32 12-28.17 15.66-27.27-10.33s25.41-52.23 42-55.23" class="st0"/><path d="M496.37 1958.99c9.01 4.7 27.77 1.4 70.61 6.66s74.23 18.72 91.64 48.87c13.26 10.7 31.18 50.79.4 88.88" class="st0"/><path d="M561.38 2060.27c-2.28 15.83 18.39 37.4 40.95 40.25s27.44.7 31.63 9.74 12 33.84 22.94 38.26 13.29-5.5 10.36-16.19-14.7-48.25-13.61-56.53 5.28-15.5 2.45-25.46m-54.65 68.08c-17.62 9-53.53 27.51-63.17 21.85-11.24-6.6-1.65-19.59 26.84-34.62M447.15 2030c-10.42 10.29-34.31 35.71-43.05 42.07s-10.46 15.46-5.41 19.95c5.04 4.49 24.57-4.08 41.92-12.36 17.35-8.27 51.89-31.45 58.88-39.79m-89.7-4.79c-15.85 5.85-64.9 22.76-71.68 8.28-5.21-11.12 45.59-26.47 51.71-31.58m86.72-82c-1.43-9.27-5.39-22.03-8.68-24.54-3.3-2.51-11.9 15.3-12.86 19.31m-50.01 12.9c-6.03-6.43-17.11-11.71-20.21-12.77s-.67 22.26 1.05 29.42" class="st0"/><ellipse cx="466.06" cy="1955.91" class="st0" rx="17.21" ry="4.53" transform="rotate(-13.297 466.003 1955.76)"/><ellipse cx="409.28" cy="1969.5" class="st0" rx="17.21" ry="4.53" transform="rotate(-13.297 409.235 1969.35)"/><path d="m398.23 1942.06-6.59-5.01 1.28 9.43m68.8-21.19 4.19-7.22 2.64 8.51m-35.44 49.16c.49 3.63 8.18.36 6.47-6.79 1.71 7.16 10.52 6.7 8.48 2.54m-11.78-5.05 3.2 1.79 1.78-3.2m-33.21 117.52c-1.79.24-5.53 6.22-3.26 9.56m-3.49-12.29c-1.67 1.14-4.81 3.35-5.38 6.64m-45.69-47.08c-2.56 1.26-5.65 5.33-5.41 7.12m.45-10.09c-1.79.24-6.72 2.74-7.47 4.66m321.75 94.75c1.38 3.46 5.03 8.19 8.76 6.44m-13.39-.34c1.26 2.56 2.99 6.73 6.64 7.68M546.93 2132c-1.67 1.14-6.91 5.44-4.84 9.29m-1.26-13.92c-2.56 1.26-5.77 6.09-6.69 8.57m-62.57-185.71 2.56 8.04m-59.82 5.63 3 7.98m90.51 260.45c.32 4.01 12.34 3.06 11.71-4.96 2.4 4.85 13.42 3.98 11.87-2.95m4.4-4.1c3.02-3.02 11.06-8.04 21.11-6.03m-54.29 18.1c-5.03-1.01-14.07 2.01-17.09 6.03m-2.01 47.25c2.01 1.01 4.02 6.03 3.02 14.07-1.01 8.04 5.12 12.37 12.06 10.05 12.06-4.02 16.08-35.18 2.01-43.23-14.1-8.06-25.13 3.02-37.19 15.08s-6.61 22.87 1.01 26.14c7.04 3.02 18.09-3.02 21.11-6.03m84.43-20.1c-2.01 3.02-3.02 13.07-9.05 18.09-4.94 4.12-18.99 6.97-17.09-12.06 2.01-20.11 17.09-36.19 29.15-32.17s16.08 19.1 12.06 32.17" class="st0"/><path d="M560.93 2299.74c-2.01 7.04 5.03 15.08 10.05 16.08" class="st0"/><path d="M476.28 2269.81c-2.82-5.26-7.84-30.39 8.24-42.45s19.1-16.08 27.14-19.1 25.13-6.03 36.19-5.03c11.06 1.01 21.11 10.05 28.15 15.08s10.05 17.09 11.06 29.15 21.11 31.16 7.04 76.4-40.21 85.45-122.64 85.45c-76.43 0-114.6-62.33-120.63-111.58-5.53-45.18 11.06-92.48 49.26-116.61 12.06-8.04 28.63 8.59 15.08 20.11-20.11 17.09-31.81 40.51-36.19 65.34-3.02 17.09-2.61 41.97 1.01 44.23 8.04 5.03 3.02-29.15 10.05-43.23s20.11-47.25 27.14-46.24c7.04 1.01 7.67 18.01-2.01 42.22-2.01 5.03 12.92-6.83 24.13-6.03 14.07 1.01 21.11 13.07 20.11 27.14" class="st0"/><path d="M473.86 2261.15c-1.4-7.65-12.46-18.71-21.51-17.7s4.02-22.12-2.01-29.15c-6.03-7.04-21.03 23-23.08 45.68m132.21-53.01c8.5-3.73 18.55-8.76 20.56-7.75s-4.02 18.09-4.02 18.09m-93.43 11.67c-10.12-2.62-17.16-2.62-19.17-1.61s6.03 13.07 10.05 16.08m83.45 47.24c-3.02 3.02-3.02 11.06-1.01 11.06m-8.04-13.07c-1.01 2.01-3.02 8.04-2.01 11.06m-58.31 6.46c2.01.58 5.02-3.44 6.03-6.46m3.02 10.05c2.01-1.01 4.02-7.04 4.02-9.05m-87.2-77.52c1.75 1.12 3.76 3.13 3.76 6.15" class="st0"/><path d="M445.32 2216.3c2.01 2.01 2.01 4.02 1.01 7.04m244.07-398.58c12.09-7.35 21.84-9.96 27.25-10.41 2.63-12 .39-17.26 2.94-19.28s16.28 10.44 19.12 22.9c9.38 3.76 34.43 10.75 47.77 40.48 12.38 7.14 19.27 13.82 20.47 17.35s-17.79 4.19-20.41 5.31c-.23 8.18-15.61 52.76-75.75 59.75-53.88 6.27-70.15-15.06-72.09-27.59" class="st0"/><path d="M688.6 1923.73c5.11-14.93-29.02-32.96-43.42-31.77-18.01 1.49-13.45 23.78 16.41 34m4.09-60.17c-8.63-5.63-26.78-4.04-27.54 6.81-.83 11.86 36.45 24.19 48.46 15.94 14.69-10.09-4.93-37.67-9.87-42.7" class="st0"/><path d="M648.75 1825.48c-5.33 1.35-22.11 15.54-.87 37.76m65.3-48.19c-4.31-8.14-18.42-14.23-24.49-21.88-6.07-7.66-40.26-48.35-72.6-55.65s-65.65-15.43-84.1-30.22c-18.45-14.8-30.23-14.73-35.19-8.88-3.74 4.41-2.49 13.81 10.11 23.64 12.6 9.84 21.82 22.68 29.17 34.76 7.35 12.09 21.89 23.58 43.95 27.19" class="st0"/><path d="M533.42 1752.52c-9.7-2.84-32.42-25.44-42.85-30.93-10.43-5.48-18.16-.31-16.29 11.32s26.99 30.41 33.29 40.77 20.6 43.34 38.97 65.69c18.14 22.07 45.97 42.5 89.36 67.44m-38.24-173.59c-3.69-11.1 8.78-24.83 27.01-23.61 18.23 1.21 43.89 15.41 58.6 6.94s.69-24.54 14.73-30.23 27.53 14.95 19.41 37.38-34.16 25.49-53.67 19.85-39.12-16.37-43.31-4.86m23.24 126.08c.4 2.8 4.23 5.2 7.9 5.81m-13.04-.08c.58 2.93 5.31 5.26 8.16 6.83m-11.43 26.33c2.7-.22 7.35 1.21 10.2 2.78m-9.05-10.6c3.51-1.63 10.11 1.45 12.06 3.1M503.44 1694.9c.58 2.92 5.53 7.95 5.53 7.95m-13.38-2.39c.69 2.53 4.59 5.83 6.54 7.48" class="st0"/><path d="M481.76 1719.45c-1.1 2.96 2.88 7.17 4.83 8.82m-12.01-2.64c.15 1.8 5.17 7.73 5.17 7.73m225.9 100.08c-2.49 2.92-.25 8.18 7.67 16.61 5.71 6.07 12.43 8.07 15.96 6.88s1.91-10.12-7.82-18.41c-5.83-4.97-13.32-7.99-15.81-5.08m70.43 53.18c-2.27 3.09-7.9 2.13-17.93-3.64-7.22-4.15-10.72-10.23-10.38-13.94s9.41-4.19 19.72 3.36c6.18 4.53 10.85 11.13 8.59 14.22m-37.95-28.37.26 4.6 4.37-1.12m-3.91.73-11.04 9.08" class="st0"/><circle cx="719.55" cy="1846.67" r=".32" class="st0"/><circle cx="762" cy="1877.63" r=".32" class="st0"/><path d="M167.4 1834.51c8.62-10.34 29.42-15.43 37.92-9.48 8.62 6.03 3.45 45.68-13.79 49.12-17.24 3.45-11.2-22.41-8.62-28.44" class="st0"/><path d="M190.66 1810.38c-9.48-6.89-23.27-2.59-32.75 12.07-9.48 14.65-15.51 35.34-3.45 44.82 12.07 9.48 25.29-5.6 25.29-5.6m97.96 9.03c-7.76 12.93-31.89 22.41-38.78 9.48s24.13-38.78 38.78-34.47 14.65 21.55 10.34 31.03" class="st0"/><path d="M176.88 1806.93c-6.03-8.62-5.17-27.58 21.55-55.16 1.72-14.65 0-24.99 1.72-27.58s16.37 11.2 19.82 15.51c6.89-3.45 42.23-9.48 52.57-5.17 0 0-2.59-17.24 0-18.1s21.55 12.07 24.13 31.03c11.2 11.2 18.96 35.34 14.65 59.47s-9.48 37.06-9.48 37.06c1.72 8.62 7.76 36.2-17.24 56.88-24.99 20.68-32.75-4.91-30.16-14.52m-96.52-63.91c-19.82 0-63.78 11.2-70.67 51.71s12.07 70.67 31.89 78.43" class="st0"/><path d="M196.7 1927.58c-5.17-11.2-30.16-18.96-55.16 5.17-.86-12.07-6.89-41.37-21.55-34.47-12.6 5.93-1.72 19.82-.86 37.06s-.86 27.58 7.76 31.89 11.26-.19 20.68 2.59c14.65 4.31 75.63 16.58 116.67-61.09m-138.2-79.58c-4.32-10.16-16.37-13.41-25.01-12.74-11.2.86-25.85 16.37-27.58 35.34-9.48-7.76-28.44-18.1-34.47-9.48-5.59 7.99 16.37 20.68 25.85 33.61 6.65 9.06 16.37 15.51 20.96 10.47m6.39 37.07c-17.86 5.03-48.02-4.45-71.29-14.79-23.38-10.39-40.51-14.65-45.68-5.17s6.29 30.35 47.4 42.23c38.78 11.2 75.66 5.04 87.38 1.66m82.38-168c-.26 6.09 7.31 10.66 20.23 11.21s20.88-4.29 20.24-9.49-8.14-11.56-21.02-12.97-19.2 5.22-19.45 11.25m19.2-5.22-.33 7.75m84.56-7.03c.57 6.07-6.75 11.03-19.62 12.24-12.87 1.22-21.08-3.2-20.71-8.43s7.53-11.97 20.31-14.04c12.8-2.07 19.45 4.22 20.02 10.23m-19.44-4.22.73 7.72m-40.75 11.34c0 4.31 9.48 3.45 9.48-2.59 1.72 6.03 8.62 6.03 9.48 2.59m-74.65 78.9c3.12 2.98 10.01-3.05 10.01-7.36m.87 12.92c4.31-1.72 5.17-6.89 6.03-10.34m52.57 21.54c-1.72-1.72 1.72-9.48 5.17-10.34m-15.51 5.17c0-2.59 3.45-7.76 7.76-8.62" class="st0"/><path d="M128.51 1898.46c-4.21.69-4.21 5.86-3.35 9.31m-6.89-8.63c-2.59 3.45-.86 7.76 0 10.34m-70.67-65.49c-2.59-1.72-8.55.37-8.58 4.49m172.33-105.33-5.17-6.03v8.62m73.25-8.62v-7.76l6.04 11.21m476.7 334.55c1.45 4.55 11.45 12.94 19.11 5.48 7.65-7.46-8.23-45.8-15.42-47.17s-24.69 21.18-26.26 33.83c-1.55 12.65 13.46 20.41 22.57 7.86m-41.04 70.95c-8.01-.92-28.68 6.25-28.41 12.53s15.56 1.02 20.85-2.98c-.47 8.83-5.12 17.84 3.62 16.21 6.7-1.25 3.94-25.76 3.94-25.76" class="st0"/><path d="M721.13 2146.07s51.69-21.73 39.93-69.56" class="st0"/><path d="M737.95 2087.47c5.45 9.84 19.92 14.68 44.23 4.42m-42.7 11.87c4.63 10.29 24.84 11.95 33.03 7.41m-37.42 7.88c2.36 6.19 16.74 8.94 22.65 9.95m-30.04 3.79c1.99 7.47 14.64 9.03 14.64 9.03" class="st0"/><circle cx="769.29" cy="2059.92" r=".47" class="st0"/><path d="M996 2195c-13 0-22.63-13.92 15-39 12-8 36.47-1.12 41 17 4 16-3 22-12 22z" class="st0"/><path d="M1041 2157c2-5 10-10 16-7s4.58 14.75-7.21 17.37m-39.85-10.66C1007 2150 1001 2146 995 2149s-2.21 11.49 5.39 14.74" class="st0"/><path d="M1012.88 2154.92C1026 2146 1053 2127 1076 2136s21 35 17 44-23 14-52 15" class="st0"/><path d="M1095.48 2170.67c5.52 5.33 8.52-.67 20.52 4.33s13 19 23 22" class="st0"/><circle cx="1033" cy="2175" r="1" class="st0"/><circle cx="1000" cy="2172" r="1" class="st0"/><path d="m435.83 1296.26 34.64-9.48s18.53 11.71 21.46 14.63c2.93 2.93-87.8 27.31-87.8 27.31l-25.36-14.63-16.58 20.49-154.13-5.85 19.51-19.51" class="st0"/><path d="M250.41 1235.01c-14.14 17.89-15.17 35.35-18.94 40.06-3.9 4.88-21.46 18.54-1.95 33.17 26.34 1.95 148.28 3.9 148.28 3.9l4.99-1.37m-52.8-94.96c-17.39-3.68-36.75-2.9-52.59 2m93.57 44.58c-.71-9.88-2.43-24.36-14.79-34.94" class="st0"/><ellipse cx="260.24" cy="1267.02" class="st0" rx="19.02" ry="9.02"/><path d="M259.76 1260.26v13.53" class="st0"/><ellipse cx="326.58" cy="1267.02" class="st0" rx="19.02" ry="9.02"/><path d="M327.07 1260.26v13.53m-38.05-2.62 2.93 2.92 2.92-2.92" class="st0"/><path d="M291.95 1274.09c-2.93 4.88-3.9 18.53 0 27.31m64.38-74.13s.98-22.44-3.9-25.36c-4.88-2.93-22.44 12.68-22.44 12.68m-52.67 2.92c-2.93-7.8-20.23-13.3-21.46-12.68-3.9 1.95-6.93 22.06-5.85 29.27" class="st0"/><path d="m338.77 1218.49 7.81-4.88.97 8.78m-79.99 0-6.83-4.88-.97 9.76m98.44 2.04c13.74-.09 54.89-5.19 82.03 10.64 23.41 13.66 31.22 37.07 30.24 46.83m-98.53-10.74c-12.68 8.78-14.44 35.5 12.29 34.33s51.23-8.53 51.6-14.12c.5-7.53-10.23-16.31-43.4-10.46" class="st0"/><path d="M421.69 1295.56c2.93.98 10.73-1.95 11.71-3.9m-208.25 37.71 4.36 23.74 150.24 6.83 90.72-25.36 3.2-25.8m-94.9 5.31v45.85M67.8 2141.81c-2.66 12.41 1.73 28.36 10.64 28.36 11.52 0 16.84-35.45 9.75-48.75s-29.25.89-37.23 8.86" class="st0"/><path d="M35.01 2170.17c2.66 4.43 15.69 15.36 33.1-11.82m97.18-16.54c-7.98 11.52-10.64 29.25 0 30.13 10.64.89 27.48-29.25 20.39-42.54s-30.13-4.43-41.66 15.07" class="st0"/><path d="M136.05 2171.94c.89 7.09 17.76 12.32 27.05-.49m-58.96-87.25c0 5.32 15.95 7.98 19.5 0-.89 6.2 5.32 12.41 12.41 9.75" class="st0"/><path d="M161.97 2126.72c3.32-7.07-.22-23.91-10.86-34.54-10.64-10.64-15.95-14.18-30.13-19.5s-31.91-3.55-45.2 0-29.25 25.7-31.91 34.57c-11.52 15.07-51.41 85.09 23.93 166.63-4.43 7.98 1.77 20.39 29.25 35.45 1.77 23.93 4.43 47.86 13.29 49.63s12.41-52.29 13.29-57.61c17.73-6.2 63.81-34.57 71.79-81.54 12.41-4.43 42.5-29.43 39-43.43-3.55-14.18-36.34 15.07-41.66 17.73 6.2-18.61 1.75-41.23-13.31-33.47" class="st0"/><path d="M182.54 2252.78c7.57 4.25 28.85 13.12 43.03 29.07 12.08 13.59 24.82 48.75 8.86 55.84s-16.84-26.59-25.7-38.11c-8.54-11.11-26.15-24.57-39.22-30.01M87.8 2070.24c-.51-1.99-11.14-13.51-12.91-14.4s-4.6 14.93-4.96 19.43m79.41 14.25c8.86-1.77 15.95-4.43 17.73-3.55 1.77.89-4.72 19.52-6.79 20.4m-88.94 58.48c2.3.51 4.43-5.32 5.32-8.86m1.78 14.18c3.55-.89 4.43-8.86 4.43-10.64m76.22 5.32c.89.89 3.55-.89 6.2-4.43m-1.77 10.64c2.66-.89 6.2-5.32 7.09-7.09m63.48 11.39c-2.32-1.65-7.64 3.67-7.64 3.67m-116.99 168.41c-.89.89 1.81 7.41 4.45 9.02m235.05-227.12c22.59 22.75.3 34.72-33.09 46.68s-59.43 41.42-36.94 65.59c22.5 24.17 46.29 7.31 38.66-5.95s-57.2-13.71-65.74 40.3c-8.53 54 42.65 90.46 52.74 123.96 10.46 34.71-16.34 64.82-45.51 45.18m806.5-815.99c5.86-4.28 32.86 14.7 44.73 37.96s15.89 41.62 15.89 41.62c11.89 4.73 21.67 16.79 19.04 21.34-2.62 4.54-18.61-11.29-18.61-11.29 3.49 6.3 7.62 23.63 3.05 24.04-8.83.78-11.79-21.25-13.19-25.62-45.79-15.76-62.72-72.23-50.91-88.05" class="st0"/><path d="M1070.8 1675.62c4.62 4.24 29.52-7.74 30.08-21.84m-34.24-25.14 10.03 14.9" class="st0"/><circle cx="1069.76" cy="1651.49" r=".9" class="st0"/><path d="M1082.33 1681.57c2.88 1.49 7.61-1.13 7.43-5.15m7.09-3.93c2.88 1.49 7.61-1.13 7.43-5.15m-9.71 17.73c2.88 1.49 7.61-1.13 7.43-5.15m-7.7 17.65c2.88 1.49 7.61-1.13 7.43-5.15m4.29-3.41c2.88 1.49 7.61-1.13 7.43-5.15m-6.48 18c2.88 1.49 7.61-1.13 7.43-5.15m-825.11-41.47c.31-9.55 11.57-16.53 17.41-11.92 8.33 6.57.1 36.66-4.97 43.98s-34.38-16.18-33.68-29.72c.45-9 17-11.22 21.24-2.34m590.51-203.99c-7.7-3.71-26.94-2.39-29.19 7.66s37.83 24.78 43.64 17.56c4.43-5.5-1.34-18.9-14.45-25.22" class="st0"/><ellipse cx="873.09" cy="1431.4" class="st0" rx="9.5" ry="7.5" transform="rotate(-80.514 873.083 1431.397)"/><ellipse cx="896.34" cy="1441.38" class="st0" rx="9.5" ry="7.5" transform="rotate(-48.32 896.334 1441.383)"/><ellipse cx="908.76" cy="1459.41" class="st0" rx="8.87" ry="7" transform="rotate(-26.501 908.665 1459.314)"/><ellipse cx="850.21" cy="1438.3" class="st0" rx="7" ry="8.87" transform="rotate(-22.061 850.291 1438.388)"/><path d="M841.19 1452.52c-2.99-2.66-13.46-19.63 2.07-30.01 4.16-2.78 10.76-.46 15.76 3.42.21-12.65 23.11-22.21 29.4.8 12.8-9.28 33.45 4.34 22.15 18.39 19.35-3.79 24.22 27.6-6.18 29.63-2.71 10.71-5.57 20.15-9.29 26.41-5.2 8.77-65.91-11.52-63.21-22.23 4.2-16.6 7.39-22.76 9.3-26.41" class="st0"/><circle cx="305.05" cy="2106.29" r="51" class="st0"/><path d="M261.15 2129.68c16.68 9.16 66.06-.22 94.12-32.26" class="st0"/><path d="M265.95 2139.06c17.74 9.29 59.57 6.8 90.07-31.27" class="st0"/><path d="M286.37 2153.54c14.01 3.97 47.57-6.64 65.46-26.91m-50.36 2.53c10.42-9.22 18.14-65.14 3.48-73.87m10.49 69.71c11.35-15.83 20.19-53.81 7.22-66.59m9.21 58.37c8.69-10.84 14.03-36.17 9.2-46.61" class="st0"/><path d="M267.57 2071.7c1.78 12.48 26.02 32.2 40.56 35.32m-49.61-20.73c.9 8.2 27.49 31.73 47.73 31.34m-8.97-44.38-8.67-101.83m-3.8 110.57-66.54-72.98m64.51-37.68 12.19-.68m-80.51 40.71 6.97-7.45M19.1 739.89c4.09-13.09 22.33-18.42 28.64-9.82 9 12.28-13.91 50.74-23.73 58.92s-41.34-35.56-35.19-54.01c4.1-12.27 27.83-9 30.28 4.91m632.76 535.09c-16.43 3.29-75.58 38.34-81.06 21.91s29.58-31.77 39.44-38.34c-36.15-69.01-16.43-85.44-5.48-86.54-4.38-18.62-1.1-46.01 9.86-62.44 10.95-16.43 62.44-61.34 86.54-73.39s60.25-17.53 62.44-14.24c.61.91-7.67 12.05-12.05 15.34 1.1 2.19 30.67 35.05 33.96 41.63 0 0 14.24-6.57 17.53-2.19s-23 60.25-51.49 77.78c0 0 2.19 26.29 1.1 35.05 6.57-1.1 19.72 0 21.91 10.95s-5.48 50.39-8.76 62.44c8.76 5.48 35.05 21.91 29.58 30.67-5.48 8.76-37.36.73-67.98-22.64" class="st0"/><path d="M697.25 1270.01c-4.79.45-9.77.89-14.65 1.34" class="st0"/><path d="M678.15 1219.12c0 7.67 3.29 47.1 4.38 53.68 1.1 6.57-10.95 16.43-23 13.15-11.67-3.18-4.38-15.34-5.48-21.91s-4.38-36.15-5.48-41.63m46.43-4.79c.94 7.61 2.51 47.15 2.22 53.81s12.88 14.97 24.44 10.23c11.2-4.59 2.47-15.76 2.75-22.41.28-6.66-.08-36.41.34-41.98" class="st0"/><circle cx="711.56" cy="1063.02" r="16.98" class="st0"/><circle cx="753.19" cy="1106.84" r="16.98" class="st0"/><path d="m731.83 1082.19-1.1 4.38 4.38-1.1" class="st0"/><circle cx="753.74" cy="1106.29" r="1.1" class="st0"/><circle cx="712.11" cy="1063.57" r="1.1" class="st0"/><path d="M659.53 1273.89c-1.1 2.19-3.4 9.13-1.15 11.68m9.91-9.49c-1.1 2.19-2.19 6.57 0 9.86m42.72-13.15c2.19 3.29 1.1 7.67 0 8.76m9.86-9.85c1.1 1.1 2.19 4.38 1.1 8.76m60.25 7.67c2.19 1.1 2.19 6.57 1.1 7.67m5.47-9.86c2.19 0 5.48 3.29 5.48 3.29m-208.14 1.09c-4.38 2.19-2.19 9.86-2.19 9.86m-6.57-12.05c-2.19 2.19-5.48 5.48-5.48 8.76" class="st0"/><path d="M783.12 1273.89c19.91 7.67 29.76 14.24 26.48 27.39-3.29 13.15-25.19 18.62-39.44 20.81-14.24 2.19-9.86 23 7.67 21.91s52.58-18.62 54.77-40.53-27.39-42.72-62.44-47.1m-29.57-225.67 6.57-1.09-3.28 4.38m42.72 52.58 6.57-2.19-3.29 5.48M224.6 607.62c14.87 14.1 23.81 32.22 23.81 51.97 0 44.98-46.34 81.44-103.5 81.44s-103.5-36.46-103.5-81.44c0-19.68 8.87-37.73 23.63-51.81" class="st0"/><path d="M224.6 607.62c-14.76-19.17-2.2-28.34-6.73-29.47-4.52-1.13-119.9 0-147.05 0-3.39 0 6.79 18.1-7.87 31.71" class="st0"/><path d="M204.3 640.36c-7.92-5.66-27.15-36.2-18.66-62.72 8.48-26.52 32.24-48.14 49.2-41.35 16.97 6.79-13.57 20.36-22.62 37.33s-.9 36.77 2.26 40.72c4.52 5.66 32.8 33.93 18.1 67.87-13.88 32.04-55.43 46.38-88.23 46.38-22.62 0-65.61-10.18-82.57-41.85-16.97-31.67-1.13-54.3 4.52-62.21s13.57-21.49 13.57-29.41-2.26-27.15-1.13-30.54c0 0-14.7-14.7-15.84-18.1s21.49-2.26 21.49-2.26 33.93-19.23 75.79-11.31c12.44-5.66 21.49-7.92 23.75-6.79 0 3.39-7.92 20.36-7.92 20.36 3.39 2.26 14.7 15.84 12.44 24.89" class="st0"/><path d="M84.79 565.97c-1.42 7.99 32.02 7.3 32.3-.73.27-8.04-30.36-10.24-32.3.73m-6.05-10.45L74.21 551H81m84.84-13.57 6.78-2.27-2.26 5.66m-27.27 22.4c-.36 8.46 32.67 4.63 31.89-3.76-.78-8.4-31.4-7.85-31.89 3.76m14.83-6.56 2.26 8m-57.69-4.61-1.13 10.18m26.02-7.92 3.39 2.26 2.26-3.39m-41.85 59.95c6.79-10.18 23.96-16.84 32.8-11.31 9.05 5.66 25.15 39.7 9.05 48.64-10.18 5.66-20.36-19.23-20.36-26.02m121.21 46.46c.95-13.65-10.36-34.02-44.29-43.06-7.92-3.39-15.84-16.97-23.75-22.62-7.92-5.66-23.75-4.52-19.23 6.79s20.36 20.36 19.23 21.49c-15.84 7.92-28.28 29.41-5.66 48.64" class="st0"/><path d="M127.38 658.46c3.39-2.26 1.13-7.92 1.13-7.92m6.79-3.39c1.13 2.26 1.62 7.95 1.62 7.95m15.7-45.05c-2.62 4.29.77 8.81.77 8.81" class="st0"/><circle cx="313.88" cy="465.04" r="23.72" class="st0"/><circle cx="385.8" cy="439.62" r="23.72" class="st0"/><path d="M347.62 471.93c2.28.66 9.2-2.78 7-8.85 1.67 6.11 9.82 5.09 11.33 1.57" class="st0"/><path d="M438.16 437.27c11.55 32.69-16.58 72.44-62.83 88.79-46.25 16.34-93.11 3.09-104.66-29.6-5.14-14.53-2.43-30.46 6.23-45.11-3.57-11.56-2.98-32.74.39-36.64 3.12-3.59 12.13 3.61 18.81 14.21 10.26-8.75 22.94-16.14 37.39-21.25 14.32-5.06 28.69-7.28 42.06-6.97-3.96-9.45-4.7-21.42 1.14-20.13 3.81.84 15.12 6.49 28.27 25.51 15.94 5.96 28.06 16.65 33.2 31.19m-55.58-7.97 5.27 14.91m-78.93 11.13 5.27 14.9m-160.24 588.62c-3.19 34.64-8.27 56.78-10.95 62.14-3 6 19 26 18 53-.85 23.01-13.49 51.07-12 60 1 6 8 12 4 19-2.48 4.34-17 4-22-4-3.39-5.43-1-30-4-38s-5-12-7-14M69 964c2-13 24-47 31-54 2-10 8-27 12-29 2.53-1.26 9 15 11 20 6 0 35 9 42 16 11-7 18-10 20-10 3 0-4 25-7 29s2.94 30.24 1 38c-6 24-14.24 26.02-19.99 46.99" class="st0"/><path d="M37.26 1037.12C41.98 991.13 53.37 964.79 66 964c16-1 27 17 30 28s13 23 31 27 59 0 68 4 16 13 4 18-76 17-95 14-41-22-46-28m47 110c9 9 24 41 13 62s-13 23-13 29c0 14 10 17 10 28 0 6-15 10-24 2-11.63-10.34-16-62-20-73s-37-36-36-107c.11-8.13.4-15.88.84-23.24" class="st0"/><path d="M94.24 1052.21c-24.76.93-46.74 4.54-57.24 2.79-12-2-27.85-18 27.08-22m113.37 13.66c-.47 5.44-2.15 9.69-5.45 11.34-8.47 4.23-23.9-.49-42.44-3.64M166 1006c3.26 2.93 5.39 7.99 7.71 14.99M53.94 1159.1C37 1179 28 1203 24 1224s-18 30-36 34c-18.24 4.05-23.66-17.27-5-21 30-6 13-47 60-101m65-232 3-9 4 6m54 22 7-4-3 9" class="st0"/><ellipse cx="108.5" cy="944.5" class="st0" rx="17.5" ry="14.5" transform="rotate(-70.846 108.488 944.487)"/><path d="m109.5 940.09-2.29 6.61" class="st0"/><ellipse cx="155.5" cy="959.5" class="st0" rx="17.5" ry="14.5" transform="rotate(-70.846 155.487 959.487)"/><path d="m156.5 955.09-2.29 6.61M130 949l1 3 3-1m-3 1-8 23m81.75 56.36C203 1029 195 1031 195 1031m1.78-7.13C196 1023 191 1025 191 1025m-154 22c-3 0-6 3-7 4m5-9c-3 0-8 2-8 2m74 210c3 2 2 7 2 7m5-9c2 1 4 6 3 8m30-14c1 1 2 6 0 8m8-8c1 1 2 5 1 8m774-966c-2-11-12-35-23-43-6-14-10-29-14-30s-13 19-14 21c-7-2-36-1-41 1-6-8-13-19-16-20s-13 25-14 33c-10 11-20 43-22 50s-25 46-3 97c2 20 13 32 42 30s40.59-6.95 40-14c-1-12-26-15-49-13" class="st0"/><path d="M901 395c-23 1-41 4-42 18s27 12 42 11 42.29-7.14 44-14c4-1 33.82 3.08 69-12 7-3 85 11 87-5s-64-34-70-51-13-116-130-97M771.57 381.66c-13.57 2.34-43.02 23.21 6.71 22.78" class="st0"/><path d="M1025.17 318.95C1046 323 1106 316 1125 312s34.04-3.84 37 8c3 12-34.64 34.43-118.32 34.22M868 276c0 11 39 8 39-1 0-10-39-11-39 1m-69 1c0 11 39 8 39-1 0-10-39-11-39 1m96.5-8.75L896 281m-67.82-11.79v13.42M881 238l5-8 3 10m-67 0-4-8-3 11m45.52 164.48C862 409 872 408 872 408m-11 8c5 2 10 0 10 0m-25-7c3 1 10 0 10 0m-9 7c2 1 10 2 12 0m232-28c1 1 7 3 9 3m-12 5c2 1 5 1 10 1m-347.05-2.41C753 395 760 393 760 393m-6 7c1 0 9-1 9-1m4 483c-20-6-34-33-21-70-7-20-9.74-27.14-9-29 2-5 21 4 27 9 8-2 50-5 55-3-1-13-3.44-17.81-3-20 1-5 21.9 4.69 31 32 3 9 4 37 14 54s10 29 8 43-13 62-27 70-61 13-76 12-20-15-2-23 53-14 58-19" class="st0"/><path d="M803 842c0 9 34 5 33-3-.87-6.95-33-3-33 3m23-6 2 9m-79 3c0 9 34 5 33-3-.87-6.95-33-3-33 3m23-6 2 9m14-8 3 2 3-3m-3 3 6 14m-55.95-23c-9.05-6-18.05-2-29.05 9-10.51 10.51-23.54 36.66-14 44 13 10 31-20 45.17-33.32" class="st0"/><path d="M709.94 847.23C682 847 638 857 609 889s-38 50-48 62-22 30-18 36 13 8 24-2 27-31 32-34 59-14 65-31m89.69 53.86C743 979 702 988 657 983c-39.08-4.34-66-4-69-4" class="st0"/><path d="M562 988.84c.28 21.78 0 43.96 0 53.16 0 14 24 19 26 0s4-54-3.81-75.41m16.6-68.29c-21.36 5.35-39.4 23.26-39.92 52.67m-15.5 22.89C533 972 526 965 529 958s15.27-7.9 31.13-5.95M543 985c2 1 5-2 5-2m1.91 8.74C553 991 555 986 555 986" class="st0"/><path d="M529 960c2 2 5 4 5 4m-1.34-10.01C535 957 538 958 538 958m228 14c-3 0-5 3-5 5m-1-13c-2 1-7 3-7 7m-44-90c-1 1-4 7-3 9m-6-13c-1 2-3.33 8.85-2.66 11.42M826 782s4 5 5 9m-82 3c1 0 6 3 7 5m157-315c10-4 32-5 36 2 3.33 5.82-1 19-26 21s-42-8-39-25 28-33 63-32m1 123c-10 8-19 34-11 45 9.3 12.79 45-1 43-12s-20-9-28-6" class="st0"/><path d="M963.79 597.68C972 595 978 587 978 584" class="st0"/><path d="M964 560c1 13 19 31 37 39 0 0-20 7-18 24s20 21 28 20m9-13c7 4 39 11 56 1" class="st0"/><path d="M1054 637c1 5-10 12-25 18s-33 19-44 18-8-16 20-30" class="st0"/><path d="M989 663c-4 2-4 7 0 9m-51-185c2 1 9 1 10-1m-11 11c2 1 8.77 1 10.39 0M966 605c2 1 8.39-1.9 10.7-4.45M970 612c2 0 7.34-1 9.67-3M884 479c-9 4-23 21-25 25-5 4-25 24-22 30s20 1 20 1c1 6 12 33 22 40-9 3-15 9-13 12 1.24 1.86 16 5 37 0 10 0 32.01-3.2 38.5-6.1" class="st0"/><path d="M890 534c9-2-5-31-14-27s2.12 29.64 14 27m12-4c2-5 9 6 2 8 7-3 12 8 6 7m-26-25 4-2m-35 3-5 6 7-1m28 54-5 3h9m25-8c9-2-5-31-14-27s2.12 29.64 14 27m-6-14 4-2m23.92-108.71C982 433 1022 428 1072 454s61 85 62 110-1 64-27 104-39.42 65.95-41 81c-2 19-30 19-30-2s5-45 40-90" class="st0"/><path d="M1100 514c-19-10-53-5-56 20s28 57 35 65c0 10-11 65 6 67s24-46 22-65" class="st0"/><path d="M1083 651c-4 2-4 10-4 10m13-9c1 1 3 7 2 9m-705.51 379.53c-1.19 7.14-19.05 20.24-39.28 20.24" class="st0"/><path d="M346.83 1058.39c2.38 5.95 17.86 33.33 7.14 39.28s-40.47-14.28-32.14-53.57 86.9-61.9 121.42-59.52 83.33 32.14 85.71 67.85-13.09 53.57-5.95 83.33 8.33 52.38 1.19 70.23c-7.14 17.86-32.14 13.09-23.81-9.52 8.33-22.62 2.38-52.38-2.38-66.66s-2.38-25 1.19-32.14" class="st0"/><path d="M434.92 1033.39c-17.86 2.38-48.81 51.19-38.09 88.09-7.14 4.76-50 10.71-47.62 26.19 1.72 11.16 40.47 4.76 60.71 0s28.57-4.76 34.52-13.09 11.9-14.28 20.24-15.48c8.33-1.19 21.82-3.57 31.74-14.28" class="st0"/><path d="M356.35 1096.48c8.33 8.33 27.14 17.2 39.17 19.31m82.57.38c-.31 6.5-5.07 17.21-33.64 18.4m-59.53-21.42c-17.12 1.01-47.74 13.29-27.44 22.72m-36.84-66.77c-10.71-2.38-29.76 9.52-17.86 25s52.44 22.37 42.89 4.04m75.98-112.55c.17-4.58-5.78-16.48-6.97-18.86s2.38-14.28 0-21.43c-2.38-7.14-19.05 8.33-21.43 10.71-5.95-2.38-46.43 5.95-51.19 8.33-5.95-3.57-20.24-5.95-25-5.95s4.76 21.43 7.14 26.19c-4.76 8.33-10.99 29.57-1.92 57.64" class="st0"/><path d="m331.35 976.25-2.38-5.95 7.14 1.19m32.14 15.47 3.58 2.38 2.38-3.57m10.71-3.57 21.43-3.57m-46.43 8.33-23.81 4.76m14.29 96.43c1.19 2.38 3.39 4.02 7.05 4.39m-14.19-.82s4.31 6.68 7.51 6.91m-11.09 2.61c2.38 2.38 3.57 2.38 5.95 2.38m15.48 40.48c-1.19 0-8.33 3.57-7.14 5.95m-1.19-19.05c1.19-3.57 7.14-4.76 7.14-4.76M401 960l5-5v7M278.93 291.82c3.27-9.8 37.02-30.49 46.82-41.38s1.09-23.95-13.07-16.33-28.31 8.71-46.82 18.51-23.95 25.04-39.2 46.82c-18.51 11.98-30.49 27.22-32.67 39.2-4.36 3.27-19.6 18.51-18.51 21.78.77 2.31 14.16 4.36 26.13 0 3.27 6.53 27.22 33.75 37.02 39.2-2.18 4.36-3.27 21.78 0 21.78s16.33-6.53 26.13-17.42c16.33-3.27 41.46-32.73 50.09-39.2 13.07-9.8 38.11-19.6 51.18-43.55s17.42-54.44 7.62-60.98c-9.8-6.53-14.16 14.16-19.6 23.95-5.44 9.8-18.51 28.31-31.58 33.75" class="st0"/><path d="M291.1 241.67c-26.89-10.71-66.32-14.49-123.23.06m176.42 57.09c-.01-5.56-6.32-24.93-26.21-41.37M214.67 377.09c-23.94.75-68.58.75-145.89-71.11-6.53 4.36-17.42-2.18-31.58-23.95s-19.6-42.47-9.8-44.64c9.8-2.18 32.67 37.02 34.84 39.2 2.18-17.42 34.84-63.15 82.75-23.95" class="st0"/><path d="M224.49 231.93c-5.44-14.16-16.33-39.2-66.42-14.16-6.53 3.27-4.36-5.44 0-15.24s11.98-26.13 4.36-30.49-28.31 16.33-41.38 65.33m-11.98 103.45c-17.64 8.28-45.73 33.75-53.35 53.35-10.63 27.32 1.09 43.55-16.33 46.82s-33.75-68.6 50.09-114.33M194 348.44l-4.36 5.44 7.63-1.08m47.91 50.08-1.09 7.62 6.53-5.44m8.71-45.73c-5.44 4.36 17.42 28.31 23.95 21.78 6.54-6.54-14.91-29.01-23.95-21.78m8.71 14.15 8.75-8.77m-54.48-39.14c-5.44 4.36 17.42 28.31 23.95 21.78 6.54-6.53-14.91-29.01-23.95-21.78m8.71 14.16 8.75-8.77m13.03 19.66h3.26v3.26m10.89-13.06-10.89 9.8M22.44 245.69c3.88.4 7.14 2.58 8.23 4.76" class="st0"/><path d="M155.22 173.13c2.84 1.1 3.93 7.63 2.84 9.81M360 84c3-16 12-47 17-50s12 14 12 14c4-2 41-3 52-1 4-10 6-16 8-16s10 11 15 26 38 66 7 92" class="st0"/><path d="M476 149c-7 0-38 1-39 14s29 11 39 7 17.3-20.98 2.15-28.99" class="st0"/><path d="M416.33 45.93C366 3 290-7 259 71s5 119 116 103c23 13 64 1 62-11-1.68-10.06-27-10-36-10" class="st0"/><path d="M383 84s15-4 25 0m27-2s12-5 22-1m-39 1 4 3 3-4" class="st0"/><path d="M424 108s1-17-2-24m5 77c1 0 7.08.82 7.54-2.09M427 168c2 1 6 0 8-1m3.21-7.65C438 159 442 162 447 160m-9 6c1 1 7 2 9 1m176.78 97.22s-15.82-1.05-23.2 5.27c-14.76-23.2-55.89-79.09-70.65-75.93s-2.11 18.98 6.33 41.13c8.44 22.14 10.55 64.33 14.76 84.36 4.22 20.04 32.69 54.83 72.76 61.16s107.56-13.71 114.94-52.73-18.98-84.36-33.74-95.96-9.49-21.09-14.76-37.96-11.6-21.09-11.6-28.47-3.16-18.98-7.38-21.09-13.71 14.76-13.71 14.76-56.94 2.11-70.65 30.58 6.33 53.78 22.14 63.27" class="st0"/><path d="M605.11 171.77s-11.91-13-15.07-11.94c-3.16 1.05-2.33 18.28-1.17 26.01m51.78 57.29c-12.65 1.05-37.44 8.07-40.87 25.12m31.38-70.46c1.28 5.12 35.85 1.05 34.8-5.27-1.05-6.33-36.91-3.17-34.8 5.27m-14.76 2.11c1.48 5.17-26.36 11.6-28.47 4.22s26.36-11.6 28.47-4.22m-68.88 95.96c-15.49-11.6-32.36-9.49-35.52-2.11s29.91 19.13 42.37 34.88m15.57 22.12c-43.17-2.17-91.68 10.49-108.55 25.25s-2.34 29.04 16.87 20.04c33.74-15.82 71.65-24.52 123.88-22.28m53.28-183.35 1.05 6.33m-50.62 0 1.91 8.96m-83.1-3.69c1.05 0 6.33 4.22 6.33 4.22m-2.12-11.6c2.11 1.05 6.33 5.27 6.33 5.27" class="st0"/><path d="M513.06 295.86c2.11-2.11 9.49-2.11 10.55-1.05m98.33 265.82c-18.26 0-42.33-25.16-39.74-46.17 2.15-17.44 19.34-30.78 31.15-40.01 8.31-6.5 34.37-21.55 61.23-4.1 9.67-7.18 19.34-13.34 21.48-13.34 4.3 0 2.15 22.57 0 28.73 6.45 6.16 16.11 21.55 22.56 36.94s23.63 22.57 33.3 44.12 29 131.33-49.41 143.64" class="st0"/><path d="M615.04 473.18c-.63-1.82-13.52-14.13-15.66-14.13s-2.15 20.52 0 25.65m37.6 22.58c0 6.16 35.45 6.16 35.45-1.03-.01-7.18-35.45-9.24-35.45 1.03m-18.27-1.03c0 4.1-26.85 6.16-27.93-1.03-1.07-7.18 27.93-7.24 27.93 1.03m0 8.21c0 2.05 8.59 3.08 8.59-3.08 1.07 4.1 4.3 7.18 7.52 3.08m29.01-9.24v5.75m-53.71-5.75v4.41m58.01 25.35c-12.89 6.16-40.82 6.16-67.67 64.64s-29 120.04 63.38 113.89c13.96 4.1 20.41 13.34 66.6 17.44s103.12 2.05 117.09-6.16 5.37-17.44-10.74-18.47-53.71 7.18-96.68 4.1c-13.97-1-20.67-4.7-20.67-4.7" class="st0"/><path d="M688.54 583.2c4.3-7.18 32.5-15.3 40.82-3.08 13.96 20.52-20.56 66.24-39.74 68.74-23.63 3.08-50.49-42.07-45.12-62.59 3.68-14.07 33.29-20.51 44.04-3.07M979 40c-38 14-31 62-16 84-52-9-63.32 10.28-61 18 3 10 33.76 2.79 59 10 28 8 39 7 51 9s25-6 23-2c-12 14-36.11 26.99-76 22-32-4-50.05-19.03-57-6-8 15 16.17 35.47 76 31 67-5 91-38 106-67s39-104-27-148-155-16-179 3c-10.71 8.48-30.35 6.67-42 21-14.45 17.77-20.81 50.99-23 55-6 11-9 30-7 32s14 0 20-3c2-1 24 16 51 22 5 6 17 14 20 13 .95-.32-2-13 0-16s6-14 6-14" class="st0"/><path d="M908 47c-1 9-14 31-11 45s15 20 34 18 23-13 15-19-29-4-29-4m-17.2 25.21C903 118 935 125 955 112" class="st0"/><path d="M939 97c2 1 8 1 9-1m-10 8c1 1 4 1 6 1m-31 33c-3 1-6.09 4.76-3.55 8.88M861 89l3-1v3m6 4c1 2 14 7 19 7m-56-21c1 2 15 8 21 7m-37-3-2 8m73 25 3 6m148.02 1142.67c5.16 12.58 14.67 28.79 3.17 34.86s-43.73-28.15-35.86-51.96 38.2-21.04 49.25-10.51c7.7 7.33 17.84 30.51 24.63 49.97 12.41 14.94 32.24 34.22 37.13 88 4.9 53.78 3.73 96.06 15.05 132.18 6.97 10.41 13.95 20.82 2.63 28.88s-34.04-9.95-58.77-83.01c-3.62 15.39-24.8 69.54-41 68-16.21-1.54-1-33.05-1-33.05" class="st0"/><path d="M1039.6 1482.51c-5.34 7.52-22.81 25.17-39.83 14.67s-9.06-44.36-.73-63.19c-6.79-19.46-9.33-36.3-10.78-52.24m3.15-9.32c-1.36 7.15-10.56 17.12-16.38 18.56-12.77 3.17-22.27-13.03-40.83-7.33-5.81 1.79-35.4 19.29-43.18 10.96-7.79-8.33 15.75-25.53 29.06-33.77s30.96-12.86 32.77-15.03.54-16.12 7.15-20.73" class="st0"/><path d="M1027.3 1231.66c-13.27-7.9-41.61-21.38-77.64 1.98s-40.43 101.95 6.14 97.78" class="st0"/><path d="M937.35 1263.88c.45 4.98 11.77-3.08 7.97-11.77 6.43 4.44 20.28-8.88 12.22-9.15m20.16-21.16c3.1-10.08 10.7-14.78 11.7-14.88 1-.09 7.61 6.34 11.23 13.04m-77.77 59.34c.01 1.96-14.11 12.29-15.74 16.45s15.85 8.6 15.85 8.6m113.88-17.4c.45 4.98 7.73 9.96 10.25 8.92m-16.95-5.29c.18 1.99 2.48 8.33 4.86 10.87m-134.85 83.3c-2.9 1.27-6.34 9.17-2.99 12.1m144.78 111.55c-2.72 3.26-3.27 11.18-1.9 13.65m-7.24-14.82c-2.81 2.26-4.5 6.85-4.74 9.18m95.64 7.64c3.26 2.72 3.57 10.98.61 14.63m9.17-17.52c2.08.81 5.7 7.51 5.25 13.58m-128.29-34.18c-19.73 18.53-52.41 45.61-90.8 54.13-19.91 4.42-23.36-13.94-4.08-22.72s57.61-27 74.47-52.3m45.93-617.01C1077.23 884.5 1094 910.02 1099 930c6 24 1 86-23 117 0 7 2 22-3 35s-11 27-3 31 35 8 34 19-58 0-62-7-8-50-11-52-38-8-45-27c-18 15-59 22-78 23s-50-2-72-18c-20.62-15-.07-27.5 12-19 27 19 85 22 126 5m-49.13-139.04c-.12-12.6 3.09-23.76 4.13-28.96 1.93-9.68 16.04-40.88 73.1-21.16" class="st0"/><path d="M957.68 945.6c-7.19-2.62-14.02-6.66-19.68-12.6a45.1 45.1 0 0 1-8.22-11.94M1008 945c-5.27 2.64-15.37 4.89-26.81 4.71m-49.85 117.21c-15.93 15.39-36.82 28.86-33.34 34.08 6 9 30.78-3.19 42-8 14-6 26-17 35-20s26.85-5.85 30.92-8.93" class="st0"/><path d="M990.32 949.34C999 956 1003 980 995 994c-7.06 12.35-31.25 31.72-45.77 50.53M1008 903c-5-4-4-28-4-41s-9.65-41.09-8-51c2-12 20-24 31-21s-2.23 16.84-5 21c-6 9 17 50 17 66m-72.15-35.57C959 839 935 828 927 820s-17-14-24-9 3.85 31.7 31.93 45.35m22.93 89.31C957 952 959 970 962 971s18.66-19.55 19.83-21.28m-56.96-51.76C915 902 907 918 906 920s20.57 2.12 23.78 1.06M964 910c2 6 11 11 21 13m-54-37c0 3 9 11 15 12m6-3c1-5 8 0 6 6 4-4 8-4 10 0" class="st0"/><path d="M965 958s6-7 7-9m-55-34s8 0 11-1m102.92-121.17C1028 792 1023 797 1023 798m0-8c-3 1-6 4-6 5m-110 15c0 2 3 5 3 5m-8.78-1.21C901 817 906 821 906 821m187 308c1 1 4 3 3 7m-185-45c-1.58 1.58-3 5-2 6s7 1 9-1-2-4-3-4c0-1-2-3-4-1M372.1 636.01c-10.22 8.18-37.82 3.07-49.07-21.47-8.57-18.7-16.36-22.49-23.51-21.47s-22.49-3.07-10.22-16.36 29.65-8.18 38.85 0c8.71 7.74 12.27 25.56 26.58 27.6s31.69-17.38 36.8-20.44c5.11-3.07 17.38-43.96 53.16-53.16 26.58-18.4 30.67-19.42 32.71-17.38s-1.02 16.36-4.09 19.42c4.09 0 25.56 10.22 30.67 15.33 5.11-7.16 12.27-17.38 15.33-16.36 3.07 1.02 4.09 26.58 0 33.73 2.04 8.18 7.16 25.56-20.44 66.45" class="st0"/><path d="M479.44 667.7c-6.13 14.31-17.38 24.53-30.67 18.4s18.4-64.4 41.91-56.22 19.42 52.13-12.27 72.58c-5.11 19.42-9.2 36.8-25.56 60.31 6.13 15.33 8.97 29.43 7.16 43.96-2.04 16.36-2.04 33.73 3.07 36.8s39.87 6.13 39.87 17.38c0 7.23-52.13 4.09-61.33 0s-31.69-61.33-44.98-65.42c-22.49 3.07-48.81-5.71-55.2-2.04-3.98 2.28-11.98 6.06-22.49 27.6-5.62 11.51-13.29 17.38-19.42 19.42s-62.85 10.11-65.42-1.02c-3.07-13.29 40.89-16.36 42.93-26.58 1.17-5.84 3.07-44.98 18.4-68.49s47.74-36.96 56.22-53.16c11.24-21.47 13.79-51.59 13.79-51.59" class="st0"/><path d="M254.54 824.11c-19.17 1.69-35.81 1.74-46 2.04-33.73 1.02-29.65-21.47-8.18-24.53 25.48-3.64 77.69-6.13 77.69-6.13m94.58-.1c-8.57 8.05-27.58 14.14-50.04 18.69m164-251.67c-2.04 6.13 22.49 19.42 27.6 11.24 5-7.99-23.55-23.39-27.6-11.24m-11.24-9.2c-3.07 7.16-37.82-4.09-32.71-13.29s36.53 4.38 32.71 13.29m-11.25 9.2c-1.02 4.09 8.18 6.13 11.24 2.04-1.02 4.09 2.04 9.2 6.13 8.18m18.41 0 3.07-5.11m-50.09-17.38 3.06-6.13M295.43 584.9c-2.04 0-3.07 6.13-1.02 7.16m167.65 84.84c-1.02 1.02-3.07 8.18-2.04 10.22m-7.16-12.26c-1.02 1.02-4.09 7.16-3.07 11.24m42.93 171.74c2.04 0 4.09 2.04 4.09 5.11m-246.36-28.62c-2.04 0-7.64 3.82-6.88 9.57" class="st0"/><ellipse cx="681.5" cy="2213" class="st0" rx="60.5" ry="12"/><ellipse cx="680.66" cy="2237.31" class="st0" rx="39.34" ry="7.8"/><path d="M716 2267.51c-1 4.49-15.67 7.8-35 7.8s-35-3.49-35-7.8M621 2213l25.3 55.53M742 2213l-26 55m-6.5-7.01c0 3.15-12.87 5.7-28.75 5.7s-28.75-2.55-28.75-5.7M641 2237l11 24m68-24-10.74 24.72M829 1822c0 16.03 8 61 9 66s58 2 63 2 47-25 49-27-5-66-6-68-33-24-37-27l-2-14-58 14 2 14s-20 36-20 40" class="st0"/><path d="M901 1887s-7-71-8-73-44-32-44-32l58-14m-14 46 51.34-17.45M840 1860s-3-18-2-18 8 8 9 8 5-9 5-10 4 17 4 18m5-17 3 16m5-19 3 19 8-1m1-19 4 19" class="st0"/><path d="m890 1840-6 8 9 7M574.88 748.53c2.35 4.71 25.9 7.85 28.25 3.14s10.99-21.19 10.2-22.76c-.78-1.57-14.13 3.14-14.13 3.14-.78-3.92-4.71-18.05-6.28-18.05s-10.2 17.27-10.2 17.27c-1.57-1.57-10.99-7.85-11.77-7.85s1.4 20.05 3.93 25.11" class="st0"/><ellipse cx="858" cy="631" class="st0" rx="43" ry="9"/><path d="M910 657c0 4.97-23.28 11-52 11s-52-6.03-52-11m95-26 9 26m-95-26-8.88 25.4" class="st0"/><path d="M806.81 654.43c-7.19 2.43-9.21 6.7-7.81 10.36 2 5.21 26.42 11 59 11s56.73-6.99 58-11.79c1-3.79 0-8-6-10" class="st0"/><ellipse cx="61.3" cy="1308.21" class="st0" rx="69.5" ry="12" transform="rotate(-7.348 61.255 1307.77)"/><path d="M130.36 1300.31c1.28 9.92 1.62 12.57 2.05 15.87.85 6.57-29.33 15.88-67.4 20.79s-69.62 3.56-70.46-3.02c-.42-3.29-1.02-7.93-2.17-16.86" class="st0"/><path d="M19.05 1321.37c11.61-3.17 26.52-6.1 42.9-8.21 16.36-2.11 34.47-3.09 46.5-2.97m-43.93 26.84 1.27 9.92m.13.99c6.43-4.86 14.62-3.9 15.64 4.03s-8.86 17.28-12.83 17.79c-4.09.53-16.03-7.01-16.92-13.95s7.52-12.06 14.11-7.87m466.61-513.83c0-15.09 5.8-47.58 9.28-54.55 0-19.73 0-23.21 3.48-25.53s17.41 12.77 19.73 16.25c3.48-1.16 39.46-3.48 53.39 0 5.8-6.96 13.93-15.09 17.41-13.93s1.16 24.37 1.16 26.69 6.96 32.5 5.8 51.07" class="st0"/><path d="M641.55 811.11c15.07 3.17 24.45 7.62 24.45 12.56 0 9.61-35.59 17.41-79.5 17.41s-79.5-7.79-79.5-17.41c0-5.18 10.34-9.84 26.75-13.02" class="st0"/><ellipse cx="617.26" cy="812.06" class="st0" rx="17.41" ry="6.96"/><path d="m625.43 805.91-.05 10.79" class="st0"/><ellipse cx="561.3" cy="811.99" class="st0" rx="17.41" ry="6.96"/><path d="m569.48 805.84-.06 10.79m17.66-8.05 2.32 2.32 2.32-2.32m-2.32 3.48v17.41m181.26 538.4-175.33-36.03c4.58 4.36 1.58 28.59-1.82 54.17-3.41 25.58-7.92 36.03 27.5 57.99s-9 56-1 98" class="st0"/><path d="M850.61 1386.2a4.505 4.505 0 0 0-3.43-5.36l-73.26-16.04a4.505 4.505 0 0 0-5.36 3.43h0a4.505 4.505 0 0 0 3.43 5.36l73.26 16.04c2.43.54 4.82-1 5.36-3.43" class="st0"/><circle cx="630.65" cy="1557.81" r="17.5" class="st0"/><path d="M638.41 1573.5c-.2 10.29 5.42 20.89 19.16 33.98s14.37 20.68 14.94 26.03c.58 5.35 8.37-5.57 2.69-18.41-10.59-23.94-3.1-35.71-31.49-44.42M114 90l-95-9c0 12 3 62 4 65s82 16 92 14 85-41 87-43-2-60-2-62-41-10-46-11-76 30-81 33 38 11 41 13l84-34m-82 101-2-65" class="st0"/><path d="M19 81s74-29 79-31 40.58-1.17 40.58-1.17M39 102c10.05-.01 44.94 3.53 52 4 15 1 15 26-1 25s-48.02-3.89-53-5c-9-2-12.96-23.99 2-24m40-20-9 3" class="st0"/><ellipse cx="82" cy="118" class="st0" rx="6" ry="11" transform="rotate(-87.323 82 118)"/><ellipse cx="49" cy="116" class="st0" rx="6" ry="11" transform="rotate(-87.323 49 116)"/><path d="M82 118v5m-33-7v5" class="st0"/><ellipse cx="417.98" cy="1786.89" class="st0" rx="58.74" ry="9.55"/><ellipse cx="417.5" cy="1812.2" class="st0" rx="50.62" ry="7.16"/><path d="M476.7 1805.04c9.6 9 15.3 20.26 15.3 32.47 0 29.54-33.35 53.49-74.5 53.49s-74.5-23.95-74.5-53.49c0-12.61 6.07-24.19 16.24-33.34" class="st0"/><path d="M359.24 1786.89c.96 4.78 4.86 11.43-.92 18.13m117.87-18c-.96 4.78-4.86 11.43.92 18.13m-7.9 7.26c8.3 7.13 13.24 16.05 13.24 25.72 0 23.4-28.86 42.37-64.47 42.37s-64.47-18.97-64.47-42.37c0-9.98 5.26-19.16 14.05-26.4" class="st0"/><path d="M447.11 1837.51c0-1.91-13.37-10.51-27.7-10.51s-18.15 9.55-18.15 9.55c-3.82-6.69-22.92-15.28-4.78 2.87-5.73 6.69-8.6 20.06 5.73 5.73 2.87 5.73 11.46 5.73 15.28 5.73 12.43 0 29.62-8.59 29.62-13.37" class="st0"/><path d="M431.11 1828.74c-5.97 3.04-4.02 16.8 1.69 19m3.8-12.14v2.87M328.29 884.19c3-5 18-17 28-3 7.91 11.07-19 44-22 44s-29-19-31-32 15-21 25-9" class="st0"/><path d="M341.29 875.19c5-1 18.7-4.03 23.7-3.9 3.83.1 7.73 1.87 11.08 6.56 7.91 11.07-19.25 42.8-22 44-.78.34-10.78 3.34-19.78 3.34m-20-47c5-2 17.44-2.91 23-2M139.48 460.6c-1.87-10.33 2.84-17.84 6.59-18.78 3.76-.94 11.27-.93 15.96 9.41 4.69 2.82 21.6 2.84 23.46 13.17 1.87 10.33-9.41 19.71-24.43 17.82-6.58 7.51-16.92 13.13-26.3 7.49-9.39-5.65-2.8-22.55 4.72-29.11m-22.5-37.59c-6.58 5.63 5.61 24.42 15 20.67s-3.83-30.23-15-20.67m36.61 10.37c7.51.01 11.33-25.34-.91-25.36-10.33-.01-9.58 25.35.91 25.36m-30.08 29.08c-1 4.96-22.54 3.73-22.53-6.6s24.42-2.79 22.53 6.6m46.98-17.8c4.69 2.82 19.73-12.19 9.41-17.83-7.82-4.27-18.59 12.31-9.41 17.83m916.36 391.58c4.51-8.79 12.32-11.72 15.67-10.27 3.34 1.45 8.96 5.75 6.55 16.16 1.89 4.79 14.52 14.47 10.01 23.27s-18.31 9.36-28.46-.65c-9.21 1.85-20.16.14-23.95-9.45s10.81-18.45 20.18-19.06m4.68-40.97c-8.14.44-9.77 21.47-.61 24.04 9.17 2.57 14.43-24.8.61-24.04m21.44 28.69c5.61 4.3 22.97-12.47 13.82-19.48-7.71-5.91-21.66 13.47-13.82 19.48m-39.12 4.54c-3.58 3.14-18.99-10.1-13.07-17.82 5.91-7.71 19.85 11.88 13.07 17.82m45.3 13.56c1.89 4.79 21.73 2.17 17.23-7.95-3.4-7.67-20.94-1.42-17.23 7.95M636.26 439.62c3 6 33 10 36 4s14-27 13-29-18 4-18 4c-1-5-6-23-8-23s-13 22-13 22c-2-2-14-10-15-10s1.78 25.55 5 32m-180.93 966.02c3 6 33 10 36 4s14-27 13-29-18 4-18 4c-1-5-6-23-8-23s-13 22-13 22c-2-2-14-10-15-10s1.77 25.55 5 32m-29.97-478.81c0 2.36 2.02 3.33 4.55 3.22 4.21-.18 9.83-1.93 9.83.88 0 .31-1.54 2.13-3.16 3.75l-4.49 4.49c-2 2-3.79 4.01-4.04 6.14-.38 3.24 1.45 5.46 5.41 5.82 4.23.39 10.62.92 14.33.39 3.04-.44 4.49-2.24 4.52-4.41.03-2.11-2.19-2.7-4.87-2.86-4.17-.25-7.5.49-7.5-1.7 0-1.92 4.4-5.02 7.85-8.97 1.66-1.9 1.96-4.2 1.82-6.22-.18-2.57-2.58-5.16-6.02-5.08-3.66.09-9.27.09-12.96.33-3.21.19-5.27 2.03-5.27 4.22m34.73-13.01c0 2.54 2.18 3.59 4.91 3.48 4.54-.19 10.6-2.08 10.6.95 0 .33-1.66 2.3-3.41 4.05l-4.84 4.84c-2.16 2.16-4.09 4.33-4.35 6.62-.41 3.49 1.57 5.89 5.84 6.28 4.57.42 11.46.99 15.46.42 3.28-.47 4.84-2.42 4.87-4.75.03-2.27-2.37-2.92-5.25-3.09-4.5-.27-8.09.52-8.09-1.84 0-2.07 4.75-5.42 8.47-9.68 1.79-2.05 2.11-4.53 1.96-6.71-.19-2.78-2.78-5.57-6.49-5.48-3.94.09-10 .09-13.98.36-3.46.2-5.7 2.19-5.7 4.55m33.72-10.69c0 2.82 2.41 3.98 5.43 3.85 5.03-.21 11.74-2.31 11.74 1.05 0 .37-1.84 2.55-3.77 4.48l-5.36 5.36c-2.39 2.39-4.52 4.79-4.82 7.33-.45 3.87 1.73 6.52 6.46 6.95 5.06.46 12.68 1.1 17.12.46 3.63-.52 5.36-2.68 5.39-5.26.03-2.52-2.62-3.23-5.81-3.42-4.98-.3-8.96.58-8.96-2.03 0-2.29 5.25-6 9.38-10.72 1.99-2.27 2.34-5.02 2.17-7.43-.21-3.07-3.08-6.17-7.19-6.07-4.37.1-11.07.1-15.47.4-3.84.24-6.31 2.43-6.31 5.05M103.16 2024.71c0 2.1 1.8 2.97 4.05 2.87 3.75-.16 8.76-1.72 8.76.78 0 .28-1.37 1.9-2.81 3.34l-4 4c-1.78 1.78-3.38 3.58-3.6 5.47-.34 2.89 1.29 4.86 4.82 5.19 3.77.34 9.47.82 12.77.34 2.71-.39 4-2 4.03-3.93.02-1.88-1.96-2.41-4.34-2.55-3.72-.22-6.69.43-6.69-1.52 0-1.71 3.92-4.47 7-8 1.48-1.7 1.75-3.74 1.62-5.55-.16-2.29-2.3-4.6-5.36-4.53-3.26.08-8.26.08-11.55.3-2.85.2-4.7 1.83-4.7 3.79m30.97-11.6c0 2.27 1.94 3.2 4.37 3.1 4.05-.17 9.45-1.86 9.45.84 0 .3-1.48 2.05-3.04 3.61l-4.32 4.32c-1.92 1.92-3.64 3.86-3.88 5.9-.36 3.11 1.4 5.25 5.2 5.6 4.07.37 10.21.89 13.78.37 2.92-.42 4.32-2.16 4.34-4.24.03-2.03-2.11-2.6-4.68-2.75-4.01-.24-7.21.47-7.21-1.64 0-1.84 4.23-4.83 7.55-8.63 1.6-1.83 1.88-4.04 1.75-5.98-.17-2.48-2.48-4.97-5.79-4.89-3.52.08-8.91.08-12.46.32-3.07.19-5.06 1.96-5.06 4.07m30.05-9.53c0 2.51 2.15 3.55 4.84 3.43 4.48-.19 10.46-2.06 10.46.93 0 .33-1.64 2.27-3.36 3.99l-4.78 4.78c-2.13 2.13-4.03 4.27-4.3 6.53-.4 3.45 1.54 5.81 5.76 6.19 4.51.41 11.31.98 15.26.41 3.23-.47 4.78-2.39 4.81-4.69.03-2.24-2.34-2.88-5.18-3.05-4.44-.27-7.99.52-7.99-1.81 0-2.04 4.68-5.34 8.36-9.56 1.77-2.03 2.08-4.47 1.94-6.63-.19-2.74-2.74-5.5-6.41-5.41-3.89.09-9.86.09-13.79.35-3.42.25-5.62 2.21-5.62 4.54m682.94-1002.45c1.37.34 68 0 72-2s0-25-17-27-20 9-20 9 2-15-11-14-7 16-5 18c-4 1-23 15-19 16m72-2c9 0 14 6 9 14s0 16 7 19m-455.26-597.2c1.01.99 58.49 34.68 62.95 35s12.75-21.5-.85-31.89-21.79-2.46-21.79-2.46 9.37-11.88-2.32-17.65-14.18 10.19-13.48 12.93c-3.96-1.18-27.44 1.17-24.51 4.07m62.95 35.01c7.74 4.59 8.98 12.3.6 16.63s-8.16 13.76-3.67 19.91m317.97 686.33c4.97-15.91 27.13-22.38 34.8-11.93 10.94 14.91-16.9 61.64-28.83 71.58s-50.22-43.2-42.75-65.62c4.96-14.9 33.79-10.93 36.78 5.97m81.39-36.7c3.45-11.05 18.85-15.55 24.17-8.29 7.6 10.36-11.74 42.81-20.03 49.72s-34.88-30-29.69-45.58c3.45-10.35 23.48-7.59 25.55 4.15m55.82-29.06c2.28-7.29 12.43-10.25 15.94-5.47 5.01 6.83-7.74 28.24-13.21 32.79s-23.01-19.79-19.58-30.06c2.27-6.83 15.48-5.01 16.85 2.74M0 1804.6c4.36-5.77 10.36-6.9 12.59-5.43s5.73 5.27 2.69 12.47c.76 3.69 8.65 12.26 4.29 18.03s-14.38 4.44-20.44-4.05c-6.87.17-14.55-2.43-16.08-9.82-1.52-7.38 10.11-11.94 16.95-11.2m8.52-28.95c-5.92-.7-9.74 14.25-3.46 17.26s13.51-16.07 3.46-17.26m11.85 23.38c3.51 3.81 18.13-6.1 12.41-12.31-4.81-5.23-17.31 6.99-12.41 12.31m-28.77-1.64c-2.98 1.81-12.42-9.67-7.19-14.49 5.24-4.82 12.82 11.05 7.19 14.49m30.95 15.46c.76 3.69 15.39 4.3 13.42-3.57-1.48-5.95-14.91-3.65-13.42 3.57M456.5 245.57c.29-6.92 4.41-11.08 6.96-11.14s7.39 1.03 8.91 8.37c2.61 2.5 13.5 4.95 13.21 11.88s-8.91 11.33-18.32 7.94c-5.32 3.88-12.8 6.01-18.02 1.02s1.46-14.93 7.26-18.07m-9.06-27.46c-5.05 2.67.08 16.54 6.67 15.49 6.6-1.06 1.91-20.03-6.67-15.49m22.08 11.97c4.84 1.09 10.96-14.68 3.08-16.46-6.65-1.5-9.84 14.93-3.08 16.46m-23.58 14.38c-1.36 3.05-15.06-.86-13.56-7.51 1.51-6.65 16.14 1.73 13.56 7.51m32.83-4.67c2.61 2.5 14.47-4.99 8.64-10.12-4.41-3.88-13.75 5.24-8.64 10.12" class="st0"/><circle cx="772.67" cy="497.05" r="40.81" class="st0"/><path d="M737.54 515.77c13.35 7.33 52.86-.18 75.32-25.81" class="st0"/><path d="M741.38 523.27c14.2 7.44 47.67 5.45 72.08-25.02" class="st0"/><path d="M757.72 534.86c11.21 3.18 38.07-5.32 52.38-21.54m-40.3 2.03c8.34-7.38 14.52-52.13 2.79-59.11m8.39 55.79c9.08-12.67 16.16-43.06 5.78-53.29m7.37 46.71c6.95-8.68 11.23-28.95 7.36-37.3" class="st0"/><path d="M742.67 469.37c1.42 9.98 20.83 25.77 32.46 28.27m-39.69-16.59c.72 6.56 22 25.4 38.2 25.08m25.36 22C773 546 767 616 821 611c27.77-2.57 63.33-11.38 92 5 21 12 57.13 51.94 25 83-30 29-25-46 28-14s12 80-32 83m-56.88 1.35-6.16-5.05-6.31 5.52c-1.89 1.09-4.2-.46-3.91-2.62l2.36-8.52-6.67-3.19c-1.62-1.46-.86-4.14 1.28-4.53l7.64-.14 2.17-7.58c.89-1.99 3.67-2.09 4.71-.18l3.23 7.2 7.14-.25c2.16.23 3.13 2.84 1.63 4.42l-5.96 4.26 2.56 7.75c.44 2.13-1.74 3.85-3.71 2.91m167.56 1492.68-8.62-7.06-8.84 7.73c-2.64 1.52-5.88-.65-5.48-3.67l3.31-11.93-9.34-4.47c-2.26-2.04-1.2-5.79 1.79-6.34l10.69-.2 3.04-10.61c1.24-2.78 5.13-2.93 6.59-.25l4.53 10.08 9.99-.36c3.03.32 4.37 3.98 2.28 6.19l-8.34 5.96 3.58 10.85c.63 2.98-2.43 5.39-5.18 4.08M705.9 1979.05c-.65-11.04 11.59-20.26 18.8-15.57 10.29 6.69 3.97 42.23-1.11 51.2s-41.31-15.04-41.93-30.71c-.41-10.42 18.42-14.72 24.24-4.92m-67.11-938.58s5.49 13.07 10.54 12.29c5.06-.78 4.51-14.93 4.51-14.93s13.08-1.51 13.04-5.13-8.33-8.84-11.25-10.11c0 0 3.66-12.44 0-15.15s-12.67 8.89-12.67 8.89-13.22-5.88-15.77-3.14c-2.56 2.74 4.62 13.93 4.62 13.93s-10.47 10.24-8.48 13.96c1.98 3.72 10.71 1.23 15.46-.61M114.48 836.09s12.29 7.06 15.83 3.38c3.55-3.69-5.47-14.61-5.47-14.61s9.49-9.13 7.26-11.99c-2.23-2.85-11.98-1.98-15.08-1.22 0 0-4.63-12.11-9.19-12.05-4.55.06-4.68 14.75-4.68 14.75s-14.08 3.34-14.44 7.07c-.37 3.73 12.12 8.28 12.12 8.28s-2.12 14.49 1.72 16.24c3.84 1.76 9.27-5.51 11.93-9.85" class="st0"/><circle cx="1030.5" cy="233.5" r="9.5" class="st0"/><path d="M626.25 2411.94c1.06.94 60.39 31.25 64.87 31.31s11.49-22.2-2.69-31.79-21.9-1.2-21.9-1.2 8.67-12.4-3.34-17.49-13.57 10.99-12.71 13.69c-4.01-.95-27.32 2.75-24.23 5.48" class="st0"/><path d="M691.12 2443.25c7.99 4.14 9.68 11.76 1.56 16.57s-7.35 14.21-2.51 20.09" class="st0"/><circle cx="289" cy="671" r="8" class="st0"/><circle cx="227.7" cy="896.5" r="7.64" class="st0"/><circle cx="265.5" cy="1395.5" r="9.5" class="st0"/><circle cx="873" cy="1337" r="10" class="st0"/><circle cx="62.5" cy="2435.5" r="7.5" class="st0"/><path d="M1104.02 243.5s5.49 13.07 10.54 12.29c5.06-.78 4.51-14.93 4.51-14.93s13.08-1.51 13.04-5.13-8.33-8.84-11.25-10.11c0 0 3.66-12.44 0-15.15s-12.67 8.89-12.67 8.89-13.22-5.88-15.77-3.14c-2.56 2.74 4.62 13.93 4.62 13.93s-10.47 10.24-8.48 13.96c1.98 3.72 10.71 1.23 15.46-.61" class="st0"/><ellipse cx="657.46" cy="83.73" class="st0" rx="41.01" ry="18.43" transform="rotate(-67.895 657.468 83.723)"/><path d="M674.42 46.55C694.21 59.36 758.19 110 755 117.87c-4.51 11.1-101.68 5.45-112.96 3.85" class="st0"/><ellipse cx="656.44" cy="83.81" class="st0" rx="10.14" ry="3.69" transform="rotate(-67.895 656.44 83.803)"/><path d="M751.22 110.39c17.35-3.92 46.08-1.2 47.77 4.46 1.68 5.66-13.93 12.25-24.01 10.14 14.51 5.89 19.87 15.07 17.53 18.06-4.13 5.28-30.12-7.45-44.14-21.51M629.16 30.95c9.43 3.83 10.17 23.95 1.65 44.93s-23.08 34.89-32.51 31.06" class="st0"/><path d="M629.16 30.95c-27.35-6.13-82.52 7.26-89.06 13.56s32.39 54.93 58.2 62.43" class="st0"/><path d="M540.76 51.78c3.73 6.45 27.47 14.11 27.47 14.11" class="st0"/><circle cx="598.82" cy="57.92" r="2.3" class="st0"/><path d="M1013 1600c0-2-14-11-29-11s-19 10-19 10c-4-7-24-16-5 3-6 7-9 21 6 6 3 6 12 6 16 6 13 0 31-9 31-14" class="st0"/><path d="M996.25 1590.81c-6.25 3.19-4.21 17.59 1.77 19.89m3.98-12.7v3m-796 787c0-2-14-11-29-11s-19 10-19 10c-4-7-24-16-5 3-6 7-9 21 6 6 3 6 12 6 16 6 13 0 31-9 31-14" class="st0"/><path d="M189.25 2378.81c-6.25 3.19-4.21 17.59 1.77 19.89M195 2386v3m784.44 87.1c-38 14-31 62-16 84-52-9-63.32 10.28-61 18 3 10 33.76 2.79 59 10 28 8 39 7 51 9s25-6 23-2c-12 14-36.11 26.99-76 22-32-4-50.05-19.03-57-6-8 15 16.17 35.47 76 31 67-5 91-38 106-67s39-104-27-148-155-16-179 3c-10.71 8.48-30.35 6.67-42 21-14.45 17.77-20.81 50.99-23 55-6 11-9 30-7 32s14 0 20-3c2-1 24 16 51 22 5 6 17 14 20 13 .95-.32-2-13 0-16s6-14 6-14" class="st0"/><path d="M908.44 2483.1c-1 9-14 31-11 45s15 20 34 18 23-13 15-19-29-4-29-4m-17.21 25.2c3.2 5.79 35.2 12.79 55.2-.21" class="st0"/><path d="M939.44 2533.1c2 1 8 1 9-1m-10 8c1 1 4 1 6 1m-31 33c-3 1-6.09 4.76-3.55 8.88m-48.45-57.88 3-1v3m6 4c1 2 14 7 19 7m-56-21c1 2 15 8 21 7m-37-3-2 8m73 25 3 6M349-307.16c22.59 22.75.3 34.72-33.09 46.68s-59.43 41.42-36.94 65.59c22.5 24.17 46.29 7.31 38.66-5.95s-57.2-13.71-65.74 40.3 42.65 90.46 52.74 123.96C315.1-1.87 288.3 28.24 259.13 8.6M626.3-24.56c1.06.94 60.39 31.25 64.87 31.31 4.47.06 11.49-22.2-2.69-31.79s-21.9-1.2-21.9-1.2 8.67-12.4-3.34-17.49-13.57 10.99-12.71 13.69c-4.02-.95-27.33 2.75-24.23 5.48m64.86 31.31c7.99 4.14 9.68 11.76 1.56 16.57s-7.35 14.21-2.51 20.09" class="st0"/><circle cx="62.54" cy="-1" r="7.5" class="st0"/><circle cx="227.03" cy="1121.16" r="51" class="st0"/><path d="M183.14 1144.54c16.68 9.16 66.06-.22 94.12-32.26" class="st0"/><path d="M187.94 1153.93c17.74 9.29 59.57 6.8 90.07-31.27" class="st0"/><path d="M208.35 1168.4c14.01 3.97 47.57-6.64 65.46-26.91m-50.36 2.53c10.42-9.22 18.14-65.14 3.48-73.87m10.49 69.72c11.35-15.83 20.19-53.81 7.22-66.59m9.21 58.37c8.69-10.84 14.03-36.17 9.2-46.61" class="st0"/><path d="M189.55 1086.56c1.78 12.48 26.02 32.2 40.56 35.32m-49.6-20.72c.9 8.2 27.49 31.73 47.73 31.34M200 1165c23 13-9 51-23 102s-6 101 73 153 108-17 76-23-77 44-62 87 64 75 21 118m246.11-328.63c-1.95.45-7.58 16.11-4.22 30.73s14.01 16.27 14.01 16.27c-5.92 5.47-10.21 26.98 4.04 4.2 8.17 4.28 22.48 4.06 4.5-7.19 5.17-4.27 3.16-13.04 2.26-16.94-2.91-12.67-15.72-28.2-20.59-27.07" class="st0"/><path d="M525.91 1291.75c4.51 5.38 18.09.16 18.98-6.19m-13.26-1.03 2.92-.67M215.34 178.33l-8.62-7.06-8.84 7.73c-2.64 1.52-5.88-.65-5.48-3.67l3.31-11.93-9.34-4.47c-2.26-2.04-1.2-5.79 1.79-6.34l10.69-.2 3.04-10.61c1.24-2.78 5.13-2.93 6.59-.25l4.53 10.08 9.99-.36c3.03.32 4.37 3.98 2.28 6.19l-8.34 5.96 3.58 10.85c.63 2.98-2.43 5.39-5.18 4.08" class="st0"/><circle cx="765" cy="1770" r="10" class="st0"/><circle cx="399" cy="345" r="10" class="st0"/><path d="M362.12 1709.39c1.32.39 65.99 2.65 69.95.86s.97-24.26-15.45-26.86-19.76 7.96-19.76 7.96 2.53-14.48-10.13-14.01-7.42 15.25-5.55 17.27c-3.92.81-22.9 13.66-19.06 14.78" class="st0"/><path d="M432.07 1710.25c8.73.35 13.35 6.37 8.19 13.94s-.62 15.53 6.05 18.71m149.09-100.28-7.79-1.62-3.04 7.82c-1.17 1.84-3.94 1.53-4.68-.51l-1.85-8.65-7.39.26c-2.11-.55-2.67-3.27-.96-4.61l6.71-3.66-1.58-7.72c-.13-2.17 2.28-3.55 4.09-2.34l6.2 4.89 6.21-3.53c2.03-.8 4.09 1.07 3.49 3.17l-3.31 6.53 5.85 5.69c1.36 1.66.22 4.2-1.95 4.28" class="st0"/><circle cx="752.5" cy="202.28" r="7.93" class="st0"/><circle cx="116" cy="1719" r="9" class="st0"/><path d="M-12.74 2337.33c-7.7-3.71-26.94-2.39-29.19 7.66s37.83 24.78 43.64 17.56c4.44-5.5-1.33-18.89-14.45-25.22" class="st0"/><ellipse cx="-19.44" cy="2317.48" class="st0" rx="9.5" ry="7.5" transform="rotate(-80.514 -19.45 2317.473)"/><ellipse cx="3.8" cy="2327.47" class="st0" rx="9.5" ry="7.5" transform="rotate(-48.32 3.802 2327.464)"/><ellipse cx="16.23" cy="2345.49" class="st0" rx="8.87" ry="7" transform="rotate(-26.501 16.186 2345.31)"/><ellipse cx="-42.32" cy="2324.38" class="st0" rx="7" ry="8.87" transform="rotate(-22.061 -42.292 2324.544)"/><path d="M-51.34 2338.6c-2.99-2.66-13.46-19.63 2.07-30.01 4.16-2.78 10.76-.46 15.76 3.42.21-12.65 23.11-22.21 29.4.8 12.8-9.28 33.45 4.34 22.15 18.39 19.35-3.79 24.22 27.6-6.18 29.63-2.71 10.71-5.57 20.15-9.29 26.41-5.2 8.77-65.91-11.52-63.21-22.23 4.2-16.59 7.38-22.76 9.3-26.41m1163.43-1.25c-7.7-3.71-26.94-2.39-29.19 7.66s37.83 24.78 43.64 17.56c4.44-5.5-1.33-18.9-14.45-25.22" class="st0"/><ellipse cx="1105.39" cy="2317.5" class="st0" rx="9.5" ry="7.5" transform="rotate(-80.514 1105.376 2317.494)"/><ellipse cx="1128.63" cy="2327.48" class="st0" rx="9.5" ry="7.5" transform="rotate(-48.32 1128.63 2327.482)"/><ellipse cx="1141.06" cy="2345.51" class="st0" rx="8.87" ry="7" transform="rotate(-26.501 1140.927 2345.348)"/><ellipse cx="1082.51" cy="2324.4" class="st0" rx="7" ry="8.87" transform="rotate(-22.061 1082.617 2324.546)"/><path d="M1073.49 2338.61c-2.99-2.66-13.46-19.63 2.07-30.01 4.16-2.78 10.76-.46 15.76 3.42.21-12.65 23.11-22.21 29.4.8 12.8-9.28 33.45 4.34 22.15 18.39 19.35-3.79 24.22 27.6-6.18 29.63-2.71 10.71-5.57 20.15-9.29 26.41-5.2 8.77-65.91-11.52-63.21-22.23 4.2-16.59 7.38-22.75 9.3-26.41M545.63 649.1s8.75 4.86 11.21 2.22c2.47-2.64-4.01-10.25-4.01-10.25s6.6-6.55 5-8.54-8.48-1.27-10.65-.7c0 0-3.4-8.5-6.61-8.41s-3.15 10.46-3.15 10.46-9.9 2.51-10.12 5.14c-.22 2.64 8.64 5.71 8.64 5.71s-1.34 10.25 1.39 11.45c2.71 1.2 6.47-3.99 8.3-7.08m699.39 781.68c-10.96 2.42-25.65 8.59-36.45 27.11-16.24 27.84 5.92 57.83 44.56 58.09 29.96.2 54.58-17.95 56.51-39.94 1.93-21.98-20.78-54.96-64.62-45.26" class="st0"/><path d="m1251.52 1454.85 2.72 1.32 3.1-1.52" class="st0"/><circle cx="1283.24" cy="1467.25" r="15.82" class="st0"/><circle cx="1229.27" cy="1465.94" r="15.82" class="st0"/><path d="M1254.12 1457.12s-2.25 17.11.1 21.29" class="st0"/><circle cx="1228.6" cy="1466.68" r=".41" class="st0"/><circle cx="1282.95" cy="1467.28" r=".41" class="st0"/><path d="M1203.48 1525.88c8.33 6.18 103.08 2.94 108.96-4.99s7.23-76.08 4.87-88.32c-.57-2.98 9.68-7.43 8.08-17.31s-33.66-25.38-73.76-21.95c-40.53 3.46-62.7 22.79-63.77 30.91-1.13 8.55 6.93 13.48 7.63 15.51s.06 80.27 7.99 86.15" class="st0"/><path d="M1195.83 1532.6c10.22 14.48 120.56 6.36 125.79-5.08 6.96-15.26 6.74-76.09 5.9-91.67-.2-3.61 11.36-9.95 7.06-24.21-4.03-13.36-37.37-33.01-85.12-28.94-48.26 4.12-70.86 27.57-72.61 37.17-2.86 15.62 9.96 23.91 10.05 26.46.18 5.83-1.42 71.61 8.93 86.27" class="st0"/><path d="M1224.9 1539.65c-5.96 23.07-3.23 84.19-3.7 93.96-.55 11.53-9.53 20.98-7.43 27.06 2.38 6.9 16.36 7.96 23.06 1.1 6.7-6.85 12.19-26.44 11.46-42.97m23.11-.47c.06 9.57.17 16.96.02 19.85-.59 11.53-9.29 21.02-7.29 27.08 2.26 6.89 15.73 7.87 22.22.99s13.95-33.94 13.33-50.46m27.99-135.02c25.58 17.99 29.42 73.59 31.34 89.89s8.63 50.81-2.88 64.23c-11.25 13.12-20.13 16.3-28.76 24.93s-17.26 26.84-25.88 24.93c-8.63-1.92-6.71-14.38 6.71-32.59-3.83-20.13.96-67.11 32.59-65.19" class="st0"/><path d="M1293.21 1652.71c6.28-.65 11.44-1.55 14.65-2.5m-64.86.98c7.34 1.58 14.92 2.03 22.89 2.35m-44.94-61.79c-11.5 7.67-9.43 38.99-12.46 45.06-2.88 5.75-26.84 23.97-19.17 31.64 6.1 6.1 17.26-.96 23.97-7.67" class="st0"/><path d="M1210.58 1623.41c-24.14 3.82-70.16 2.86-81.66 7.65s-9.59 21.09.96 23.01 48.45-1.89 68.07-5.75m78.6 12.46c-2.88 1.92-3.83 8.49-.96 10m-6.7-11.92c-1.92.96-4.31 5.47-3.6 8.49m-38.59-11.36c-1.92.96-2.88 6.71 0 9.59m-6.71-10.55c-2.88 1.92-3.83 4.79-2.88 8.63m85.33 11.5c-1.92 1.92-2.88 8.63 0 9.59m-106.41-23.01c-3.83 1.92-6.2 6.39-4.06 8.47m99.12 163.09c8.62-10.34 29.42-15.43 37.92-9.48 8.62 6.03 3.45 45.68-13.79 49.12-17.24 3.45-11.2-22.41-8.62-28.44" class="st0"/><path d="M1314.36 1809.17c-9.48-6.89-23.27-2.59-32.75 12.07-9.48 14.65-15.51 35.34-3.45 44.82s25.29-5.6 25.29-5.6m97.95 9.04c-7.76 12.93-31.89 22.41-38.78 9.48s24.13-38.78 38.78-34.47 14.65 21.55 10.34 31.03" class="st0"/><path d="M1300.57 1805.73c-6.03-8.62-5.17-27.58 21.55-55.16 1.72-14.65 0-24.99 1.72-27.58s16.37 11.2 19.82 15.51c6.89-3.45 42.23-9.48 52.57-5.17 0 0-2.59-17.24 0-18.1s21.55 12.07 24.13 31.03c11.2 11.2 18.96 35.34 14.65 59.47s-9.48 37.06-9.48 37.06c1.72 8.62 7.76 36.2-17.24 56.88-24.99 20.68-32.75-4.91-30.16-14.52m-96.52-63.91c-19.82 0-63.78 11.2-70.67 51.71s12.07 70.67 31.89 78.43" class="st0"/><path d="M1320.39 1926.38c-5.17-11.2-30.16-18.96-55.16 5.17-.86-12.07-6.89-41.37-21.55-34.47-12.6 5.93-1.72 19.82-.86 37.06s-.86 27.58 7.76 31.89 11.26-.19 20.68 2.59c14.65 4.31 75.63 16.58 116.67-61.09m-138.2-79.58c-4.32-10.16-16.37-13.41-25.01-12.74-11.2.86-25.85 16.37-27.58 35.34-9.48-7.76-28.44-18.1-34.47-9.48-5.59 7.99 16.37 20.68 25.85 33.61 6.65 9.06 16.37 15.51 20.96 10.47m6.39 37.07c-17.86 5.03-48.02-4.45-71.29-14.79-23.38-10.39-40.51-14.65-45.68-5.17s6.29 30.35 47.4 42.23c38.78 11.2 75.66 5.04 87.38 1.66m82.38-168c-.26 6.09 7.31 10.66 20.23 11.21s20.88-4.29 20.24-9.49-8.14-11.56-21.02-12.97-19.19 5.22-19.45 11.25m19.2-5.23-.33 7.75m84.56-7.02c.57 6.07-6.75 11.03-19.62 12.24s-21.08-3.2-20.71-8.43 7.53-11.97 20.31-14.04c12.8-2.07 19.46 4.22 20.02 10.23m-19.44-4.22.73 7.72m-40.75 11.34c0 4.31 9.48 3.45 9.48-2.59 1.72 6.03 8.62 6.03 9.48 2.59m-74.65 78.89c3.12 2.98 10.01-3.05 10.01-7.36m.87 12.93c4.31-1.72 5.17-6.89 6.03-10.34m52.57 21.54c-1.72-1.72 1.72-9.48 5.17-10.34m-15.51 5.17c0-2.59 3.45-7.76 7.76-8.62" class="st0"/><path d="M1252.2 1897.25c-4.21.69-4.21 5.86-3.35 9.31m-6.89-8.62c-2.59 3.45-.86 7.76 0 10.34m-70.67-65.5c-2.59-1.72-8.55.37-8.58 4.49m172.33-105.32-5.17-6.03v8.62m73.25-8.62v-7.76l6.04 11.2M1142.8 738.69c4.09-13.09 22.33-18.42 28.64-9.82 9 12.28-13.91 50.74-23.73 58.92s-41.34-35.56-35.19-54.01c4.09-12.28 27.82-9 30.28 4.91m134.84 318.96c-3.19 34.64-8.27 56.78-10.95 62.14-3 6 19 26 18 53-.85 23.01-13.49 51.07-12 60 1 6 8 12 4 19-2.48 4.34-17 4-22-4-3.39-5.43-1-30-4-38s-5-12-7-14m-51-232.99c2-13 24-47 31-54 2-10 8-27 12-29 2.53-1.26 9 15 11 20 6 0 35 9 42 16 11-7 18-10 20-10 3 0-4 25-7 29s2.94 30.24 1 38c-6 24-14.24 26.02-19.99 46.99" class="st0"/><path d="M1160.95 1035.92c4.73-45.99 16.11-72.33 28.74-73.12 16-1 27 17 30 28s13 23 31 27 59 0 68 4 16 13 4 18-76 17-95 14-41-22-46-28m47 110c9 9 24 41 13 62s-13 23-13 29c0 14 10 17 10 28 0 6-15 10-24 2-11.63-10.34-16-62-20-73s-37-36-36-107c.11-8.13.4-15.88.84-23.24" class="st0"/><path d="M1217.94 1051.01c-24.76.93-46.74 4.54-57.24 2.79-12-2-27.85-18 27.08-22m113.36 13.65c-.47 5.44-2.15 9.69-5.45 11.34-8.47 4.23-23.9-.49-42.44-3.64m36.44-48.35c3.26 2.93 5.39 7.99 7.7 14.99m-119.76 138.11c-16.94 19.9-25.94 43.9-29.94 64.9s-18 30-36 34c-18.24 4.05-23.66-17.27-5-21 30-6 13-47 60-101m65-232 3-9 4 6m54 22 7-4-3 9" class="st0"/><ellipse cx="1232.19" cy="943.3" class="st0" rx="17.5" ry="14.5" transform="rotate(-70.846 1232.162 943.297)"/><path d="m1233.2 938.88-2.3 6.62" class="st0"/><ellipse cx="1279.19" cy="958.3" class="st0" rx="17.5" ry="14.5" transform="rotate(-70.846 1279.161 958.297)"/><path d="m1280.2 953.88-2.3 6.62m-24.21-12.7 1 3 3-1m-3 1-8 23m81.76 56.36c-1.75-2.36-9.75-.36-9.75-.36m1.77-7.13c-.78-.87-5.78 1.13-5.78 1.13m-154 22c-3 0-6 3-7 4m5-9c-3 0-8 2-8 2m74 210c3 2 2 7 2 7m5-9c2 1 4 6 3 8m30-14c1 1 2 6 0 8m8-8c1 1 2 5 1 8" class="st0"/><ellipse cx="1185" cy="1307" class="st0" rx="69.5" ry="12" transform="rotate(-7.348 1184.571 1306.592)"/><path d="M1254.05 1299.11c1.28 9.92 1.62 12.57 2.05 15.87.85 6.57-29.33 15.88-67.4 20.79s-69.62 3.56-70.46-3.02c-.42-3.29-1.02-7.93-2.17-16.86" class="st0"/><path d="M1142.74 1320.17c11.61-3.17 26.52-6.1 42.9-8.21 16.36-2.11 34.47-3.09 46.5-2.97m-43.93 26.84 1.28 9.92m.12.99c6.43-4.86 14.62-3.9 15.64 4.03s-8.86 17.28-12.83 17.79c-4.09.53-16.03-7.01-16.92-13.95s7.52-12.06 14.11-7.87m-65.92 456.66c4.36-5.77 10.36-6.9 12.59-5.43s5.73 5.27 2.69 12.47c.76 3.69 8.65 12.26 4.29 18.03s-14.38 4.44-20.44-4.05c-6.88.17-14.55-2.43-16.08-9.82s10.11-11.94 16.95-11.2m8.52-28.95c-5.92-.7-9.74 14.25-3.46 17.26s13.52-16.07 3.46-17.26m11.86 23.38c3.51 3.81 18.13-6.1 12.41-12.31-4.82-5.24-17.31 6.99-12.41 12.31m-28.78-1.65c-2.98 1.81-12.42-9.67-7.19-14.49 5.24-4.82 12.82 11.06 7.19 14.49m30.95 15.47c.76 3.69 15.39 4.3 13.42-3.57-1.48-5.95-14.91-3.65-13.42 3.57m-1274.8 382.76c-13 0-22.63-13.92 15-39 12-8 36.47-1.12 41 17 4 16-3 22-12 22z" class="st0"/><path d="M-83.56 2156.41c2-5 10-10 16-7s4.58 14.75-7.21 17.37m-39.86-10.66c-2.94-6.71-8.94-10.71-14.94-7.71s-2.21 11.49 5.39 14.74" class="st0"/><path d="M-111.69 2154.33c13.12-8.92 40.12-27.92 63.12-18.92s21 35 17 44-23 14-52 15" class="st0"/><path d="M-29.08 2170.08c5.52 5.33 8.52-.67 20.52 4.33s13 19 23 22" class="st0"/><circle cx="-91.56" cy="2174.41" r="1" class="st0"/><circle cx="-124.56" cy="2171.41" r="1" class="st0"/><path d="M-58.98 1628.52c5.86-4.28 32.86 14.7 44.73 37.96s15.89 41.62 15.89 41.62c11.89 4.73 21.67 16.79 19.04 21.34-2.62 4.54-18.61-11.29-18.61-11.29 3.49 6.3 7.62 23.63 3.05 24.04-8.83.78-11.79-21.25-13.18-25.62-45.81-15.76-62.73-72.23-50.92-88.05" class="st0"/><path d="M-53.76 1675.03c4.62 4.24 29.52-7.74 30.08-21.84m-34.25-25.14 10.04 14.9" class="st0"/><circle cx="-54.8" cy="1650.9" r=".9" class="st0"/><path d="M-42.23 1680.98c2.88 1.49 7.61-1.13 7.43-5.15m7.09-3.94c2.88 1.49 7.61-1.13 7.43-5.15m-9.71 17.74c2.88 1.49 7.61-1.13 7.43-5.15m-7.7 17.65c2.88 1.49 7.61-1.13 7.43-5.15m4.28-3.41c2.88 1.49 7.61-1.13 7.43-5.15m-6.47 18c2.88 1.49 7.61-1.13 7.43-5.15m-190.4-1408.71c-2-11-12-35-23-43-6-14-10-29-14-30s-13 19-14 21c-7-2-36-1-41 1-6-8-13-19-16-20s-13 25-14 33c-10 11-20 43-22 50s-25 46-3 97c2 20 13 32 42 30s40.59-6.95 40-14c-1-12-26-15-49-13" class="st0"/><path d="M-223.56 394.41c-23 1-41 4-42 18s27 12 42 11 42.29-7.14 44-14c4-1 33.82 3.08 69-12 7-3 85 11 87-5s-64-34-70-51-13-116-130-97M-353 381.07c-13.57 2.34-43.02 23.21 6.71 22.78" class="st0"/><path d="M-99.4 318.36c20.83 4.05 80.83-2.95 99.83-6.95s34.04-3.84 37 8c3 12-34.64 34.43-118.32 34.22m-175.67-78.22c0 11 39 8 39-1 0-10-39-11-39 1m-69 1c0 11 39 8 39-1 0-10-39-11-39 1m96.5-8.75.5 12.75m-67.83-11.79v13.41m52.83-44.62 5-8 3 10m-67 0-4-8-3 11m45.52 164.48c1.48 1.52 11.48.52 11.48.52m-11 8c5 2 10 0 10 0m-25-7c3 1 10 0 10 0m-9 7c2 1 10 2 12 0m232-28c1 1 7 3 9 3m-12 5c2 1 5 1 10 1M-373.62 394c2.05.41 9.05-1.59 9.05-1.59m-5.99 7c1 0 9-1 9-1m150 85c10-4 32-5 36 2 3.33 5.82-1 19-26 21s-42-8-39-25 28-33 63-32m1 123c-10 8-19 34-11 45 9.3 12.79 45-1 43-12s-20-9-28-6" class="st0"/><path d="M-160.77 597.09c8.21-2.68 14.21-10.68 14.21-13.68" class="st0"/><path d="M-160.56 559.41c1 13 19 31 37 39 0 0-20 7-18 24s20 21 28 20m9-13c7 4 39 11 56 1" class="st0"/><path d="M-70.56 636.41c1 5-10 12-25 18s-33 19-44 18-8-16 20-30" class="st0"/><path d="M-135.56 662.41c-4 2-4 7 0 9m-51-185c2 1 9 1 10-1m-11 11c2 1 8.77 1 10.39 0m18.61 108c2 1 8.39-1.9 10.7-4.45m-6.7 11.45c2 0 7.34-1 9.67-3m-95.67-130c-9 4-23 21-25 25-5 4-25 24-22 30s20 1 20 1c1 6 12 33 22 40-9 3-15 9-13 12 1.24 1.86 16 5 37 0 10 0 32.01-3.2 38.5-6.1" class="st0"/><path d="M-234.56 533.41c9-2-5-31-14-27s2.12 29.64 14 27m12-4c2-5 9 6 2 8 7-3 12 8 6 7m-26-25 4-2m-35 3-5 6 7-1m28 54-5 3h9m25-8c9-2-5-31-14-27s2.12 29.64 14 27m-6-14 4-2m23.92-108.71c48.08-17.29 88.08-22.29 138.08 3.71s61 85 62 110-1 64-27 104-39.42 65.95-41 81c-2 19-30 19-30-2s5-45 40-90" class="st0"/><path d="M-24.56 513.41c-19-10-53-5-56 20s28 57 35 65c0 10-11 65 6 67s24-46 22-65" class="st0"/><path d="M-41.56 650.41c-4 2-4 10-4 10m13-9c1 1 3 7 2 9m-44.53 607.06c4.3 12.9 12.69 29.71.81 34.99s-41.73-31.04-32.27-54.26c9.46-23.23 39.53-18.41 49.85-7.16 7.18 7.84 15.74 31.64 21.2 51.52 11.37 15.74 29.85 36.32 31.11 90.3 1.26 53.99-2.77 96.09 6.09 132.89 6.25 10.86 12.51 21.72.67 28.99-11.83 7.28-33.29-12.23-53.03-86.79-4.65 15.11-29.43 67.7-45.5 65.08s1.23-33.04 1.23-33.04" class="st0"/><path d="M-89.09 1482.86c-5.84 7.14-24.46 23.57-40.73 11.95-16.27-11.63-6.04-44.87 3.53-63.1-5.46-19.88-6.86-36.85-7.23-52.85m3.79-9.09c-1.84 7.04-11.69 16.36-17.6 17.41-12.95 2.3-21.34-14.51-40.24-10.07-5.92 1.39-36.62 16.86-43.83 8.02-7.21-8.83 17.44-24.41 31.27-31.74s31.76-10.74 33.71-12.79 1.63-16.04 8.53-20.2" class="st0"/><path d="M-84.42 1231.75c-12.71-8.77-40.07-24.14-77.6-3.26-37.52 20.88-47.22 98.99-.48 97.97" class="st0"/><path d="M-176.34 1257.82c.12 5 11.95-2.28 8.74-11.21 6.11 4.86 20.83-7.49 12.81-8.3m21.55-19.75c3.77-9.84 11.68-14.03 12.68-14.05s7.16 6.84 10.32 13.76m-81.6 53.96c-.12 1.96-14.91 11.3-16.82 15.35s15.23 9.65 15.23 9.65m114.81-9.67c.12 5 7.04 10.46 9.62 9.59m-16.55-6.43c.05 2 1.91 8.48 4.12 11.17m-140.18 74.02c-2.98 1.07-6.94 8.72-3.8 11.87m136.93 121.07c-2.93 3.07-4.01 10.93-2.82 13.49m-6.23-15.28c-2.95 2.07-4.95 6.53-5.35 8.84m94.91 14.08c3.07 2.93 2.82 11.19-.38 14.64m10.33-16.87c2.02.95 5.18 7.88 4.32 13.9m-125.69-42.75c-20.94 17.16-55.37 41.97-94.25 47.87-20.16 3.06-22.37-15.48-2.53-22.95 19.83-7.46 59.3-23.05 77.83-47.16m100.63-641.01c4.51-8.79 12.32-11.72 15.67-10.27s8.96 5.75 6.55 16.16c1.89 4.79 14.52 14.47 10.01 23.27s-18.31 9.36-28.46-.65c-9.21 1.85-20.16.14-23.95-9.45s10.8-18.45 20.18-19.06m4.67-40.97c-8.14.44-9.77 21.47-.61 24.04 9.18 2.57 14.43-24.8.61-24.04m21.45 28.69c5.61 4.3 22.97-12.47 13.82-19.48-7.72-5.91-21.66 13.47-13.82 19.48m-39.12 4.54c-3.58 3.14-18.99-10.1-13.07-17.82 5.91-7.72 19.85 11.88 13.07 17.82m45.3 13.56c1.89 4.79 21.73 2.17 17.23-7.95-3.4-7.67-20.94-1.42-17.23 7.95M-20.54 242.9s5.49 13.07 10.54 12.29c5.06-.78 4.51-14.93 4.51-14.93s13.08-1.51 13.04-5.13-8.33-8.84-11.25-10.11c0 0 3.66-12.44 0-15.15s-12.67 8.89-12.67 8.89-13.22-5.88-15.77-3.14c-2.56 2.74 4.62 13.93 4.62 13.93S-37.99 239.8-36 243.51c1.98 3.72 10.71 1.23 15.46-.61" class="st0"/></svg>