<svg xmlns="http://www.w3.org/2000/svg" xml:space="preserve" id="Layer_1" x="0" y="0" viewBox="0 0 1125 2436"><style>.st0,.st1{stroke:#000;stroke-linecap:round;stroke-linejoin:round;stroke-miterlimit:10}.st0{fill:none;stroke-width:3.1181}.st1{stroke-width:2.5512}.st1,.st3{fill:none}</style><g id="Layer_2"><path d="M360.8 36.3s0-30.6-26.7-31.7-46.9 20.7-38.2 54.6c8.7 33.8 39.8 72 43.1 99.3s-2.7 27.8-6.5 27.8-10.9-44.2-60.6-38.2-84.6 28.4-114.6 66-30.6 58.9-25.1 60.6c5.5 1.6 25.6-37.1 25.6-37.1s-5.5 12 0 12.6c5.5.5 13.6-13.6 13.6-13.6s-11.5 40.4-1.6 41.5 14.7-30.6 26.7-47.5c0 0-5.5 17.5 2.7 16.9 8.2-.5 19.6-18 19.6-18s-10.4 15.3-1.6 14.7c8.7-.5 19.6-14.7 19.6-14.7s-5.5 14.2.5 14.7 14.2-12.6 14.2-12.6-1.6 9.8 3.3 9.8 16.9-13.1 16.9-13.1" class="st0"/><path d="M281.1 209.8s-14.2 15.8-7.6 21.8c6.5 6 18.6-15.3 18.6-15.3s-6 11.5 1.1 13.6c7.1 2.2 11.5-11.5 11.5-11.5" class="st0"/><path d="M348.2 54.8s-11.5-2.2-19.6-7.1c-8.2-4.9-10.9-13.6-14.7-10.9s2.7 26.7 24 66.6 37.7 81.3 3.8 115.7-105.3 51.3-142.4 28.4" class="st0"/><path d="m270.7 256.8-2.2 63.3s-4.9 5.5-4.4 12.6 6 9.8 6 9.8 3.8 102.6 5.5 115.1-.5 19.6 12 21.8c12.6 2.2 46.9 4.4 46.9 4.4s-8.7-1.6-6-7.1 15.8-3.8 15.8-3.8-14-4.5-9.3-7.6c3.3-2.2 7.1-1.1 7.1-1.1s-20.2-4.4-37.7-2.2-22.9 7.1-24.6-38.7c-1.6-45.8-1.6-81.1-1.6-81.1s5.2-3.3 4.9-11.6c-.2-5.8-6-10.6-6-10.6s2.2-48.4 7.1-66.9" class="st0"/><path d="M219.4 256.8s-21.3 28.9-29.5 34.9c0 0-14.7 2.2-13.6 10.4s12 7.1 12 7.1l82.4 62.4" class="st0"/><path d="M237.6 258s-39.5 37.8-37.8 43.3c1.6 5.5 37.1 37.8 69.9 56.9m8.7 4.6s11.3 1.8 13.1 15.1c.8 6.2-11.6 19.1-11.6 19.1m-8.6-18s-19.5 8.9-18 19.8l12-2.2s-6.9 10.4-5.8 14.2 12.7-6.9 12.7-6.9" class="st0"/><circle cx="342.8" cy="30.3" r="10.9" class="st0"/><circle cx="342.6" cy="30.8" r="3.1"/><path d="M349 45.8s3.8-7.9 12.3-7.9 19.9 19.4 22.9 31.7-4.6 25.9-18.3 38.2c0 0 3.5-15.8-1.4-27.3C359.7 69 345.2 60 349 45.8" class="st0"/><path d="M351 46.6s12.6 14.2 18.3 26.5 1.9 26.2-1.1 30.6" class="st0"/><path d="M485.8 71.7c4-3.3-16-18.8-18.8-12.6s13.2 17.3 18.8 12.6m46.4 76.8c-4.4-5.3 10.8-21.5 18.5-16.8 7.6 4.7-13.2 23.2-18.5 16.8" class="st1"/><path d="M476.8 22.9s13.9 37 25.8 76.1c10.2 33.5 13.7 51.4 13.7 51.4" class="st0"/><path d="M530.7 117c8.8-9.9 29.2-20.7 28.9-30.6s-10-22.5-18.7-27.4c0 0 .4 20.8-7.8 31.1-8.2 10.2-19.9 12.5-18 3.3s24.2-22.9 21.2-36.8S517 38 511 39.9c0 0 4.1 14.4.2 24.7s-11.6 11.3-11.7 2.3 8.8-20.4 5.3-26.9-23.3-8.8-28.6-19.5c0 0-1 11.8-9.1 21s-18.5 16.8-13.3 25.7 28 11.6 33.4 18 1.9 8.9-4.7 9.1-27.7-3.1-39-22.4c0 0-7 19.9 6.4 33.7 13.5 13.8 46 5.4 45.8 15-.3 9.6-36.6 7.8-51.1-9.5 0 0-3.8 15 7.5 20.5s41.2 3.6 40.2 12.5-41.6-6.3-41.6-6.3 4.3 21 21.5 33.2c15.7 11.1 35.7 3.8 44.5-6.9.7 2.9 3.7 16.2 2.1 27.3-1.9 12.5-11.1 20.2-10.3 23.4s7.4 5.5 10.7 1.4c3.3-4 14.2-21.6 3.4-53.2 4.6 2.1 13.2 4.3 25.4-.5 18.6-7.4 25.2-37.6 13.4-62.9 0 0-6.8 14.6-17.6 22.7-10.7 8.3-21.8 4.7-13.1-5.3" class="st0"/><path d="M484.2 161.8c-2.6-4.8 16.7-10.5 20-5.4 3.3 5.2-15.9 13.2-20 5.4" class="st1"/><path d="M395 226.1s6.2 49 39 85.3" class="st0"/><path d="M401.2 251.8s4.1-8.2 16.1-6.5 20.5 11 18.5 32.2c-2.1 21.2-3.8 30.5.3 37 0 0-14.1-6.8-28.1-7.9-17.5-1.4-33.9-12-30.5-36.3 2.9-20.4 23.7-18.5 23.7-18.5" class="st0"/><path d="M402.9 258.6s-15.4 14.4-11.3 43.1m15.4-33.1s-7.2 14-2.4 37.3m1.4-42.8s19.2-1.7 29.4 10.6m-22.2 7.5s11.6-1.7 20.5 5.5" class="st1"/><path d="M543.2 1495.1s-24.1 30.9-63.5 41.4" class="st0"/><path d="M528.3 1510s.1-7.5-9.6-11.5c-9.8-4.1-20-1.5-26.8 14s-9.2 22.6-15 25.3c0 0 13.4 1.5 24.5 6.9 13.8 6.7 30.5 6.7 37.6-11.5 5.9-15.4-10.7-23.2-10.7-23.2" class="st0"/><path d="M524.3 1514s6 16.7-8.6 34.6m1.6-29.6s-.1 12.8-13 26.7m15.9-30s-13.9-9.6-26.6-5.7m13.9 15s-8.2-6.3-17.8-5.3" class="st1"/><path d="M167 383.2s-4.9 5.5-16.5 4.9-24.1-1.8-24.7 5.2 5.2 22.3-2.4 23.5-4.6-23.5-4.6-23.5-15.9.3-20.4 8.2c-4.6 7.9 11.6 26.5 3.7 32.9S86.7 417.1 88.3 407c0 0-22.9 12.2-27.1 37.8s4.3 42.7 31.4 40.9c0 0-11.6 15.6-18 27.8s-2.4 20.7-2.4 20.7 6.4 2.7 11.6-1.5c0 0-4.9-4-1.8-15.6s16.2-27.8 16.2-27.8-4 19.8 20.1 26.2 51.2-8.5 61.6-36.9c0 0-6.4 3.4-25.6 0s-24.4-6.7-21-11.6 28.4 6.7 44.2 3.1 17.4-25 13.1-31.7c0 0-4.3 10.1-15.9 11.9s-28.7.9-28.4-5.2 33.9-5.8 36.6-18.6-8.5-18.9-12.5-28.1c-4.1-9.1-3.4-15.2-3.4-15.2" class="st0"/><path d="M165.1 386.6S147 407.9 128.8 434c-10.4 14.9-24.1 33.9-36.3 52" class="st0"/><path d="M164.5 426.9s-17.7 6.1-34.2 5.8m-17.6-6.8s.3 13.1 7.3 19.2m-45.2 1.6s.6 22 23.2 29.3m7.9-3.1s10.1 15.9 45.1 18M491.4 453c-5 9.4-10 18.2-14.8 26.5-51.6 88.6-90.2 117.3-90.2 117.3M502.1 418s-12.7 13.7-9.9 33c0 .1 11.8-6.8 9.9-33" class="st0"/><path d="M473.9 425.1s-3.5 21.1 11.3 37.7c0 0 7-13.9-11.3-37.7m47.4 20.4s-21.4.4-35.1 18c0-.1 14.9 4.3 35.1-18m-43.5 36s15.2-14.3 46.6-1.6c0-.1-26.4 11.8-46.6 1.6m-15.2 20.2s27.6-14.7 60.6 2.5c0-.1-33.9 8.9-60.6-2.5m-11.4 18.1s15.9-4.9 42.5 4.1 33.9 7.8 33.9 7.8-22.5 8.2-42.9 4.5c-20.4-3.8-20.8-12-33.5-16.4m4.9-81.1s17.8 7.7 20.5 40.8c0 0-19.3-10.5-20.5-40.8m6.5 63s1.4-29.6-22.8-51.1c.1 0-2.5 28.9 22.8 51.1m-11.4 16.9s1.8-15.9-14.4-36.8C420.5 461 421.2 457 421.2 457s-3.4 11.6 5.8 33.1 24.2 28.5 24.2 28.5m-14.1 21.8s-3.7-27.6-29.1-52.1c0 0 1.8 30.6 29.1 52.1m-12.3 14.4s-7-27.9-33.4-41.1c0 0 3.7 22.7 33.4 41.1m-7.6 8.6s-8.9-16.9-31.3-12c0 0 11.7 14.4 31.3 12m20.1-23.2s27.6-3.2 57.6 15.5c0 0-30.2 5.7-57.6-15.5m-12.2 16.6s28.1-6.2 51.7 11.4c0-.1-21.9 6.9-51.7-11.4m-6.6 8.8s19 .4 24.7 22.5c0 .1-18.1-3.8-24.7-22.5m560.8-316.1c2.4-.4 3.1 11.8-1 12.2-4.2.3-22.2-3.1-28.5-24.3 0 0 3.8 28.5-4.5 35.1s-23.3 2.8-19.8-.7 17.7-12.8 9-19.8c-8.7-6.9-15.3 20.5-27.4 20.1-12.2-.3-27.1-8.3-30.9-19.8 0 0 14.9.7 29.2-6.3 14.2-6.9 11.1-12.8-2.4-8.3s-30.6 12.5-39.9 2.8c0 0-13.9-18.8-12.2-40.6 0 0 13.2 9 22.9 9s9.7-7.6 1-10.1c-8.7-2.4-23.6-1-24.3-8-.7-6.9-.7-26 7.3-38.2 0 0 11.8 18.8 23.6 15.6 11.8-3.1-11.8-10.1-17.7-22.6 0 0 5.2-6.9 15.3-12.2 5.6-2.9 6.8-6.3 6.8-8.7 0-1.9-.9-3.1-.9-3.1s2.8 5.2 14.6 3.1 25-2.8 39.6 4.9c0 0-9.4 18.1 0 21.2s10.1-13.5 8.3-20.5c0 0 10.8 1.7 16 14.9s-17.7 25-8.3 33.7 16.7-27.1 16.7-27.1 10.4 5.9 13.9 19.8-14.6 17-15.6 25 13.9 1 18.4-6.9c0 0 10.1 21.9-1.4 35.4s-31.9 9-31.9 9 5 18.5 24.1 15.4" class="st0"/><path d="M946.6 228.3s-20.1-13.2-31.9-44.8-19.1-48.6-28.8-60.1m0 99.4c-1.3-7 28.1-13.9 31.6-4.2 3.4 9.7-29.9 13.2-31.6 4.2m40.2-41c6.6 3.9 13.9-15.6 8-20.8s-13.9 17.3-8 20.8m20.7 32.2c3.1 2.6 17.4-12 10.7-17.8-4.2-3.7-19.2 10.7-10.7 17.8M614 557.6s-13.2.2-23.9-3.4c-7.3-2.4-14.8-4.5-19.3-.1-2.1 2.1-3.6 5.5-4 11.1-1.5 17.3 10.5 37.7 26.9 46.8 0 0 14.7 1.7 24.4-3.4 0 0-4.8 11.1-15.2 13.7 0 0 12.7 6.6 20.6 17.3 8 10.7 17.3 16.1 17.3 16.1s17.1 1.9 30.6-4.6c0 0-5.6 12.7-18 14.2 0 0 9.4 1.4 18.4 9.1s13.1 16.4 27.1 14.7 28-2.5 28-2.5 27.2 17.3 29.2 30.9c0 0 5.2-.3 9.9-9.4 0 0-6.2-12.3-34.3-26 0 0 10.3-26.4-6-45.4-16.2-19-21.8-39.1-44.6-49.5 0 0-1.7 16.7-12.8 24.5 0 0 8.6-23.2 2.8-33.3 0 0-30.8-18.1-48-19 0 0-1.8 14.1-9.5 20.2 0-.1 2.8-15.2.4-22" class="st0"/><path d="M572.3 555.5s2.2 8.2 26.3 22.8 90.7 71.2 109.8 86.6c12.4 10 16.3 15.1 16.3 15.1m-24.1-77.1s.1 19.2-10.6 33.7m17.4-23.6s1 20.2-15.6 36.6" class="st0"/><path d="M655.1 621.4s-8.1 15.4-34 14m42.1-6.3s-4.4 11.3-18.4 13m1.1-28.1s-6 10.5-17.9 10.3m10.6-60.9s4.2 21.8-5.3 39m-23-15.5s-12.5 9.6-36.8 4.9m130.2 69.6s-8.3 15.8-30.4 13.8m-22.2-105.8s4.3 14.8-3.9 28.7M126 677.9c-59.2 0-36.8-51.2-36.8-51.2-12.3-33.6 19.7-45.9 19.7-45.9l.5 9.1c13.9-15.5 21.9-7.5 21.9-7.5-12.8-.5-14.4 10.7-16.5 25.6s-16 12.3-20.8 20.8c0 0-10.6 36.8 18.7 36.8 15.5 0 25.1-6.4 25.1-6.4s17.1-33.1 45.4-42.2 90.2-9.1 104.6-4.8 46.4 3.2 65.1 2.7 48.6 7.5 63.5 27.8 27.8 21.3 27.8 21.3 13.3-8 19.7-26.7 25.1-26.2 29.9-23.5 2.1 26.7-11.7 38.4c-13.9 11.7-22.4 19.7-21.3 25.1s47.5 28.8 52.3 29.4c4.8.5 16.5-18.7 18.7-35.2 2.1-16.5-6.4-24.6-6.4-24.6s29.9 17.1 24.6 47-17.6 26.2-10.7 41.1 10.7 39.5-2.7 48.6c-13.3 9.1-27.8.5-30.4 4.8-2.7 4.3 10.5 0 10.5 0" class="st0"/><path d="M413.1 675.8s-19.2-40.6-56-33.6c0 0-4.3 31.5 44.3 47.5m-19.2 61.9s11.5-.5 52.3 30.4c21.1 16 43.8 15.5 60.3 12.8 0 0 2.7 6.4 15.5 5.3s16.5-11.2 16.5-11.2M130.3 671.8s-14.9 32.8-6.9 60.6 17.1 40.6 16 45.9 6.4-4.3 25.1 0c17.3 4 25.5 15.8 31.3 17.8.4.2.9.3 1.3.3 5.9.5 28.3-23.8 5.9-63.8" class="st0"/><path d="M194.3 798S182 814.5 181 829c-1.1 14.4 7.5 35.8 2.7 42.2s-50.7 12.8-60.3-8 .3-63 20-83.8m66.9 2s20.3 1.1 41.6 6.9c21.3 5.9 51 1.3 51 1.3" class="st0"/><path d="M295.5 724.6s-8.5 18.4-2.7 40.3 11.5 28.3 19.5 30.4 20.3-9.6 36.3-9.1 22.9 4.8 25.6-.5-12.8-17.6-10.7-38.4" class="st0"/><path d="M403.8 760.9s-2.9 16.8-29.1 21.6m-62.4 12.8s12.8 17.6 11.2 31-2.1 41.1 16 47.5 43.8 1.1 46.4-7.5c2.7-8.5-7.5-26.7-6.9-43.2.5-16.5-3.2-22.4-8.5-34.2" class="st0"/><path d="M402.8 788.9s3.9 13.3-.9 24.6c-4.8 11.2-20.3 25.1-20.3 25.1m-59.7-21.9s-20.3 10.7-19.2 23.5 19.2 27.8 24.6 25.1m-94.5-81.2s6.4 51.2 19.2 67.8c12.8 16.5-3.2 18.7-17.1 19.2s-33.6.5-41.6-15.5-9.3-39-9.3-39m171 59.8s-3.2-11.5 3.7-13.6 10.4 12 10.4 12m8.6-2.9s-5.3-12 1.3-15.7c6.7-3.7 7.2 3.2 7.2 3.2" class="st0"/><path d="M317.6 860.2c-.8-.5 3.3-5.2 6.8-5.4m-102.1 15.8s-4.5-11.2 2.9-13.3c7.5-2.1 12.3 13.6 12.3 13.6m9.9-1.9s-7.7-12 2.4-17.9m-115.1 22.1s1.1-12.1 7.8-11.4c6.8.7 6.8 14.6 6.8 14.6m9.3.8s-2.8-13.5 4.3-14.9 10 12.5 10 12.5m5.6-1.9s-1.8-11 5.3-13.9m-74.3-269.2s2.5 16.2-11 22.9" class="st0"/><path d="M514.7 744.4c2.8-2.6-8.9-12.1-14.2-7.5-5.3 4.7 9.6 11.8 14.2 7.5"/><path d="M482 691.8s6.9-6.9 17.1-1.1c5 2.8 6.8 7.8 6 12.8m-56.2-33.8s8.2 8.2 16 11.7" class="st0"/><path d="M477.4 642s-.4 7.1-11 14.2c-10.7 7.1-11.4 18.5-11.4 18.5m-50.2 6.1s-10.7-22.4-31.3-24.6" class="st0"/><circle cx="439.7" cy="725" r="16.3" class="st0"/><circle cx="446.2" cy="727.9" r="4.6"/><path d="M509.6 731.8s-7.3-5.3-14.2-2.7c-6.9 2.7-8.2 14.8 1.2 17.8m16.7-40.4c-2.7.7-5 10.3 4.1 17.1s19 8.2 19.6 3.4m-162.6 59.8s10.3 8.3 28.8 2.1c3.2-1.1 3.4-2.7 2.1-10.3-1.2-7.6-3.9-11.7-3.9-11.7" class="st0"/><path d="M141.8 707.5c-4.7-1-4 12.5.5 12.5s4.5-11.4-.5-12.5m12.5-13.6c-4.2-2.3-7.7 5.3-3.2 6.9s6.7-5 3.2-6.9m4.5 15.8c-3.6-.2-4 8.3 1.1 8.5s4.5-8.3-1.1-8.5m164.1 49.2c3.6 3.2 9.8-8.8 5.9-11.1s-9.8 7.6-5.9 11.1m-17.8 5.3c2.5 4.1 9.4-.7 6.3-4.4s-8.3 1-6.3 4.4m4.1-15.9c3 2 7.6-5.1 3.4-7.9s-8.1 4.9-3.4 7.9m14.8 67.5s3.6-2.8 10-1.4m-10.5 7.1s4.4-1.4 9.8 1.4m-115.8-9.8s13.1 6.9 19.5-1.8m-16.8-5.6s2.7-3.7 10.1-1.9m157.8 9.7s2.8 5.7 9.6 6.4m-240.9-.4s7.1 8.9 19.6 3.9m-14.3-10.6s7.1-3.2 13.2 1.8m38.2-81.7s5.9 9.1-.5 24.6m69.4-26.8s-2.1 12.8 8.5 25.6M108 582.6s-9.6 9.3-11.7 22.4" class="st1"/><path d="M723.6 210.1s-3.1-14.4-13.4-15.4l5.1 14.9s-11.8-14.4-21.1-11.3c0 0 8.7 7.2 12.3 14.4 0 0-17.5-4.6-34.9-1.5-17.5 3.1-32.9 8.7-40.6 2.6 0 0 2.6 9.2 12.8 9.2 0 0-6.2 8.7-19.5 13.9-13.4 5.1-18.5 13.9-19 20.5 0 0 5.6-4.6 10.3-4.6 0 0-27.2 21.6-23.6 69.8 0 0 2.6-6.2 9.8-11.8 0 0-10.8 25.2 7.2 41.6 0 0-.5-5.6 1.5-9.8 0 0-.5 26.7 15.4 35.9 0 0-1.5-5.1.5-9.2 0 0 5.1 38 53.9 50.8 0 0-1-7.2 0-10.8 0 0 6.2 12.3 18 13.9 0 0-1.5-4.6 1-7.7 0 0 4.1 8.7 10.8 10.8l8.2-5.6 1.5 5.1s19-2.6 26.2-15.4c0 0 1 4.6-1.5 9.2 0 0 22.6-5.6 37.5-25.2 14.9-19.5 14.9-31.8 14.9-31.8s3.1 4.1 3.1 8.2c0 0 12.8-12.8 14.4-29.3 0 0 2.1 3.6 2.1 6.7 0 0 18-17.5 2.6-50.8 0 0 7.2 2.1 8.2 6.7 0 0-5.6-38-29.3-53.4 0 0 8.7 1.5 14.4-4.6 0 0-12.3 1.5-22.1-7.7s-27.7-29.3-51.4-25.7c0 0 7.7-4.1 8.7-9.8.1 0-12.7-2.6-24 7.2" class="st0"/><path d="M657.1 264.1s-.6-16.4-16.4-15.8-20.9 15.8-14.7 27.2c6.2 11.3 17.5 5.1 17.5 5.1m32.7 103.2c-33.9-5.8-37.2-37.2-37.2-37.2l-4.9 4.6s-6.5-38.3 13.2-64c23.4-30.5 52.3-27.1 52.3-27.1-3.7-2.5-14.2-3.7-14.2-3.7s1.8-4.3 12.9-3.7c14.7.8 22.2 9.2 22.2 9.2s8.6-7.4 23.4-6.2l-7.4 7.4s40.4 1.5 50.5 46.2c7.4 32.6-3.1 44.9-3.1 44.9l-4.9-8s.6 17.2-4.9 22.2l-4.9-8s1.8 18.5-32 24.6" class="st0"/><path d="M707 333.3c-23.4-.7-33.9 14.8-33.2 35.7.6 20.9 12.9 27.7 35.7 27.1s33.9-12.9 32-33.9-13.6-28.2-34.5-28.9" class="st0"/><circle cx="745.8" cy="316.7" r="14.8" class="st0"/><circle cx="751.3" cy="315.8" r="4.2"/><circle cx="667" cy="316.7" r="14.8" class="st0"/><circle cx="672.5" cy="316.1" r="4.2"/><path d="M652.4 315.3s12.9-8 29.1-1.4m49.8 1s14.5-6.5 28.8-1.4m5.7-47.8s2.3-17.2 21.1-12.7 13.5 33.8-5.9 30.1m-123.9 10.8s4-12.6 16.9-8.3m64.7-.6s12.9-5.5 17.9 6.2" class="st0"/><path d="M775.9 269.1s5.1-10.1 12.7-4.5c4.3 3.2.6 7.3.6 7.3M647 267.3s-2-8.2-9.3-6.8c-7.4 1.4-4.5 8.8-2.5 9.6m52.6 84.4c0-8.7 35.1-9.7 36.9-2 1.7 7.7-11 5.8-12.4 9-1.4 3.1-1.4 7.3-5.6 7.3s-3.5-5.6-7-8-11.9 2.1-11.9-6.3" class="st0"/><path d="M686.1 366.9s-1.2 16.3 22.2 14.8C731.9 380.1 727 365 727 365m-19.7 4.7.3 9.8m-65.2 19.7s-1.7 7.5-8.2 13.7-25 34.9-.7 53.4m87.4-7.2s17.8 3.4 18.1 13.4c.3 9.9-7.9 14.7-15.1 12s-23.6-27.7-39-30.5c0 0 13.7-9.2 30.5-12.7s40.4.6 47.6 11c6.2 8.9 2.1 20.2-7.9 20.2" class="st0"/><path d="M738.3 451.9c1 0 12.7 2.4 15.1 11s-1 17.5-14.4 15.4M684.9 454s-16.4-7.2-30.1-3.8-21.8 14.5-18.5 26.4c1.7 6.2 11 5.5 11 5.5" class="st0"/><path d="M658.2 460.2s-13 2.7-13.4 11.6c-.3 8.9 4.5 15.1 16.1 13" class="st0"/><path d="M671.9 464.3s-9.6 1.7-11.3 10.6 1.7 16.1 21.6 13.7 19.9-9.2 32.9-10.3m87.6-60.9s17.8 21.9 7.2 40.4-47.9 13.4-47.9 13.4m-102.1-37.4s2.4 11.6 12.3 16.1m84.3-21.6s3.1 9.6-10.3 13.4m63.3 17.8 16.5.3m52.7-59.2s-3.8 22.9 16.8 39.4c20.5 16.4 38.3 12 38.3 12" class="st0"/><path d="M870.5 455.4s-9.9-1.4-12 8.9 6.5 10.3 27.7 9.2c25-1.2 76.7-2.4 101.3-3.8s64.4-19.9 60.6-57.5c-3.8-37.7-27.4-39-43.8-50.7s-17.8-32.9.7-39.7 31.5 15.4 31.5 15.4" class="st0"/><path d="M908.5 448.9s-13 1-30.8-3.8-46.2-5.5-49.6 10.6 10.3 14.4 10.3 14.4" class="st0"/><path d="M848.9 451.6s-8.9 1-10.3 9.6 3.8 15.7 21.9 11.3m-36.6-135.6s18.7 8.4 25.8 31" class="st0"/><path d="M848 362.9s13.5 1.8 34.8-.2" class="st0"/><path d="M882.3 367.9s-.5-20.7 26.5-30.6 63-5.5 76.3 27c13.4 32.5 7.5 81.5 12 84.6s30.1-1 38.7-20.2-2.1-42.1-18.8-50.7c-16.8-8.6-38.7-21.7-30.1-49 6.8-21.9 39.7-21.6 50.3-1.7" class="st0"/><path d="M1055.4 322.5c9 6.7 6 10.6 16 12.3 9.9 1.7 11.7-4.8 11.7-4.8s1.9 7.3-5.2 10.9c0 0 8.1 2.8 14.5-7.2 0 0-8.4 31.6-37.2 22.9-32.4-9.7-15.2-45.5.2-34.1" class="st0"/><path d="M1037.4 334.1s8.5 18.7 29.5 16.9m-28.8-19.7s12.1-3.9 20.8 9M893.6 581.7s29.1-15.7 65.1-13c0 0 3.4-6.8 0-13.7s-3.1-9.6 1.7-8.6 7.2 10.6 7.2 10.6-.7-7.2 3.1-7.2 7.9 14 2.4 22.9c0 0 21.6 11.3 24 36.6s-14 43.5-46.9 51.4-65.4 4.2-78.4-26.7c-9.9-23.6 10.3-44.9 10.3-44.9s-6.5-2.4-6.8-12 7.2-14 7.2-7.2c0 0 0-6.8 5.1-7.2 5-.2-2.9 13.8 6 19" class="st0"/><path d="M988.1 586.8s-5.8-8.2-26.7-4.1-20.5 25-20.5 25-13-17.1-38.7-9.6-30.2 20.5-30.5 35.9m63.8-10.6s.3-4.3 6.1-7.5c4.1-2.3 9.1-2.4 13.3-.4 4 1.9 8.7 4.8 10.1 8.7-.1 0-15.5 5.3-29.5-.8" class="st0"/><path d="M935.5 623.4c0 12.8 15 14 15 14s3.9-.7 1.3-10" class="st0"/><circle cx="907.2" cy="618.9" r="15.7" class="st0"/><circle cx="904" cy="619.8" r="5.3"/><circle cx="967.6" cy="604.7" r="15.7" class="st0"/><circle cx="964.5" cy="605.6" r="5.3"/><path d="M896.7 660.1s.7 13.4-8.9 25.3c-9.6 12-19.9 49 1 74.6 20.9 25.7 72.9 21.9 88-6.2s6.2-56.5 1.4-79.1-2.4-24.7-2.4-24.7m-97.5-4.1s-7.7-8.1-37.8-9.8-49-9.6-58.5-16.1c-9.6-6.5-11.3 22.6 22.3 30.8" class="st0"/><path d="M789.8 645.3s-10.3 2.1-2.4 11.6c8.5 10.3 28.1 17.1 28.1 17.1s-18.8-2.7-18.1 2.7c.9 7.5 24.3 11.3 24.3 11.3s-13 .3-14 5.5c-1 5.1 15.4 9.2 23.6 8.9 0 0-7.5 6.2-3.8 12 3.8 5.8 18.5-1.7 18.5-1.7s-2.1 8.9 2.4 11.6 13.7-6.5 13.7-6.5-.7 7.9 3.4 9.9 11.3-3.8 11.3-3.8m114.7-88.1s5.5-8.6 28.8-10.3 45.5-5.1 54.1-9.2 12.7 5.5 5.5 12-24.7 10.6-24.7 10.6 15.1-1.7 16.1 5.1-18.8 10.6-18.8 10.6 21.2 6.5 18.5 13.4-24.3-1-24.3-1 16.4 10.6 14 15.7-21.6-5.1-21.6-5.1 8.6 12.3 5.1 15.4c-3.4 3.1-18.5-6.5-18.5-6.5s12.3 18.1 8.2 23.3c-4.1 5.1-25.3-6.2-25.3-6.2s4.5 9.9-.7 13.4c-5.1 3.4-21.6-2.7-23.6-10.6m-92.8-28.2s-4.5-15.4-32.5-24c-28.1-8.6-41.1-7.2-41.1-7.2" class="st0"/><path d="M977.8 669s4.5-14.7 25.3-24c20.9-9.2 36.3-8.6 36.3-8.6M913.6 775.7s-8.2 8.6-.8 17.2c3.3 3.9 1.8-7.7 1.8-7.7s2.6 10.8 6.9 9.8c4.4-1-1.3-11.6-1.3-11.6s5.1 8.7 8.2 6.7c3.2-2.1-7.6-17-14.8-14.4m40.1-1.3s8.2 8.6.8 17.2c-3.3 3.9-1.8-7.7-1.8-7.7s-2.6 10.8-6.9 9.8c-4.4-1 1.3-11.6 1.3-11.6s-5.1 8.7-8.2 6.7c-3.2-2.1 7.6-17 14.8-14.4m-54.5-41.1s-.3 6.7 2.1 10.3m14.6-10.5s2.1 5.4.3 11.8m18.2-11.8s1 6.4-.8 11.6m16.5-12.4s1.5 5.9.5 10.8m13.9-10s1.3 5.4.5 8.7m-56.3 9.8s-.8 4.4 1.8 8m14.7-8s1.3 4.1-.3 7.7m17.5-8.2s1.5 4.6-.8 7.7m16.2-8.5s1 3.9-1.3 7.2m-69.3-33.4s-2.3 4.4-.8 8.7m85.8-11s3.3 4.6 2.3 9.2m-146.9-62.6s5.6 1.5 9.8-.3m6.4 9s-6.7 1.3-9.2 5.1m8.9 11.8s5.6.5 9.8-4.4m4.8 6.2s-2.8 3.3-2.3 9m137.4-15.1s1.3 4.9 4.4 6.7m5.9-16.5s6.9 1.3 8.5 5.6m4.3-16.6s2.6 5.9 8.7 5.4m10.7-26.6s4.4 3.3 8.7.3m-16.3 12.7s5.9-.5 7.7 4.4M351.5 970.4s36.6-4.7 59.3-9.1c13.2-2.5 20.3 2.5 18.7 10l-21.9 52 31.9-6.1c5.2 1.5 11.6 28.6 8.1 32l-73.3 12.6c-12.6-4.5 18.2-66.2 18.2-66.2l-32.5 9.3c-2.4.7-10.9-33.8-8.5-34.5m149.6-19.6q14.4 8.85 19.2 25.8c4.8 16.95 2.4 22-2.6 32-5 10.1-12.6 16.6-22.9 19.5-10.3 3-20.3 1.5-29.8-4.4q-14.4-8.85-19.2-25.8c-4.8-16.95-2.4-22 2.6-32.1s12.7-16.6 23-19.5c10.2-2.8 20.2-1.3 29.7 4.5m89.4-20.2c9.3 7.1 15 16.7 17.2 28.8 2.2 12 .1 23-6.1 33-6.2 9.9-14.8 15.9-25.8 17.9s-21.2-.6-30.5-7.7-15-16.7-17.2-28.8-.1-23.1 6.1-33 14.9-15.9 25.9-17.8c10.9-2.1 21.1.4 30.4 7.6" class="st0"/><path d="M563 948.9c-7.6 1.8-11.3 11.6-8.8 22.3s9.1 16.6 16.6 14.8c7.6-1.8 11-11 8.1-23.5s-9.7-15.1-15.9-13.6m-75.2 54.3c6.7-2.5 9.1-12 5.6-21.5s-10.2-14.2-17-11.7c-6.7 2.5-8.9 11.4-4.7 22.5 4.1 11.1 10.5 12.8 16.1 10.7m440.1-214.4c4-.7 8-.9 11.9-.7m14.1 4c9.6 4.5 16.4 12.4 16.7 23.4 1 33.9-38.5 29.8-38.5 12.3s19.5-11.3 15.9-2.6m-5.7 82.8c-56.3-10.2-67.1-65.2-53.3-93.5 4.3-8.9 11.1-15.4 18.8-19.8" class="st0"/><path d="M1088.2 861.6c-4 0-9.3-.5-13.5-2.6-4.7-2.4-5.9-7.9-4.3-11.9 1.3-3.2 4.8-6.2 10.6-4.4 10.4 3.3 14.2 15.9 14.4 16.5.1.4.1.9-.2 1.3-.2.4-.6.6-1.1.7-.2.1-2.6.4-5.9.4m-10.5-16.2c-2.8 0-4 2-4.4 3-1.1 2.7-.3 6.3 2.8 7.9 5 2.5 12.2 2.3 15.6 2.1-1.4-3.4-5-10.4-11.7-12.6-.9-.3-1.7-.4-2.3-.4"/><path d="M1100.5 884.1c-.8 0-1.7-.1-2.6-.3-2.8-.6-4.9-2.1-6.2-4.5-3.7-6.8.6-18.4.7-18.9.3-.7 1.1-1.2 1.8-1 .5.1 11.6 2.9 14.2 10 1.6 4.3 1 8.9-1.5 11.8-1.5 1.9-3.8 2.9-6.4 2.9m-5.6-21.2c-.9 3.1-2.8 10.6-.5 14.9.9 1.6 2.2 2.5 4.1 2.9 2.6.6 4.7 0 6-1.5 1.7-2 2.1-5.5.9-8.7-1.3-3.9-7.2-6.5-10.5-7.6"/><path d="M1048.7 887.4s-6.2-16.4-16.9-15.9c-10.8.5-7.7 10.8-1 13.9 6.6 3.1 17.9 2 17.9 2m-.5.6s-5.3 7.2-4.6 16.9c1 14.9 20.5 5.5 14.9-5.6-4.7-9.3-10.3-11.3-10.3-11.3m-139.4 6.3s4.1-12.3 9.2-18.5 15.4-1.5 9.2 7.7-18.4 10.8-18.4 10.8" class="st0"/><path d="M909 894s-13 .7-20.3 4.1-5.5 14.5 5 10.9c10.6-3.5 15.3-15 15.3-15m-20.8-29.2s5.7-11.2 11.4-16.4c5.8-5.2 15 .7 7.8 8.7s-19.2 7.7-19.2 7.7m-1.3-.2s-11.2-5.8-18.9-6.6-11.7 9.3-1.2 11.6c10.5 2.2 20.1-5 20.1-5m-.1-38.7s7.7-8.3 14-11.3c6.2-3 12.4 4.8 4.2 9.8s-18.2 1.5-18.2 1.5m-3 0s-4.5-10.6-9.4-15.6-13.2 0-7.2 7.7c6 7.6 16.6 7.9 16.6 7.9m-237 44.8c-21.2-1.7-21.2-22.7-16-37s3.8-22.4 3.8-22.4c-30 .9-35.8-15.7-36.4-23.3s9.6-24.7 26.2-33.5c16.6-8.7 34.9 1.7 34.9 1.7s16.6-18 35.2-12.2c0 0 3.2 15.1-27.4 27.7 0 0 5.2 24.2-15.4 32.3 0 0 1.7 7.6 12.5 15.4 10.8 7.9 18 21 15.7 34.9" class="st0"/><path d="M627.3 751s1.7-22.1 26.5-24.5c0 0 5.2 13.4-8.4 25m33.1 86.6s3.8-46.6 40.5-54.4c36.7-7.9 69.9 23.3 48.3 49.5 0 0 .3-15.1-11.4-13.7-11.6 1.5.3 24.7-18 43.1-18.3 18.3-48.7 14.7-59.2 6.8" class="st0"/><path d="M677.4 865.9s3.1 7-2.7 8.2c-7 1.4-18 1.6-18 1.6-6.5.4-10.5-1.2-10.5-1.2-1.2-8.3 12.8-9.3 12.8-9.3s-6.5-3.2-6.7-14.3c-.1-5.5 2-8.6 2-8.6" class="st0"/><path d="M630.6 862.7s-9.4.4-9 8.4c.1 2.9 18.6-1.2 18.6-1.2" class="st1"/><path d="M633.2 823.1s-7.1-.7-12.5 3.2c-7.6 5.5-7.3 10.3-4.9 11.6s5.8-6.1 15.1-4.9m16.3-5s-6.4.7-10.2 10.8c-2.3 6.1 3.1 7.4 4.7 4.9s4.7-7.6 9.9-8.3" class="st0"/><path d="M604.3 783s.4 7.3 5 9.9c0 0 2.4-7.1 8.9-8" class="st1"/><path d="M609.2 792.7s-1 7.9 10.5 8.2c6.7.1 10-5.4 10-5.4m-29.9-.2s3.6 6.4 10 2.3" class="st1"/><circle cx="642.2" cy="774.2" r="9.5" class="st1" transform="rotate(-85.468 642.173 774.223)scale(1.00003)"/><circle cx="638.5" cy="772.2" r="2.7" transform="rotate(-85.468 638.548 772.156)scale(1.00003)"/><circle cx="604.3" cy="764.6" r="2.7" transform="rotate(-85.468 604.27 764.554)scale(1.00003)"/><path d="M738.2 783.4s-15.5.4-14.6 9.5c.4 3.7 11.1 4.1 11.1 4.1s-8.5 4.9-7.2 8.9c1.4 4.1 12.6.8 12.6.8s-10.4 9.5-5.2 14.2c2.1 1.9 10.3-3.3 10.3-3.3s-2.9 7.8 0 9.5 5.4-2.1 5.4-2.1m-136.2-64.1s-6.4-5-12.6-.8-6 13.4-.4 15.9m94.8-42-1.5 9.5 9.3-4.5m-8.5 7.2 11.4.6M653 715.5l-1 11.3 9.7-8.2m-7 9.9 11.3-2.7m-2 39.2s5.8-11.8 19.6-11.6" class="st1"/><circle cx="283.9" cy="951.6" r="37.7" class="st0"/><circle cx="283.9" cy="951.6" r="31.7" class="st1"/><path d="m268.8 924.2 30.8 54.4m-5.5-57L271 980.4m-16.8-39.5 59.9 18.6m-59.6 2.1 57.9-23.2" class="st1"/><path d="M900.8 1153.9c36.7-35.3 35.8-60.4 35.8-60.4s12.6 7.7 26.1 1c23.2-11.6 17.9-38.2 17.9-38.2 13.1-3.4 28.5 16 30.9 12.1s-9.2-11.6-9.2-11.6 18.9 7.3 18.9 1.9c0-5.3-16.9-7.3-16.9-7.3s21.8-1 20.3-5.8-22.2-1-22.2-1c8.7-2.9 19.3-12.1 12.6-12.1-6.8 0-19.8 8.7-32.4 12.6s-10.6 4.4-12.1 16-33.4 14-37.2 1.9c-3.9-12.1-12.6-16.9-12.6-16.9 30-25.1 12.6-54.1 10.6-89.9-1.9-35.8 22.2-45.4 36.7-48.3s38.4 6.2 34.8 22.2c-2.9 13.1-9.7 14-17.4 13.5s-13.5 7.7-8.2 16.9 26.6 5.3 38.2-14-3.9-57.5-44.5-48.3-49 28.2-49.6 59.2c-.6 30.3 18.7 56.7-12.7 79.1 0 0-30.9-8.7-48.8 14 0 0-17.4-1-16-16.4 1.5-15.5 16.9-16.9 15.5-23.2-1.5-6.3-8.2-10.6-8.7-24.2-.5-13.5.5-22.7-3.4-22.2s-4.4 17.9-4.4 17.9-2.9-20.8-7.7-19.8 1.5 20.8 1.5 20.8-6.3-18.4-10.6-16.9 4.4 18.9 4.4 18.9-8.2-12.6-10.6-7.7 7.3 23.2 23.2 31.9c0 0-22.2 12.1-22.2 36.3s20.8 30 28 29.5" class="st0"/><path d="M854.4 1058.1s-7.7 14-5.8 31.9 8.4 36.9-3.2 50m-46.5 47.5c.6-21.2 20-47.4 56-46.9 36 .6 61.8 15.4 62.9 48.6s-23.9 53.8-60 53.8c-32.6 0-60-16-58.9-55.5" class="st0"/><path d="M859 1174.6s14.5-17.8 32.6-9.4c21.7 10 12.3 38.6-10.9 37.7 0 0 1.4 28.3-20.9 28.9-23.7.6-27.7-17.4-27.2-31.7 0 0-22.3-1.7-16.9-22 4.6-17.1 26.1-23.2 43.3-3.5m55.7-1.7s12-8.7 19.7 5.4c6.9 12.6 1.1 24.6-5.7 30.3-6.3 5.3-13.2-.6-13.2-.6m-113.7-37.1s-6.9-8.6-17.7.6c-10.9 9.2-6.2 31.3 1.1 35.5 9.2 5.1 15.4-.6 15.4-.6m90.5 29.7s15 11.1 10.2 38.2c0 0-6.3 4.4-13.5 5.3-7.3 1-12.1 4.8-8.7 8.7s21.8-6.3 21.8-6.3-4.8 28 4.8 29.5 1.5-26.6 1.5-26.6 8.7 24.2 16.9 22.2c8.2-1.9-12.6-24.7-12.6-24.7s18.9 7.7 20.8 1c1.9-6.8-22.2-2.9-22.7-7.7s11.1-21.8-1.5-50.8m-101.4-1.6s-8.2 20.3-2.9 37.7 14 22.2 13.5 25.1-19.3 18.4-14 26.6 14-17.4 14-17.4-5.3 21.3 2.4 25.6c7.7 4.4 3.4-26.6 3.4-26.6s6.3 24.7 13.5 22.2c7.3-2.4-9.2-24.2-8.7-29.5s17.4-1 16.9-9.2-19.8 2.4-19.8 2.4-14.7-27.3-.2-44.7" class="st0"/><path d="M849.2 1194.9s3.4 8 8 8 8.2-7.2 8.2-7.2m-20.7 12.4s0 14.3 12.6 14.9 12.6-14.3 12.6-14.3m-12.7-5.8.6 18.9m65.8-38.9s5.7.6 6 7.7c.3 7.4-6 8.3-6 8.3m-131.8-17.4s-6.9 2-5.7 8.3c1.1 6.3 6.9 6.9 6.9 6.9" class="st1"/><circle cx="836.4" cy="1181.6" r="12.6" class="st0"/><circle cx="883.7" cy="1181.6" r="11.9" class="st0"/><circle cx="841.1" cy="1181.6" r="4.8"/><circle cx="887.4" cy="1181.7" r="4.5"/><path d="M824.1 1160s5.7-8.3 13.4-4.3m43.2.6s9.2-3.1 12.9 4m-16.5-91.4s-.6-5.2 3.5-9m-20.2 16.6s-2.2-4.7.7-9.7m43.4-2.4s-3.5 6.1-2.6 9.3m23.6 3s-.6 5.8-3.5 7.4m-43.1 2s-.4-3.6 2.5-6.3m-14 11.5s-1.5-3.3.5-6.7m30-1.7s-2.5 4.2-1.8 6.5m16.4 2s-.4 4-2.5 5.1" class="st1"/><path d="M205.5 1240.4s-2.3 3.3-9.3 6.9c-8.7 4.4-19.6-.5-32.8 6.4s-84.9 17.2-102.7-45c-15.9-55.6 23.2-79.8 37.6-85.2 16.9-6.4 31.8-3.2 33.4 4.2s-6.9 9-7.9 10.6c0 0 11 18.8-2.1 20.6-3.7.5-4.2-12.7-18-10.6-10.6 1.6-27.5 26.5-8.5 51.9s49.8 3.2 61.4-12.7 29.1-47.7 61.9-49.8 45.5 2.6 45.5 2.6" class="st0"/><path d="M200.5 1227.1s2.1 15.9 15.4 21.2m39.1-97.4s18-29.7 46.1-40.2 59.8-19.1 82.1 20.1c22.2 39.2 42.4 129.7-31.8 156.2-74.1 26.5-57.7-49.2-63-70.9m-40.2-79s-7.4-38.1-38.7-37.6c-31.2.5-44.5 52.9-41.8 70.9m-57.7 41.4s2.6 9.5-3.2 15.4m14.3-15.9s5.3 6.4 2.6 17.5m10.1-21.8s8.5 4.2 6.9 14.8" class="st0"/><path d="M288.4 1179s24.4-13.8 45 4.2m-40.8 2.1s28.1 3.2 29.1 33.4m-169.4 39.2s10.1 8.5 23.8 7.9 24.4 9 38.1 13.2c13.8 4.2 29.7-3.7 29.7-3.7M210 1279s-2.6 24.4 11.6 38.7c14.3 14.3 21.7 15.9 18 46.6s-4.8 52.9-11.1 57.7-27 21.2-21.7 32.3c.6 1.3 1.7 2.4 3.1 3.4 11.2 7.8 45.1 7.5 57.8-2.3 13.3-10.4 27.1-55.1 31.9-95.4.4-3 .7-10.5.9-13.4" class="st0"/><path d="M210 1298.6s-37.1-1.1-47.1 14.8-14.8 41.8-21.7 49.2-9.5 24.9 13.2 31.8 33.9-2.1 36-9.5 5.3-39.7 16.4-41.3 32.3-1.1 32.3-1.1m138.8 17.5s-39.4 9.8-78.2-.1" class="st0"/><path d="M384.2 1312.9s-13.1 27.3-2.6 61.4c5.8 19.1 23.3 39.7 20.6 52.4-2.6 12.7-15.9 26.5-4.8 36s48.7 6.4 56.1-11.1-4.8-50.3-8.5-68.3 22.8-56.1 29.1-87.9c6.4-31.8-9.1-94.3-36.5-103.8-13.8-4.8-36.2-6.5-36.2-6.5M309 1363.2s-10.6 25.9 1.6 65.1c0 0-15.9 22.8-9.5 31.2 6.4 8.5 49.2 5.8 51.9-4.2 2.6-10.1-3.7-68.3 16.9-93.7" class="st0"/><circle cx="225.4" cy="1196.1" r="15.9" class="st0"/><path d="M119.1 1132.9s-6.4 4.2-1.1 10.6m48.8 28.9s-11.3-4.2-18 4.2c-6.7 8.5-2.5 16.9-.4 19.4" class="st0"/><circle cx="231" cy="1197.5" r="4.4"/><path d="M154.1 1181.5c1.4-2 4.1-2.6 6.1-1.2s.9 3-.4 5c-1.4 2-2.5 3.6-4.5 2.3-2-1.4-2.5-4.1-1.2-6.1"/><path d="M220.4 1460.9s5.2-14.7.8-15.6c-5-1.1-11.2 12.4-11.2 12.4m21.2 4.3s3.2-13.8 10.1-14.6 1.6 15.4 1.6 15.4m-103-77.9s4-15.6 9.5-13.5-.6 20.2-.6 20.2m9.9 3.7s-.5-16.7 5-17.5c5.6-.8 7.7 18.3 7.7 18.3m132.3 46.5c.8 0 8.7-.3 5.3 20.1m9.8.9s-1.1-16.4 5.3-16.4 7.1 16.4 7.1 16.4m70.8 1s1.1-16.7 6.6-16.4c5.6.3 6.9 19.3 6.9 19.3m11.1-1s-6.4-16.9.3-18.8c6.6-1.9 11.9 15.1 11.9 15.1m36.8-172.8s15.9 12.7 42.7 1.4c21.2-8.9 26.5-34.7 27.8-45 .7-5.5 2.4-10.9 5.3-15.7 1.6-2.7 4.3-5.2 6.4-8.8 13.1-22.6 0-33.5 10.9-52.2 0 0-8.8 2.5-14.5 18 0 0 .7-12.4 7.1-22.9 0 0-11.1 3-20.8 19.4-7.8 13.1-8.5 30.7-3.5 38.5 5.3 8.3 4.6 18 4.6 18s-2.8 35.7-27.9 42.4-38.1-9.5-38.1-9.5m199.4 91.5s-11.6-28.8-38.3-36.3-45.5-1-44.5 16.4c1 17.5 15.4 13.7 39.7 14.7s34.2 13.7 34.2 13.7-13.4 17.5-5.5 41.1 37 32.9 58.5 20.9c21.6-12 20.9-39.4 5.1-56.8-15.7-17.4-35.5-19.8-49.2-13.7" class="st0"/><path d="M699.6 1362.4s7.5-18.5 1.4-42.1c-6.2-23.6-25.3-33.9-38.3-27.7s-10.3 19.5 3.4 30.1 21.6 24.7 21.2 38.7m-22.3 63.7s-3.8 4.5-12.7 7.2-41.9 7.5-35.3 44.5c2.4 13.4 7.5 15.7 7.5 15.7s-2.7 4.1 3.4 6.5 38.7 5.1 40.7.3c2.1-4.8-6.5-10.6-21.6-7.2" class="st0"/><path d="M645.5 1458.9s13 1.4 14.4 17.2c.8 8.6-3.8 14.7-3.8 14.7m49.7-49.6s1.7 15.4-6.8 28.4c-8.6 13-.3 24.3-4.8 27.4s-9.6-.2-9.6-.2" class="st0"/><path d="M670.6 1471.9c-7.8 26.3 2.9 29.5 8.9 28.9 5.4-.6 5.8-3 3.8-13.7-2.4-12.2 2.8-18.6 2.8-18.6s4.9.1 6.8-2.1m-75.1 13.7s-4.6-10.5-16.4-7.7-1.3 32.1 22.1 23.4m13.6-135.6s-28.2-2.8-23.6-12.8 42-2.1 54.2 20.5c1.8 3.3-1.8 6.4-1.8 6.4m5.3-47.5s-6.9-12.1 2.8-14.9 17.5 17.5 18.2 30.6c.8 13.1-.8 19-.8 19" class="st0"/><ellipse cx="684.6" cy="1411.5" class="st0" rx="10.1" ry="11.9" transform="rotate(-60 684.628 1411.524)"/><ellipse cx="719.1" cy="1394.2" class="st0" rx="8.6" ry="10.2" transform="rotate(-11.531 719.139 1394.214)"/><circle cx="689.2" cy="1412.3" r="3.1"/><circle cx="720" cy="1397.4" r="3.1"/><path d="M704.3 1418.5s5.1 4.9 10.5 4.1c0 0 3.4-2.1 2.7-10m-13.2 15.4s2.3 5.9 7.4 3.9c5.1-2.1 3.1-9.2 3.1-9.2" class="st0"/><path d="M724.1 1419.5s1.5 5.6-2.1 8-6.7-1.8-6.7-1.8m-45.1-29.1s-1.3-4.6 2.3-6.4m35.2-13.3s4.1-2.3 8 1.3m174.7 9.8s-1.1-11.3 6.5-16.4c0 0 14.6 12.9 23.2 12 0 0 7.2.7 26.6-1.7 19.3-2.4 47.9-27.7 39.7-66.5 0 0 2.9-4.6 7.4-2.6 0 0 47 40.2-3.1 84.3-32.1 28.3-68-.2-77.6-5.4-9.7-5.3-22.7-3.7-22.7-3.7" class="st0"/><path d="M935.5 1395.4s49.7 10.3 63-43m-291.2-228.8c-20.6 6.7-49.4-6.6-49.4-6.6-6.3-6.9 2.9-21.5 2.9-21.5-5.3-3.4-14.4.7-14.4.7s-5.8 12.3 5.9 23.9c0 0-4.8 26.3 24.7 36.1 21 7 35.2 2.5 35.2 2.5" class="st0"/><path d="M718.6 1144.9c-3.3 19.5-30.9 41.6-30.9 41.6 25.1 4.4 38.1-14.7 38.3-19.5s-.5-19.2-5.4-23.7-18.7-6.6-18.7-6.6 10.8-2.2 14.6-5.5 7.8-15.7 4.5-19.6c-3.3-3.8-29.2-19.6-50.3-5.8 0 0 33.1 5.9 43 24.8" class="st0"/><path d="M722.4 1122.6s22-4.3 33-14.4 13.6-13.3 18.9-9.9 2.6 42.2-48 56m-64.6-25.9s16.1 12.9 40.1 8.2M828 1483.1s13.9-2.5 23.5-21.6c9.5-19.1 7.7-24.8 13.1-21.8s-4.1 20.8-4.1 20.8 9.8-18.4 19.2-17.4-13.6 22.9-13.6 22.9 16.7-7.4 21.9.3c5.2 7.8-19.9 7.9-19.9 7.9s21.3 3.1 16.8 13.4-16-21-52.1 3.1" class="st0"/><path d="M734.4 1539.3c-2.8-3.9 60-56.6 78.4-60.9s30.9 23.2 6 36.9c-24.8 13.7-80.5 29.3-84.4 24" class="st0"/><path d="M807.2 1481.5s.2 8 4.2 12.8m-15.3-5.4s-.2 6 2.8 9.2m-8.2 16s.9 6.5 4.9 11.3m-33.9-12.2s1 4.7 3.5 8.9m42.4-18.8s-1.2 3.8 3.2 8.1m-32.4-4.7s.2 4.4 2.9 8m-28.4 13.6s.4 5.3 2.9 8.4" class="st1"/><path d="m765.7 937.8-17.8-.3c-11.6 8.9-39.4 8.2-53.4 27s-7.2 39.7-7.2 39.7l-4.8 3.1s-14-3.8-18.5-26.4 6.5-47.6 37.7-58.5 44.2 2.7 49 6.5 20.2 2.7 20.2 2.7l11-6.8c7.2 6.5 5.1 18.1 5.1 18.1s-3.1-1.7-8.9-1-14.7 8.6-14.7 8.6-2.4 9.2-12.3 21.2-19.5 23.3-16.1 40.7c3.4 17.5 12.7 24.7 12.7 24.7l-3.4 5.8s-15.4 1.4-24.3-7.2" class="st0"/><path d="m762.6 943.6-11 3.1s-5.1 6.8-17.5 16.1c-12.3 9.2-26.7 25.3-22.6 44.5s10.3 25.3 10.3 25.3l-5.8 5.8s-22.6-3.1-31.2-33.2m-10.5-30.8s.7-40.1 47.9-44.5" class="st0"/><path d="M702.4 973.7s-16.8 34.6 16.4 63.3m3.4-44.4s-6.2 34.2 22.9 47.6m248.6 158c3.2-3.6 9.8-9.1 14.9-10 19.3-3.7 31.6 4.5 35.1 17.9s-4.2 28.9-17.9 30.6c-19.7 2.3-30.3-7.1-33.8-20.5" class="st0"/><path d="M988.5 1207.7c.1-5.3 4-9.4 8.7-9.4s7.2 4.4 7.1 9.7-2.8 9.4-7.5 9.3c-4.6 0-8.4-4.3-8.3-9.6" class="st0"/><circle cx="1029.1" cy="1210.7" r="9.5" class="st0" transform="rotate(-14.613 1029.148 1210.652)"/><circle cx="992.6" cy="1208" r="3.6" transform="rotate(-14.613 992.562 1207.956)"/><circle cx="1024.5" cy="1210.3" r="4.1" transform="rotate(-14.613 1024.466 1210.261)"/><circle cx="1063.3" cy="1222.3" r="4.7" transform="rotate(-14.613 1063.263 1222.346)"/><circle cx="1081.3" cy="1216.7" r="4.7" transform="rotate(-14.613 1081.257 1216.745)"/><circle cx="1093.7" cy="1231.9" r="4.7" transform="rotate(-14.613 1093.667 1231.863)"/><circle cx="1089.6" cy="1196.3" r="4.1" transform="rotate(-14.613 1089.567 1196.255)"/><circle cx="1069.4" cy="1195.3" r="4.1" transform="rotate(-14.613 1069.354 1195.262)"/><path d="M1007.1 1220.5s.9 7.3 5.5 7.1 5-6.5 5-6.5m-2.7-34s4.1-10.9-.8-21c-5-10.1-15.4-7.4-15.6-1.4s7.6 5.3 7 2.1m24.9 22.3s.9-16.3 9.3-21.8c8.4-5.6 16.3.9 13.7 5.8s-7.7 1.2-6.6-1.6m-3.6 49.4s12.9-22 40.5-16.5 30.1 42.1 30.1 42.1-45.2-.6-70.6-25.6" class="st0"/><path d="M1044.6 1210.7s.7-17 23.6-24.8c22.8-7.8 40.1 9 40.1 9s-1.1 7.5-15.4 12.3m-55.4 23s-5.1 27.2 25.2 34.1 42.8-17.4 42.8-17.4" class="st0"/><path d="M1053.7 1229.6s.9 15.5-6.8 26.4m22.8-17.6s2.2 11.6-5 25.4m22.2-20.1s2.5 9.5-3 19.4m-62.1-11s6-9.8 15.6-9.5m-8.2 18s2.8-8 11.2-10.7m9.7 28.3s-1.8-8.9 4.5-16.4m5.4 16.6s-3.2-4.3 1-14m28.3-2.4s.8 10.1 10.1 13.9m-3.5-17.7s1.2 7.7 11.7 10.1" class="st0"/><circle cx="1020" cy="1482.7" r="10.5" class="st0"/><path d="M1053.2 1547.1c-1.7-4.5-3.1-8.6-3.7-12.5-3.1-19.3 4.6-23.9 3.1-38.8-2.5-23.8-16.7-35.4-37.5-36.2s-30.6 10.3-34.7 18-9.2 7.4-18.5 11.8c-9.2 4.4-11.3 13.9-11.3 13.9s16.1-8.1 30.8-5.4c8.5 1.5 16.4-2.6 16.4-2.6" class="st0"/><path d="M971.7 1497.6c1.8 6.4 8 5.1 15.2 9.2s2.3 8.5-12.3 34.4-22.3 58.8-16.9 103.7 36.5 51.9 64.7 48.8 40.1-8.7 45.2-63.2c1.9-19.6.7-32.3-2.1-44.9m-69.2-97s-1 5.6 4.9 8.7" class="st0"/><path d="M972 1543.3s-9.5-3.9-30.3 3.9-41.3 20.9-51.4 41.1c-3.6 7.2 9.8-5.4 21.6-6.2s32.9 5.9 48.5-5.6m18.7 110.3s-11.6 2.1-16.9 7.4c-2.6 2.6 9.2.8 10.8 3.1s-5.1 8.5-3.9 11.3c1.3 2.8 12.3-3.9 14.9-2.6s.8 8 3.6 9 13.6-15.7 14.4-20.3m25.4-1.2s-11.2 15.5-8 20.8c1.3 2.1 7.2-5.1 10-4.9 2.8.3 6.7 11.3 9.8 11.6s3.3-11.3 5.9-12.6 8.7 4.9 11.3 4.4-1.3-15.4-11.3-24.1" class="st0"/><path d="M976.6 1537.4s8.5-13.9 32.1-11c23.6 2.8 47.4 31.1 45.4 99.6-2.1 68.6-41.8 67.8-41.8 67.8m-25.7-225.3s-6.9-3.9-11.8 2.6 1 11.8 1 11.8" class="st0"/><circle cx="1021" cy="1482.9" r="3.3"/><path d="M977.5 1474.6c1-1.5 3.1-1.9 4.6-.9s.4 2.1-.6 3.6-1.6 2.9-3.1 1.9-1.9-3.1-.9-4.6"/><path d="M988.6 1548.9s-1.8 3.1-1.8 7.4m17.5-7.9s.3 5.1-1 9.5m17.7-8s2.3 3.9 1.5 8.7m-10.5 6.2s-1 5.4-.3 8.5m-18.9-9.7s-1.8 5.1-1.3 8.2m-16-11.6s-2.3 4.6-1.5 8m58-5.7s2.1 4.1 1.3 7.4m-59.5-109.8s2.3-5.4 8.2-3.9m42.3 8.7s5.6-.3 6.7 5.9m5.9 220.9.3 15.1m-58.1-7.2 9-8.2m-446.8-18.2c-15.4-43.1 11.3-70.4 11.3-70.4s-13.4-8.7-10.8-24.7 22.3-19.3 31.8-8.7c4.6 5.1 5.6 14.9 5.6 14.9s31.8-13.4 60.6-3.1c0 0 3.1-20.5 22.1-16.9s17.5 28.2-.5 36.5c0 0 16.9 19 16.4 53.9s-18.5 53.9-18.5 53.9 3.1 35.9-5.1 64.7-26.7 75-23.1 83.2c0 0 21.1 3.1 22.6 18s-13.7 17.8-13.7 17.8" class="st0"/><path d="M630.6 1875.5s14.8 3.8 8.7 17.5c-2.1 4.6-15.4 5.1-15.4 5.1m-47.7-93.4s0 46.7 18 65.7" class="st0"/><path d="M586 1871.4s18.3-1.5 30.1 6.8c10.4 7.4 13 20.4-.3 26" class="st0"/><path d="M607.5 1885.8s6.5 2.6 8.2 6.4 1.3 10.3-4.1 13.6c-7.8 4.8-15.9 1-15.9 1" class="st0"/><path d="M590.1 1890.4s8.2 2.6 8.2 9.8-6.7 10.8-16.4 9.8c-9.8-1-26.7-4.1-49.8-44.7s-29.8-62.7-29.8-62.7" class="st0"/><path d="M443.7 1817.3s31.5 23.6 75.2 24.1m61.4-5.4s19 1 38.5-18m-171.5 2.6s3.1 57 22.1 75c14.1 13.4 37 12.6 37 4.1 0-8.2-9.8-9.8-9.8-9.8" class="st0"/><path d="M508.4 1841.1s-4.6 28.8 1 32.4 21.3 4.6 21.6 19.5c.2 10.3-9.2 9.8-9.2 9.8" class="st0"/><path d="M514.3 1887.6s7.2 1 7.4 8.5c.3 7.3-4.1 12.3-18.5 9.2m-56.4-136.6c.1.1 7.9 36.2-10.3 63.2-18.3 27.2-35.4 32.4-34.9 38s1.5 8.7 6.7 9.2 17.5 5.6 16.9 15.4c-.5 9.8-6.2 9.8-6.2 9.8" class="st0"/><path d="M409.3 1889.9s13.4 5.6 7.2 16.9c-3.1 5.6-11.3 2.6-11.3 2.6" class="st0"/><path d="M397.5 1894.5s8.7.5 8.7 8.2-4.1 10.8-18 8.2-39.6-37.3-43.7-61.1c-3.6-21.1 13.4-19.5 8.7-36.5-4.6-16.9-26.7-64.7 12.3-117.1s112.5-57.5 149.4-49.8" class="st0"/><path d="M505.8 1659.3s10.3-20 30.8-23.6" class="st0"/><circle cx="590.8" cy="1623.2" r="15.4" class="st0"/><circle cx="589.5" cy="1623.4" r="5"/><path d="M662.5 1614.4c2.9 7 0 16.5-7.4 17.9-4.4.8-10.7-.9-15.2-9.4-3.5-6.7-2.2-13 4.8-15.9 6.9-2.9 14.9.4 17.8 7.4" class="st0"/><circle cx="648.1" cy="1619.8" r="4.4"/><path d="M630.1 1638.3c.3-3.8 33.2-6.5 34.6-1.7s-12 13.7-17.1 14c-5.2.3-17.8-8.2-17.5-12.3m21.9-46.6s-3-14.8 8.9-13c4.5.7 3.8 5.5 3.8 5.5m-101 7.9s3.1-9.2-4.5-12-8.6 5.8-8.6 5.8m59.7 68.8s-.7 14 17.1 14.7 20.2-18.8 20.2-18.8m-5.2 13.7s1 3.4 8.9 3.8c7.9.3 13.7-11 12.7-16.1m-48.3 24.3s.3 7.2 8.6 8.2c8.2 1 11.3-5.5 11.3-5.5m-57.9-76.7s2.1-7.4 9.5-6.9m50.9-2.3s5.9-1.5 9 3.3M48.8 1357.9s11-12.7 26-6.5c15.1 6.2 15.1 32.5 4.8 46.6s-22.3 11.3-22.3 11.3-8.2 6.8-19.9 1.7c-11.6-5.1-30.5-29.1-20.2-44.5 10.3-15.5 31.6-8.6 31.6-8.6" class="st0"/><path d="M54.2 1339.2s-8.6 11.6-4.5 26" class="st0"/><path d="M43.9 1365.2s4.3 4.3 12.3-3m-7.8-5.5s-3.1-22.9-24-21.2c.1-.1-2.3 21.2 24 21.2m459.8-510.2s-9.2-.7-17.4 4.1c-8.3 4.8-18.3 21.8-16.6 28.6 1.8 7.1 13.5 15.6 24.5 16.7 11.7 1.2 24.3-4 24.3-4" class="st0"/><path d="M541.3 860.1c-5.3-14.6-13.1-24.9-23.3-23.5-11.2 1.5-9.8 14.1-4 33.6s12.8 27.6 21.2 25.6 10.8-22.8 6.1-35.7m-17.6-22.4-13.2 16.1m23.3-8.2L514 870.2m25.8-11.5-20 25.1m23.4-9.2-15.3 19.1m-16.6-49.6 24.5 4.3m-25.7 4.2 29.8 6.4m-26.9 6.4 30.2 6.1" class="st0"/><path d="M518 879.2c.7.2 23.7 5.9 23.7 5.9m-18.1 5 14.6 4.1m13-46.4s3.5 12.6-8.1 15.2" class="st0"/><path d="M121.7 987c21.9 17 27.6 39-.4 75.1s-47 44.6-74.4 23.4-22.5-42.2 2.7-74.8 49.5-41.2 72.1-23.7" class="st1"/><path d="M124.3 989.6s26.1-32.4 64.2-16.3c0 0-37.5 5-54.5 24.4" class="st1"/><path d="M115.6 982.9s13.8-28.5-2.4-48.8c0 0 19.2 4.2 21.6 29.8.4 4.7.3 10.1-.6 16.4m14.2-9.2s16.2-18.9 40.3-19.4c0 0-24.4-15-53.9 12" class="st1"/><path d="M133.7 953.5s11.2-12.5 13.4-31.9c0 0 12.2 11.5 3 30.7" class="st1"/><path d="M164.3 947.3s11.4-13.4 11.7-24.5c0 0-12.8 2.5-22.1 13.8M39.8 1079s-3.2-10.2 2.4-15.1 13.7-1.7 13.7-1.7 5.4 9.3 2.7 15.5-9 9.6-9 9.6m10.6-12.4s9.5-1.6 16.4 1.1c0 0 1.7 8.5-1.6 13.4s-7.8 6.4-7.8 6.4m11.2-13s7.1-1.5 15.6 6.2" class="st1"/><path d="M45.5 1061.7s-2.7-6.5-7.8-10.2c0 0-6.6 3.9-7.2 13m10.4-11.5s2.8-12.6 6.3-14.8 17.1 2.6 17.1 2.6 6 11.6 2.7 16.8-8.2 8.6-8.2 8.6m9.8-14.7s5.4-.7 9.2.4c0 0 6.2 8.7 4.4 15s-5.5 9.1-5.5 9.1m7.1-10.4s9.5-.9 10.4-.7 3.5 9.2 3.1 12.7-7.5 8.4-7 8m8.5-11.8 7-1-.3 6m-60.7-39.6s-2.7-7.2-7.6-9.2" class="st1"/><path d="M41 1023.1s9.5-7.6 17.3-4.7c0 0 5.9 10.7 2.2 21.1m2.1-10.2s6.7-3.3 12.9-2.4c0 0 7.1 8.8 8 15.3" class="st1"/><path d="M75.1 1050.8s6.5-8.7 10.6-9.3c4.1-.7 10.3 0 10.3 0s5.6 9.5 5.3 13.1c-.3 3.7-5.7 11-5.7 11m9.5 6.4 6.8-7.1s1.6-9.1-.6-10.3-9.1.1-9.1.1m17.1 9.7-7.4.5m-36.4-38 3.6-8-6.6-13.1c-8.1-1.9-18.8.9-18.8.9m26.7 12.3 14.6.8 6 14.2-5 7.5m6.5-7.4h13.6l1.2 12.8-4.7 7.4M95 1019.8c.6-.8 5.2-5.8 5.2-5.8s11.9-1.4 16.9 1.5c0 0 3.5 9.4 2.2 13.5l-2.6 4.4m4.2-4.4s7.3-3.4 11.7-1.5c0 0 2.4 7.3.5 15.3m-15 4.7s6.5-2.4 11.4.3" class="st1"/><path d="M72.6 1005.8s5.3-5.2 7.8-5.8 13.5-1.4 13.5-1.4 5.7 8 6.3 15.5m-28.8-25.2s3.6 4.6 3.1 14.3" class="st1"/><path d="M86.1 980.6s5.7 8.6 3.4 18.6m.3-13.1s7.8-2.7 12.6-1.6c0 0 4.7 7.3 4.2 14.9l-6.6 10.1m8.2-10.7 9.6.5 4 11.9-2.9 5.7m4.1-5.6 8.7.1s4.7 6.2 4.3 8.8c-.4 2.5-2.6 9.1-2.6 9.1" class="st1"/><path d="M106.3 989.6s8.3-1.1 10.6.7c2.3 1.7 6.5 10.2 6.5 10.2l-2.9 5.5m4.1-5.8 6.4.5 5.2 3.6m-22.3-21.9 1.5 7m-12.7-10.6-.3 5.7" class="st1"/><path d="M89.1 1006.5s-3.8 1.5-5 5.8m25.8 9.1s-1.3 4.7-3.7 5.5m-15.9.9s-2.2 4-2.5 6.1m-21.6-22.1s-3.1 2.1-3.6 3.9m-9.9 10.1c-1.1-.1-4 5.2-4 5.2m41.8 19s-1.2 4.4-3.9 6.4M71.4 1036s-2.7 3.2-2.9 5.4m40.8.4s-2 3.9-4.2 4.7m-27.6-54.1s2.5-3.9 4.2-4.2m15.7 4.1s-1.3 4.1-2.5 5m31.9 38.1s-2.9 5.2-4.4 5.9m4.8-23.2s-.8 4.4-2.3 5.2m-12.4-17.5s-2.8 3.3-3.4 5.3M55 1047.8s-3.5 3-4.1 5.5m20.5 8.1s-1.7 4.8-3.8 6.1m20.7 5.5s-1.9 4.4-3.3 5m20.3-16.2s-2.6 3.6-3.9 4.2m19.7-10.9-2.8 3.8m-82.6-17.5s-1.8 3.5-1.7 4.8m15.2 24.9s-3.3 3.8-2.9 5.9m21 6.6s-1.7 3.2-4.4 3.7m190.3-536.8s16-36.2-5.9-36.2c-21.9.1-15.2 27 5.9 36.2" class="st0"/><path d="M252.6 551s-31.4-24-36.5-2.7 22.6 21 36.5 2.7m2.1 1.5s7.9 38.7 25.7 26.1c17.8-12.7-3.2-30.8-25.7-26.1" class="st0"/><path d="M254.1 553.1s-35.5 17.4-18.8 31.5 29-10.9 18.8-31.5m.9-1.7s39.5 1.3 31.4-19c-8.2-20.2-30.6-3.9-31.4 19" class="st0"/><path d="M245.9 570.4s6.7-10.1 7-15.7m16.8-15.4s-10.9 5.9-14.9 10.9m-7.8-18.7s2.2 13.2 6.2 17.1m-18.3 2.8 18.3-.9m3 3.1 10.4 8.4" class="st1"/><path d="M79.7 2255.4s16-36.2-5.9-36.2-15.1 27 5.9 36.2" class="st0"/><path d="M79.2 2255.9s-31.4-24-36.5-2.7c-5.2 21.3 22.6 21 36.5 2.7m2 1.5s7.9 38.7 25.7 26.1-3.2-30.8-25.7-26.1" class="st0"/><path d="M80.7 2258s-35.5 17.4-18.8 31.5 28.9-10.9 18.8-31.5m.9-1.7s39.5 1.3 31.4-19-30.7-4-31.4 19" class="st0"/><path d="M72.4 2275.3s6.7-10.1 7-15.7m16.9-15.4s-10.9 5.9-14.9 10.9m-7.8-18.7s2.2 13.2 6.2 17.1m-18.3 2.8 18.2-.9m3.1 3.1 10.4 8.4" class="st1"/><path d="M1074.7 996.5s29.3-3 21.3-17.2-23 .1-21.3 17.2" class="st0"/><path d="M1074.2 996.3s3.9-29.2-11.7-24.7c-15.7 4.6-5.3 22.4 11.7 24.7m-.2 1.8s-22.2 19.4-7.4 26.3 18.7-13.4 7.4-26.3" class="st0"/><path d="M1073.4 998s-24.4-16.6-27.3-.6c-2.9 16.1 17.7 14.8 27.3.6m1.5 0s13.7 26.1 23.9 13.3c10-12.8-8.8-21.3-23.9-13.3" class="st0"/><path d="M1059.1 999.1s9 .6 12.8-1.3m16.2 5.2s-7.9-4.9-12.6-5.6m9.3-12s-7.7 6.3-8.8 10.3m-8.5-10.7 7.2 11.5m-.8 3.1-1.6 9.8" class="st1"/><path d="M629.4 1227.7s-16.4 29.7 2.3 31.4c18.8 1.6 15-21.9-2.3-31.4" class="st0"/><path d="M630 1227.3s25.1 22.9 31.1 5c5.9-17.7-17.9-19.6-31.1-5m-1.7-1.4s-3.9-33.7-20.1-24.2.5 26.5 20.1 24.2" class="st0"/><path d="M628.8 1225.4s31.7-12.2 18.4-25.5c-13.2-13.3-25.5 7.1-18.4 25.5m-.9 1.4s-33.7-4.1-28.2 13.9c5.4 17.9 25.9 5.7 28.2-13.9m-19.3 970.1s-16.4 29.7 2.3 31.4c18.8 1.6 15-21.9-2.3-31.4" class="st0"/><path d="M609.2 2196.6s25.1 22.9 31.1 5c5.9-17.8-17.9-19.6-31.1-5m-1.7-1.4s-3.9-33.7-20.1-24.2.5 26.5 20.1 24.2" class="st0"/><path d="M608 2194.7s31.7-12.2 18.4-25.5c-13.2-13.3-25.5 7.1-18.4 25.5m-.9 1.3s-33.7-4.1-28.2 13.9 25.8 5.7 28.2-13.9M770.3 557.8s-13.9 25.2 2 26.6 12.7-18.6-2-26.6" class="st0"/><path d="M770.7 557.5s21.3 19.4 26.3 4.3c5.1-15.1-15-16.7-26.3-4.3m-1.4-1.2s-3.3-28.6-17-20.5c-13.7 8 .4 22.4 17 20.5" class="st0"/><path d="M769.8 555.9s26.8-10.3 15.6-21.6-21.7 6-15.6 21.6m-.8 1.1s-28.6-3.5-23.9 11.8S767 573.6 769 557M46 860.6s28.4-2.9 20.6-16.6-22.3.1-20.6 16.6" class="st0"/><path d="M45.5 860.4s3.8-28.3-11.4-23.9-5.1 21.7 11.4 23.9m-.2 1.8s-21.5 18.8-7.2 25.5 18.2-13 7.2-25.5" class="st0"/><path d="M44.7 862.1s-23.6-16.1-26.5-.5 17.2 14.3 26.5.5m1.4 0s13.3 25.3 23.1 12.9-8.4-20.6-23.1-12.9m699.6 814s9.3-14.5 31.3-20.8c7.9-2.3 17.4-3.5 28.7-2.7 42.9 3.2 62.1 31.7 62.1 31.7s-8.2 24.3-62.2 22.6c-50.7-1.5-59.9-30.8-59.9-30.8" class="st0"/><path d="M777.7 1656.9s7 7.6 6.8 21.6c-.1 14-8.1 23.6-8.1 23.6m89.4-20.6s3.9-16.7 23-20.9c10.5-2.3 19.4 2.3 19.4 2.3s-15.6 18.8-32.2 21.7c0 0 20.7 4.6 26.6 24 0 0-26.1 5.4-36.2-21" class="st0"/><path d="M786.9 1653.9s8.6 4.1 8.6 11.8c0 7.6-9.8 9.7-9.8 9.7s10.7 2.4 10 10.3c-.8 7.9-13.4 8.6-13.4 8.6s10.9 5.4 9.9 10.7" class="st1"/><path d="M795.8 1663.9s11.6 1.8 11.1 10.2-11.2 11.6-11.2 11.6 9.4 6 9.2 12.7c-.2 6.8-9.5 8-9.5 8" class="st1"/><path d="M805.8 1653.1s9.9 4.4 9.4 10.9-8 10.2-8 10.2 9.9 3.3 9.7 10.4c-.2 8.9-11 11.9-11 11.9s9.9 1.8 9.8 10.3" class="st1"/><path d="M816.2 1663.1s12.1 4.3 10.9 10.9-10.1 10.9-10.1 10.9 10 2.7 10.4 10-8.8 11.8-8.8 11.8m10.4-49.1s7.3 8.3-.7 13.7" class="st1"/><path d="M827.1 1674s9.1 1.7 9.8 9c.7 7.4-9.5 11.9-9.5 11.9m14.2-31.3s4.6 8.8-4.3 15.7m-2.8 11.4s7 1.7 4.3 12.7m3.6-27s7.6 3.9 6.8 10.2c-.8 6.2-8.9 9-8.9 9m13.1-24.4s2.9 6.9-4.2 9.4m-.1 10.2s4.5 2.1 3.9 7.1m1.4-20.6s6.3 3.4 5.9 8.2c-.6 6.3-8.2 7.5-8.2 7.5" class="st1"/><ellipse cx="769.7" cy="1672.6" rx="3.8" ry="3.1" transform="rotate(-79.66 769.74 1672.55)"/><path d="M772.8 1683.5s-3.9 8.5-15.7 6.2m42.7-37.1s8.4-13.3 18.7-12.5 3.5 9.4 3.5 9.4 7.6-5.6 13.8-2.2c6.2 3.5 1.3 6.4 1.3 6.4s10.7.5 6.2 8.1m-40.5 46s5.8 9.6 11.5 10.6 5.7-3.3 5.7-3.3 5.4 5.8 10 5.3 4.6-5.8 4.6-5.8 6.3 2.3 8 .2c4-5.1-2.5-9.8-2.5-9.8" class="st1"/><path d="M732.7 52c-2.3 3-2.2 10.6 5.3 12.3s11.7-3.1 10.6-8.9-11.1-9.5-15.9-3.4" class="st0"/><path d="M735.5 64.3s-9.9 15.9-8.7 33c.6 7.9 3.3 14.1 5.9 15s10.3-15 11.2-28.1-1.8-19.4-1.8-19.4" class="st0"/><path d="M748.5 54.4s16.4-28.3 40.9-15.5-2.9 39.7-29.7 41.5c0 0 37.7 2.9 29.2 28.6s-46.8 8.4-46.6-16.5m-10.4-39.4s-5-27.9-29.7-24.7-19.6 46.1 15.8 49.7c0 0-37.9-1.1-37.9 21.4s32.9 24.2 46.4-1.9m5.3-25.7s5.4 2.5 11.8 1.8m-14.8 6.9s5.4 3.6 14.9 3" class="st0"/><path d="M727 89.4s7 4.4 15.5 3.3M739 48.6s-2.3-28.1-6.3-31.6-6.8 2.7-5 4.3m16.6 28.1s7.7-25.5 11.5-29.1 8.1 2.4 6 3.9" class="st0"/><circle cx="777.2" cy="53.4" r="10.7" class="st0"/><circle cx="705.6" cy="47.1" r="10.3" class="st0"/><circle cx="705.6" cy="47" r="4.1"/><circle cx="777.2" cy="53.6" r="4.1"/><circle cx="697.1" cy="99.6" r="4.7"/><circle cx="768.9" cy="102.4" r="4"/><path d="M533.3 1082.4c-.9 2.9 1.3 8.8 7.6 7.9s8.2-5.7 5.6-9.9-11.3-4.1-13.2 2" class="st0"/><path d="M538.9 1091.1s-3.1 15.1 2.7 27.9c2.7 5.9 6.6 9.9 8.8 9.9s3.7-14.5.6-24.8-6.9-14.4-6.9-14.4" class="st0"/><path d="M546.1 1079.7s4.6-26.5 27.1-23.5c22.5 2.9 9.1 31.3-11 40.4 0 0 30.1 7.2 26.8 20-4.4 16.9-29.9 10.1-36.8-5.8m-19.3-27.3s-11.8-20-29.8-10.6c-18.1 9.5-2 41.1 26.2 33.8 0 0-25.8 22-16.5 33.9 6.7 8.5 23.8-2.7 28.6-21.3m-3.2-21.3s4.8.4 9.6-2m-9.4 9.5s5.1 1.2 12.3-1.9" class="st0"/><path d="M539.5 1112.8s6.7 1.4 12.9-1.8m-15.9-32.7s-8.8-20.9-12.9-22.5-4.4 4-2.6 4.7m19.9 16.6s-1.6-20.3.3-24.1 6.9-.5 5.7 1.3" class="st0"/><circle cx="509.3" cy="1085.7" r="6" transform="rotate(-20.262 509.345 1085.746)"/><circle cx="569.5" cy="1070.2" r="6.1" transform="rotate(-20.262 569.537 1070.236)"/><circle cx="524" cy="1127.8" r="3.9" transform="rotate(-20.262 524.026 1127.833)"/><circle cx="574.1" cy="1114.6" r="3.3" transform="rotate(-20.262 574.134 1114.618)"/><circle cx="561.7" cy="1081.4" r="3.3" transform="rotate(-20.262 561.725 1081.416)"/><circle cx="521" cy="1091.2" r="3.3" transform="rotate(-20.262 521.02 1091.24)"/><path d="M518.2 342.6s-11.6-22.6 11-35.6c-.1-.1 15 21.2-11 35.6" class="st0"/><path d="M555.1 345.1s-17.1 19.6-37.2-2.3c0 0 19.2-16.6 37.2 2.3m-38.1-3.7s-25.3 6.2-29.1-23.3c0 0 25.3-2.5 29.1 23.3" class="st0"/><path d="M523 379.7s-22.6-12.9-5.1-36.9c0 0 20.1 15.6 5.1 36.9" class="st0"/><path d="M485.5 362.7s2.4-25.9 31.5-19.9c-.1 0-5.9 24.7-31.5 19.9m42.1 1034s-11.6-22.6 11-35.6c0 0 15 21.2-11 35.6" class="st0"/><path d="M564.5 1399.2s-17.1 19.6-37.2-2.3c0 0 19.3-16.6 37.2 2.3m-38-3.7s-25.3 6.2-29.1-23.3c0 .1 25.3-2.5 29.1 23.3" class="st0"/><path d="M532.5 1433.8s-22.6-12.9-5.1-36.9c0 0 20.1 15.6 5.1 36.9" class="st0"/><path d="M494.9 1416.8s2.4-25.9 31.5-19.9c0 0-5.9 24.7-31.5 19.9M833 1579c9.9-9.1 2.2-20.1 2.2-20.1-9 5.2-9.8 12.7-9 17.9-4.7-11.7-18-10.4-18-10.4 1.4 10.5 6.8 14.1 11.5 15.3-11.4 1.8-12.5 13.6-12.5 13.6 9.3 1.7 14.6-2.3 17.6-6.4-3.8 11.6 7 17.7 7 17.7 6.3-9 3.2-16.5.1-20.7 11.4 8.1 20.5-2.3 20.5-2.3-7.1-7.5-14.6-6.6-19.4-4.6m231.7-1415.7c5-12.5-6.7-19-6.7-19-5.9 8.6-3.4 15.7-.4 20-9.3-8.5-20.7-1.6-20.7-1.6 5.7 8.8 12.2 9.8 17 8.8-9.5 6.5-5.4 17.7-5.4 17.7 9.1-2.4 12.2-8.4 13.1-13.4 1.6 12.1 14 12.9 14 12.9 1.8-10.9-4.2-16.3-8.8-18.8 13.8 2.4 17.5-10.9 17.5-10.9-9.8-3.6-16.1.5-19.6 4.3M96.3 2357.2c6.7-16.8-8.9-25.5-8.9-25.5-7.9 11.5-4.5 21-.6 26.8-12.5-11.4-27.7-2.2-27.7-2.2 7.7 11.8 16.3 13.2 22.8 11.8-12.7 8.7-7.2 23.6-7.2 23.6 12.2-3.3 16.3-11.3 17.5-17.9 2.1 16.1 18.7 17.3 18.7 17.3 2.4-14.6-5.6-21.8-11.8-25.1 18.5 3.2 23.4-14.6 23.4-14.6-13.1-4.8-21.5.7-26.2 5.8m169.5-1305.3s-21.9 3.2-26.2-19.2c0 .1 21.8-6.3 26.2 19.2" class="st0"/><path d="M278.4 1022.2s11.3 19.7-12.5 30c.1.1-8.2-20.5 12.5-30m-13.8 30.4s-2.1 22.6-27.5 17.4c0-.1 5.1-21.6 27.5-17.4" class="st0"/><path d="M297.9 1058.5s-17 15-31.9-6.3c0 0 18.5-12.1 31.9 6.3" class="st0"/><path d="M273.2 1084.7s-20.7-9.3-7.5-31.6c0-.1 18.7 11.8 7.5 31.6m699-1050.4c12.4-2.6 12.8 5.6 17.1 18.4s16.7 21.8 40.7 22.7 36 16.3 36 16.3-24-3.4-35.5-.9c-11.6 2.6-23.1 7.3-31.3 2.6-8.1-4.7-21 4.7-28.7-.9-7.8-5.5-18.4-54 1.7-58.2" class="st0"/><path d="M964 21.1s-1.3 9 2.6 15M982 19.8s-3.4 7.7-1.7 14.6" class="st0"/><circle cx="964.4" cy="14.6" r="6"/><circle cx="985" cy="13.8" r="6"/><path d="M967.9 45.9s1.3 5.1 5.1 6c3.9.9 6-6 6-6m10.7 4.7c1.3 0 7.7-4.3 11.1-13.7s11.6-26.1 36.4-24.8 30.4 21.8 30.8 37.7-10.2 28.2-36.3 25.2-24-33-9.4-40.3 27.8-.4 28.3 11.6c.4 12-14.6 18.4-19.7 9.8s5.1-13.7 8.1-8.6M428.5 1610.2c3.8 14.4-9 6.4-21.4 9.6-12.3 3.2-19.5 16.5-23.3 2.1s7.5-29.8 15.5-31.9c8.1-2.1 25.4 5.8 29.2 20.2m-22.8-30.4c4.5 0 8.1-5 8.2-11.1 0-6.2-3.6-11.2-8-11.2-4.5 0-8.1 5-8.1 11.1-.1 6.1 3.5 11.1 7.9 11.2m-16.7 4.4c3.9-2.2 4.5-8.3 1.5-13.7-3.1-5.4-8.7-7.9-12.6-5.7s-4.5 8.3-1.5 13.7c3.1 5.3 8.7 7.9 12.6 5.7m-11.3 5c-3.8-3.9-9.2-4.8-12-2s-2 8.2 1.9 12.1 9.2 4.8 12 2 1.9-8.2-1.9-12.1m49.9-18.3c-3.8-1-8.1 2.4-9.5 7.7s.5 10.4 4.3 11.4 8.1-2.4 9.5-7.7c1.4-5.2-.5-10.3-4.3-11.4m645.8-1006.1c-3.4 16.3-12.2 1.9-26.2-1s-27.8 6.8-24.4-9.5 22.4-26.1 31.4-24.2c9.2 1.8 22.6 18.4 19.2 34.7m-7.6-41.8c4.5 2.2 10.6-.9 13.7-7.1s2-13-2.4-15.2c-4.5-2.3-10.6.9-13.7 7.1-3.2 6.1-2.1 12.9 2.4 15.2m-18.9-4c5-.3 8.7-6.1 8.3-13s-4.7-12.3-9.7-12-8.7 6.1-8.3 13c.3 6.9 4.7 12.3 9.7 12m-13.9-.6c-1.9-5.8-6.9-9.4-11.1-8s-6 7.2-4.1 13 6.9 9.4 11.1 8c4.2-1.3 6-7.2 4.1-13m59.1 6.6c-3.3-2.9-9.3-1.6-13.3 2.9-4.1 4.6-4.7 10.6-1.4 13.6 3.3 2.9 9.3 1.6 13.3-2.9 4-4.6 4.7-10.6 1.4-13.6" class="st0"/><path d="M1035.2 810.6c-1.9 2.6-4.4 5.2-6.8 7.9-1.1-5.9-2.6-12.6-3.6-17.2-1.4-6.4-2.2-14.7-3.9-16.1l-1.8.3c-1.6 1.5.8 11.8 2 19.2.7 4.6.7 9.9 1.1 15-3.8-2.4-7.9-4.8-10.8-6.7-4.3-2.8-9-7.1-10.8-6.9l-.9 1.2c-.1 1.7 7.1 6.2 11.8 9.6 4 2.9 7.8 7.4 12.2 10.2.4.2.8.3 1.2.4.6.2 1.2.4 1.8.3q1.05-.15 1.8-.9c.3-.2.6-.4.8-.7 3.2-4.4 6.6-11 9.3-15.2 2.8-4.3 7.6-9.3 7.4-11l-1.2-.9c-1.7-.2-6.2 6.9-9.6 11.5m46.7-47c-3 1.2-6.5 2-9.9 3.1 2.2-5.6 4.4-12 6.1-16.5 2.3-6.1 6-13.7 5.3-15.7l-1.7-.7c-2.1.4-5.6 10.5-8.5 17.3-1.8 4.3-4.7 8.8-7.1 13.3-1.9-4-4.2-8.3-5.6-11.4-2.2-4.6-3.9-10.9-5.4-11.6l-1.4.5c-1 1.4 2.7 9 4.8 14.4 1.8 4.6 2.7 10.4 4.9 15.1.2.4.5.7.8.9.3.5.8 1 1.4 1.2.7.3 1.4.3 2 .2.4 0 .7 0 1.1-.1 5-2 11.4-5.9 15.9-8 4.6-2.2 11.4-3.8 12.2-5.4l-.6-1.4c-1.4-.9-8.9 2.7-14.3 4.8" style="fill:#1e120d"/><path d="M49.9 279.6c4.5 10.4 2.3 28.7-8.1 33.1-4.2 1.8-8.7 2.1-12.8 1.1 0 0 31.1 48.9 52.6 39.7s7.5-65.5 7.5-65.5c-2.1 3.7-5.4 6.7-9.6 8.5-10.4 4.6-25.1-6.5-29.6-16.9" class="st0"/><path d="m61.9 307.7 15.1 36 3-33.4m-29.1 14.8L77 343.7m919.4 1433.1c-1.4 7.8-9.6 17.6-17.4 16.2-3.1-.6-5.8-2.1-7.9-4.3 0 0-.6 40.4 15.5 43.3 16 2.8 29.4-35.3 29.4-35.3-2.6 1.3-5.7 1.9-8.9 1.3-7.7-1.4-12-13.4-10.7-21.2" class="st0"/><path d="m992.7 1797.7-5 26.7 14.5-18.3m-22.5-2.5 8 20.8m100.6-76.6c-4.1 6.8-15.3 13-22 9-2.7-1.6-4.7-4.1-5.8-6.8 0 0-14.9 37.6-.9 45.9 14 8.4 40.1-22.5 40.1-22.5-2.9.3-6-.3-8.7-1.9-7-4.1-6.8-16.9-2.7-23.7" class="st0"/><path d="m1077.4 1766-14.2 23.2 20.1-11.9m-20.3-10.4.2 22.3m-26.3 73c-4.1 6.8-15.3 13-22 9-2.7-1.6-4.7-4.1-5.8-6.8 0 0-14.9 37.6-.9 45.9 14 8.4 40.1-22.5 40.1-22.5-2.9.3-6-.3-8.7-1.9-7-4.1-6.8-16.9-2.7-23.7" class="st0"/><path d="m1026 1880.4-14.2 23.2 20.1-11.9m-20.2-10.4.1 22.3m-257.7-89.2c-6.4-3.9-10-10.4-17.8-8-7.5 2.3-6.7 9.5-9.7 16-2.7 5.8-10.3 9.3-7.7 17.6 3.1 9.9 16.3 12.1 30.4 7.7s23.7-13.8 20.6-23.6c-2.4-7.7-10.7-6.6-15.8-9.7m3.9-14.2c-.7 5.1.9 8.8 5.5 7.4 4.5-1.4 7.1-6.3 5.6-10.8-1.4-4.5-3.9-13.4-8.5-19.7 3.6 12.1-2 18.4-2.6 23.1m-42.5 13.5c-2.8-3.8-14.5-7.6-16.4-17.3-1.3 5.1 2.8 16.5 4.2 21s6.3 7.1 10.8 5.7c4.6-1.5 4.2-5.6 1.4-9.4m29.2-19.4c4.5-1.4 4.6-5.3 3.2-9.8s-10.4-16.6-13.2-18.3c6 13.1 1.3 16.6 1.4 21.3.1 5.1 4.1 8.2 8.6 6.8m-21.5 6.9c4.5-1.4 6.1-6.7 3.6-9.9-2.9-3.8-12.4-5-12.5-18.6-3.8 5.1-2.3 18.3-.9 22.8s5.3 7.1 9.8 5.7m-306-882.3c0 4.5-5.1 6.3-11.3 6.3s-11.3-1.8-11.3-6.3 5.1-8.2 11.3-8.2 11.3 3.7 11.3 8.2m19.8-19.8c0 3-2.6 3.4-5.8 3.4s-5.8-.4-5.8-3.4 2.6-5.5 5.8-5.5 5.8 2.5 5.8 5.5M48.5 596.9c0 4.5-5.1 6.3-11.3 6.3s-11.3-1.8-11.3-6.3 5.1-8.2 11.3-8.2 11.3 3.7 11.3 8.2m19.9-19.8c0 3-2.6 3.4-5.8 3.4s-5.8-.4-5.8-3.4 2.6-5.5 5.8-5.5 5.8 2.5 5.8 5.5M285 1830.2c0 4.5-5.1 6.3-11.3 6.3s-11.3-1.8-11.3-6.3 5.1-8.2 11.3-8.2 11.3 3.6 11.3 8.2m19.9-19.9c0 3-2.6 3.4-5.8 3.4s-5.8-.4-5.8-3.4 2.6-5.5 5.8-5.5 5.8 2.5 5.8 5.5M38.5 952c0 4.5-5.1 6.3-11.3 6.3s-11.3-1.8-11.3-6.3 5.1-8.2 11.3-8.2 11.3 3.7 11.3 8.2m19.9-19.8c0 3-2.6 3.4-5.8 3.4s-5.8-.4-5.8-3.4 2.6-5.5 5.8-5.5 5.8 2.4 5.8 5.5M248 104.7c0 4.5-5.1 6.3-11.3 6.3s-11.3-1.8-11.3-6.3 5.1-8.2 11.3-8.2 11.3 3.6 11.3 8.2m19.9-19.9c0 3-2.6 3.4-5.8 3.4s-5.8-.4-5.8-3.4 2.6-5.5 5.8-5.5 5.8 2.5 5.8 5.5m634.9-17.1c0 4.5-5.1 6.3-11.3 6.3s-11.3-1.8-11.3-6.3 5.1-8.2 11.3-8.2 11.3 3.7 11.3 8.2m19.9-19.8c0 3-2.6 3.4-5.8 3.4s-5.8-.4-5.8-3.4 2.6-5.5 5.8-5.5c3.1 0 5.8 2.4 5.8 5.5M482.8 1975.7c0 4.5-5.1 6.3-11.3 6.3s-11.3-1.8-11.3-6.3 5.1-8.2 11.3-8.2c6.3 0 11.3 3.7 11.3 8.2m19.9-19.8c0 3-2.6 3.4-5.8 3.4s-5.8-.4-5.8-3.4 2.6-5.5 5.8-5.5 5.8 2.5 5.8 5.5m570.2-602.6c0 4.5-5.1 6.3-11.3 6.3s-11.3-1.8-11.3-6.3 5.1-8.2 11.3-8.2 11.3 3.7 11.3 8.2m19.8-19.8c0 3-2.6 3.4-5.8 3.4s-5.8-.4-5.8-3.4 2.6-5.5 5.8-5.5 5.8 2.4 5.8 5.5m-312.4 120.4c0 4.5-5.1 6.3-11.3 6.3s-11.3-1.8-11.3-6.3 5.1-8.2 11.3-8.2 11.3 3.7 11.3 8.2m19.9-19.8c0 3-2.6 3.4-5.8 3.4s-5.8-.4-5.8-3.4 2.6-5.5 5.8-5.5 5.8 2.5 5.8 5.5m9.9-567.1c0 4.5 5.1 6.3 11.3 6.3s11.3-1.8 11.3-6.3-5.1-8.2-11.3-8.2-11.3 3.7-11.3 8.2M779 883.8c0 3 2.6 3.4 5.8 3.4s5.8-.4 5.8-3.4-2.6-5.5-5.8-5.5-5.8 2.5-5.8 5.5M316.8 2380.9c0 4.5 5.1 6.3 11.3 6.3s11.3-1.8 11.3-6.3-5.1-8.2-11.3-8.2-11.3 3.7-11.3 8.2m-31.2 16.8c0 3 2.6 3.4 5.8 3.4s5.8-.4 5.8-3.4-2.6-5.5-5.8-5.5c-3.1 0-5.8 2.4-5.8 5.5M868.4 535.1c0 4.5-5.1 6.3-11.3 6.3s-11.3-1.8-11.3-6.3 5.1-8.2 11.3-8.2c6.3 0 11.3 3.7 11.3 8.2m19.9-19.8c0 3-2.6 3.4-5.8 3.4s-5.8-.4-5.8-3.4 2.6-5.5 5.8-5.5 5.8 2.5 5.8 5.5M388 410.6c0 5 5.5 6.9 12.4 6.9s12.4-2 12.4-6.9-5.5-9-12.4-9-12.4 4-12.4 9m23.8-26.5c0 2.5 2.8 3.5 6.2 3.5s6.2-1 6.2-3.5-2.8-4.5-6.2-4.5-6.2 2-6.2 4.5m-38.2-3.8c0 3.8 3.3 4.4 7.4 4.4s7.4-.5 7.4-4.4c0-3.8-3.3-7-7.4-7s-7.4 3.2-7.4 7M881 1793.1c0 5 5.5 6.9 12.4 6.9s12.4-2 12.4-6.9-5.5-9-12.4-9-12.4 4.1-12.4 9m23.8-26.5c0 2.5 2.8 3.5 6.2 3.5s6.2-1 6.2-3.5-2.8-4.5-6.2-4.5-6.2 2-6.2 4.5m-38.2-3.8c0 3.8 3.3 4.4 7.4 4.4s7.4-.5 7.4-4.4-3.3-7-7.4-7c-4.1.1-7.4 3.2-7.4 7m-735.9-295.3c0 5 5.5 6.9 12.4 6.9 6.8 0 12.4-2 12.4-6.9s-5.5-9-12.4-9-12.4 4-12.4 9m23.8-26.6c0 2.5 2.8 3.5 6.2 3.5s6.2-1 6.2-3.5-2.8-4.5-6.2-4.5-6.2 2-6.2 4.5m-38.2-3.7c0 3.8 3.3 4.4 7.4 4.4s7.4-.5 7.4-4.4c0-3.8-3.3-7-7.4-7s-7.4 3.1-7.4 7m638.9 977.3c0 5 5.5 6.9 12.4 6.9 6.8 0 12.4-2 12.4-6.9 0-5-5.5-9-12.4-9s-12.4 4-12.4 9m23.8-26.6c0 2.5 2.8 3.5 6.2 3.5s6.2-1 6.2-3.5-2.8-4.5-6.2-4.5-6.2 2-6.2 4.5m-38.2-3.7c0 3.8 3.3 4.4 7.4 4.4s7.4-.5 7.4-4.4c0-3.8-3.3-7-7.4-7s-7.4 3.1-7.4 7M729 1624.1c0 5 5.5 6.9 12.4 6.9s12.4-2 12.4-6.9-5.5-9-12.4-9-12.4 4-12.4 9m23.8-26.6c0 2.5 2.8 3.5 6.2 3.5s6.2-1 6.2-3.5-2.8-4.5-6.2-4.5-6.2 2-6.2 4.5m-38.2-3.7c0 3.8 3.3 4.4 7.4 4.4s7.4-.5 7.4-4.4-3.3-7-7.4-7-7.4 3.1-7.4 7m-562 128.2s3.7-30.1-14.7-28.1c-9.2 1-4.1 18.8-4.1 18.8s-6.5-10.3-13-4.5 1.7 14 1.7 14-7.9-4.5-11.6 3.1c-3.8 7.5 9.1 15.2 9.1 15.2" class="st0"/><path d="M168.6 1733.8s-11.6-17.7-30.3-10-22.3 20.3-21.3 56.5" class="st0"/><path d="M125.4 1813.4s3.9-20.8-15.9-41.3-29.3-34.7-36.2-30.6 19.8 35.2 19.8 35.2-11-13.1-16.7-11c-5.6 2.1 15.2 25.7 15.2 25.7s-13.6-8.7-17.2-5.6 13.6 17.7 13.6 17.7-10.3-2.1-10 4.6 18.2 9.5 18.2 9.5-4.9 4.9-2.3 9.2c2.6 4.4 13.9 3.6 16.2-2.8" class="st0"/><path d="M182.2 1773.6s3.1 9.8 13.1 22.1 20.5 59.6-20 78.1c-40.6 18.5-89.6 2.1-116.3-55.5 0 0-32.1-7.4-30.8-16.7 1.3-9.2 22.3 3.1 22.3 3.1s-31.3-23.9-24.9-30.8 31.6 23.4 31.6 23.4-28-32.1-20.3-38.5 27.2 33.9 27.2 33.9-11.3-28-3.3-30c8-2.1 12.6 23.9 12.6 23.9" class="st0"/><path d="M203.8 1817.5s12.3-4.1 19.3-16.9c6.9-12.8 2.1-16.9-5.6-8.7 0 0 16-17.7 10.3-24.4-4.4-5.1-17.2 11-17.2 11s17.7-20.3 10-25.9c-8.3-6.1-25.9 16.9-30.6 35.4m-94 78.3s-4.3 9.9-15.1 21.2c0 0 18 4.2 21.3 18.1l-17.7-10.5s7.7 17.3 1.4 22.8l-8.7-22.2s-4 14.5-10.3 13.7c0 0-1.2-11 7.9-24.7s14.5-23.3 14.5-23.3m51.6 19.9s1.8 18.4 1.1 26.4 1.9 11.2 7 13.8c5.2 2.7 13 10.5 15.3 8.9s-3.5-10.3-11.7-13.8c0 0 23.8 5.8 24 .6s-15.3-8.6-24.5-7c0 0 16.4-6.4 14.9-9.3s-9.9-2-17.2 4.5c0 0-2.2-17-.8-23.5m1.6-145s.8 8.2-6.9 9.2-8.2-4.4-8.2-4.4m30.3 4.9s-.9 7.5-2.7 17.1 1.2 12.2 4.6 11.8 7.7-4.6 5.8-13.5c0 0 3.3 14.2 9.6 10.6s1.4-16.3-6.3-21.7m-9.8-9.6c-1.6-3.2.7-7 11.3-13.2s19-7.7 19-7.7-5.5 12.1-19.7 18.7c-8.9 4.1-9.8 3.9-10.6 2.2" class="st0"/><path d="M174.1 1741c8.9-.3 17.1 7.7 16.6 8.6 0 0-5.2 1.7-18.7.2-6-.7-7.2-3.6-5.8-7.7m26 50.2s2.6 6.7-3.3 10-12.8-9.2-12.8-9.2.3 16.2-6.7 16.9c-6.9.8-7.7-12.1-7.7-12.1s-2.1 10.5-8.7 10.8c-6.7.3-7.2-10-7.2-10s-3.1 9.2-10.5 10-11-12.2-11-12.2m64.4 34.7s-3.1 4.6-8.7 1.7m-11.7.2s-3.3 4.5-10.1 1m-12-1.2s-5.3 5.5-10.1-.5m45.9 15.4s-2.9 6.5-9.4.9m-17.5-1.2s-4.3 6.3-9.9.2m198.5 135.1c-2.2-1.3-6.4-19.6-18.5-10.9-15.3 10.9 2.4 19.6.5 22.2-1.8 2.6-9.9 7.7-6.5 16.2s13.5 5.6 13.8 10.5-6.2 14.9.8 20.9 14.1.8 16.8 5.1-.3 17.7 11.4 23.5 24.2-3.5 24.2-3.5 16.8-17.2 12-26.5-13.6-5.9-15.4-12.3 7-13.2-2.3-20.5c-9.2-7.3-17.3.3-19.9-5.3-2.6-5.5 5.9-9.8-1.3-17.9-7.4-8.2-15.6-1.5-15.6-1.5" class="st0"/><path d="M325.1 1974s40.8 83.5 80.1 102.2" class="st0"/><path d="M353.8 1982.1s-6.2 18.6-4.2 33c0 0-17.7-10.2-30.7-7.6m57.8-1.3s-8.5 15.7-7.7 37.5c0 0-17.6-12.1-37-6.7m59.6-2.3s-8.6 10.2-10 22.3c0 0-19.8-1.3-26.6 5m-143.1-481.7c-1.2-1-7.2 5.4-11 4.4-3.9-1-11.8-4.6-13.4-2.1-1.5 2.6 8.2 22.3 31.3 17.7 0 0 3.6-11.8-6.9-20" class="st0"/><path d="M210.6 1579.8s1.2-19.7 19-24.4c11.6-3.1 16.4 0 16.4 0s-3.6-9.5 0-11.8 4.9 6.9 4.9 6.9-.3-9 3.9-9.8c4.1-.8.3 15.2 4.9 19 4.6 3.9 21.8 19 10 41.9s-49.8 16.7-55 0" class="st0"/><path d="M242.2 1616.8s-2.8 29 32.1 30.6c34.9 1.5 40.1-23.9 37.7-37 0 0 10-9.8 6.7-16.2s-8 5.6-8 5.6-.3-9.5-4.4-9.2-2.6 12.3-2.6 12.3-19 4.1-34.2-1.3" class="st0"/><path d="M266.6 1628.6s5.4 9 20 8.2 10.5-10 3.9-9.5c0 0 6.7-2.6 4.1-6.7s-13.4 0-13.4 0m9.2 26.9 1 9.7s-18.9-4.1-21.1 1.1 11.7 4.2 11.7 4.2-13.3 5.7-10.7 10 14.1-3.7 14.1-3.7-8.1 9.4-3.1 10.6c5 1.3 15.6-14.6 16.1-18.9s-2.2-15.2-2.2-15.2m-40-.5-5.5 14.5s-12-13.7-15.8-9.9c-3.9 3.8 6 9.7 6 9.7s-13-2.5-13.3 2.6 14.4 4 14.4 4-7.3 6.6-3.5 9.4c3.7 2.8 16.6-7.8 18.5-11.3 1.9-3.4 6.2-16.9 6.2-16.9" class="st0"/><circle cx="241.9" cy="1582.8" r="10.5" class="st0" transform="rotate(-70.93 241.86 1582.841)"/><circle cx="239.3" cy="1582.3" r="3.3" transform="rotate(-70.93 239.262 1582.286)"/><path d="M71.1 1549.7c-2.7-3.1 6.7-14.9 11.6-13.6s7.2 7.7 13.9 7.7 10 5.1 7.7 10c-2.4 4.9-22.2 8.5-33.2-4.1" class="st0"/><path d="M98.8 1542.5s8.1-19.2-8.5-30c-8.2-5.4-17.7-7.7-17.7-7.7s6.7-2.6 4.6-5.6c-2.1-3.1-9.5.8-9.5.8s5.9-3.9 2.3-6.9-14.4 5.1-17.2 13.1c0 0-24.7 8.5-21.3 33.9 3.3 25.4 35.9 25.4 51.1 18" class="st0"/><path d="M55.7 1563s-5.9 33.4 33.1 37.2c39 3.9 43.4-32.6 43.4-32.6s12.1-3.9 11-7.7c-1-3.9-5.9-1-5.9-1s8.2-4.6 5.6-8.7-8.5 3.1-8.5 3.1 4.4-10.5.5-12.6-3.6 9-9.5 11.8-21.3 1.3-21.3 1.3" class="st0"/><path d="m71.1 1596.2-5.9 7.7s-11-15.9-16.2-13.6c-5.1 2.3 5.6 11 5.6 11s-13.6-4.9-14.6 0 12.8 6.9 12.8 6.9-12.3 1.3-9.5 5.6c2.8 4.4 21.3 0 24.7-2.8s8.7-12.6 8.7-12.6m27.3 2.1 5.1 14.6s-18-2.8-18.5 2.6 10.8 3.6 10.8 3.6-11.6 6.4-8.5 10.5 13.6-6.2 13.6-6.2-1.3 9.8 3.3 9.5 7.7-16.7 6.9-20.5c-.8-3.9-6.2-16.9-6.2-16.9m-23-22.1s13.1 10.3 20 5.6c6.9-4.6-6.9-8-6.9-8s12.3 5.1 15.9 1.5-6.2-7.7-6.2-7.7 9 1.8 9.2-2.3-8.2-3.9-8.2-3.9" class="st0"/><circle cx="53.6" cy="1535.1" r="10.5" class="st0" transform="rotate(-70.44 53.587 1535.126)"/><circle cx="56.1" cy="1536.8" r="3.3" transform="rotate(-70.44 56.105 1536.802)"/><circle cx="88.9" cy="1528.3" r="9.5" class="st0" transform="rotate(-70.44 88.924 1528.272)"/><circle cx="91.3" cy="1529.8" r="3" transform="rotate(-70.44 91.265 1529.776)"/><path d="M695.2 2292.9s-4.1-9.5 5.4-11.1 8.7 13 2.2 14.6" class="st0"/><path d="M665.9 2390.3s11.4 23.1 16.5 26.3c5.2 3.3 14.6 2.7 16-2.4 1.4-5.2-10-4.6-10-4.6s-1.1-2.4-11.4-23.6-5.2-42.9 1.1-46.4c6.2-3.5 6.2-9.2 6.2-9.2-9.2-2.7-7.9-12.5-7.9-12.5 6.8 5.4 17.1 2.2 17.1 2.2s6.2-8.4 8.1-18.2-7.9-8.1-7.9-8.1-9.8 4.1-19.8-.5-21.9-5.8-31.2 2.2c-7.6 6.5-7.6 21.2-7.6 21.2" class="st0"/><path d="M665.7 2382.4s1.1 23.9-12.8 36.9" class="st0"/><path d="M639.3 2414.4s15.5 8.1 23.9 9c0 0 1.9-9 7.1-9.2s6.5 12.2 3 17.4-45.3-4.6-45.3-4.6m10.8-107.8s-12.2-7.6-15.5 2.2 13.3 7.3 13.3 7.3" class="st0"/><path d="M633.4 2330.1s-1.1 7.1-9 21.2-11.1 26.6-7.9 34.5c0 0-4.9 1.1-6.2-3.8 0 0 0 21.7 16.8 35.8 0 0-4.6 2.7-9.8 1.6 0 0 6 6.5 12.8 8.4 0 0-13.6 6-23.3-1.4 0 0 1.6 5.7 3.3 7.3 0 0-11.7 1.1-16.5-6.2l-1.9 5.7s-16.5 2.4-26-13.6l-3 5.2s-3.5-4.6-4.1-10.9l-4.3 3.3s1.6-2.2-2.2-11.7-6-21.2-6-21.2l-5.7 4.6s-2.2-10.9 4.6-20.6l-7.6.8s4.3-35.8 32.6-54.5c0 0-6.5.3-7.9-1.6s14.4-6.8 14.4-6.8-7.1-2.2-6.2-4.3c.8-2.2 19.8-4.9 19.8-4.9s9.2-10 25.5-18.4c0 0-6-1.9-5.4-4.1s9.8-1.4 9.8-1.4-6.5-5.4-4.6-6.2 10.3-.8 17.4 3.5c0 0 1.1-5.4 0-9 0 0 5.4 3.8 6.5 6.8l.8-7.9s8.1 4.1 10 10.6l4.3-9.5s3.3 3.5 3.3 9l5.4-7.1s2.7 7.6-1.6 15.5c0 0 5.4-5.7 13-4.1 0 0-8.7 5.7-8.4 14.6m-72.3 63.8-.6 6.8m-16 3.2-.8 7.1m-7.3-22.5-6.3 6.2m36.9-36.9-8.6 2.7m10-19.2 8.7 1.3m13-17.9 2.2 6.5m-60.5 104.5-3 6m16 0v7.8m14.1-8.7 1.9 7.4m17.9-60-2.4 8.4" class="st0"/><circle cx="658.6" cy="2309.2" r="9.5" class="st0"/><path d="M644.2 2301.6s-3.8 3.5-1.6 8.1m-13.3 13.3s4.9-2.4 7.9.5" class="st0"/><circle cx="660.6" cy="2305.8" r="3.1"/><path d="M744 1942.7c-10.4-6.3-27.8-13.3-34.6 4.4s-4.7 41.1 2.6 44.3 32.7 1.4 45-24.4c5.9-12.4-13-24.3-13-24.3" class="st0"/><path d="M733.5 1937.6c-8.6-4.2-9.8-13.2-9.8-13.2 11.2.4 18.6 9.3 18.6 9.3 1.4-7.6 10.7-10.6 10.7-10.6s1.8 6.8-1.9 13.4c0 0 9.6-1.2 17.5 4.3 0 0-3 4.2-11.6 4.1 0 0 8.2 4.8 8.6 10.9 0 0-7.1-.4-12.4-5.1m-32.5-7.3-.9 2.7m20.3 10.4-1.8 2.8m-7.8-9.1-1.9 2.9m20.4 9.4-1.9 2.9m-31.3-7.7-1 3m23.1 10.9-1.8 2.2m-8.1-9.2-1.8 2.2m-1 11.4-1.7 2.9m-7.9-8.3-1.7 2.9m-364.4 269.9c3.6 22.1 27.8 39.9 27.8 39.9 2.9 25 23.5 44.9 27.8 54.9s-15 48.5-15 48.5c-13.6 6.4-20 21.4-19.3 27.1s36.4 5 42.1-1.4 0-17.8 0-17.8c2.9-15 23.5-45.7 16.4-59.9-7.1-14.3-12.8-32.1-1.4-60.6s17.8-77-5-104.9c-22.8-27.8-42.8-26.4-81.3-23.5s-94.2.7-102-4.3c0 0-62.1-72-98.4-97.7 0 0 6.3-34-5.7-40.7-6.4-3.6-15.7 20-14.3 30m.8 91.3s23.1 33 37.8 82c2.1 7.1-2.6 41.5 35.7 60.6 4.3 2.1 27.4 69.5 37.3 127.1 0 0-12.8 20-8.6 27.8 4.3 7.8 32.1.7 35.7-8.6s-4.3-25-4.3-25-7.9-77.9-15.9-122.5c-.5-2.6-.9-5-1.4-7.4" class="st0"/><path d="M358.1 2269.2s-20.7 14.3-57.1 15-60.6-13.6-60.6-13.6m-60-11.1s14.4 72.8 9.4 130.2c0 0-12.1 10.7-12.1 23.5s28.5 7.8 34.2-4.3 1.8-50.1 4.7-81.5m215.7-65.4s-.7 24.3 16.4 37.1 17.1 33.5 15.7 84.2c0 0 6.3 12.6 2.1 25-1.4 4.3-35 5-39.2.7-4.3-4.3 17.8-25 17.8-25s-.7-35.7-7.8-52.8c0 0-15-15.7-15.7-22.1m-341-258.9s-16.1 20.7-17.5 37.5-26.4 43.9-23.5 56.7 23.2 26.8 38.2 21.8 32.8-35 49.6-42.1 29.2-21.8 28.5-36m-13.3-45.8s20.4-6.9 28.9-1.4c5 3.2-8.6 4.3-12.5 6.8 0 0 11.2-2 20.3 7.1 3.6 3.6-11.4 2.5-11.4 2.5s12.8 2.1 22.1 10.7-4.6 6.1-4.6 6.1 14.3 2.1 24.6 17.5-5.7 2.9-5.7 2.9 13.1 5.9 21.4 22.5c2.9 5.7-2.9 2.5-2.9 2.5s12.5 5 16.8 14.3 1.4 10.7 1.4 10.7m-117.3-106.1s-6.4-12.5-20-12.5-22.4 6.7-25.7 15c-1.4 3.6 16.4-8.9 26.8-8.2" class="st0"/><path d="M118.7 2041.6s-9.3-2.1-15 5.7-9.6 21.4-13.6 21.4-2.5-26 15.3-31.4" class="st0"/><path d="M92 2035.5s-13.6 7.1-11.4 23.2c1 7.4 7.7-7.5 13.4-12.8m-7.9-15.7s-10.2-20.7-23-20.7c-1.8 0-10 22.8 15.2 43.3m-27.9 63s10-15.2 18.2-12.7 2.1 26.6 9.1 28.9 21-4.5 20.7 17.5" class="st0"/><path d="M58 2149.7c1.5 2.7 14.4-6.3 9.5-11.7-5-5.4-12.9 5.6-9.5 11.7"/><path d="M83.3 2147.2s-1.9 13.4-20.1 18.7" class="st0"/><circle cx="113.8" cy="2080.3" r="12.6" class="st0"/><path d="M58.4 2134.1s6.4-6.2 11.5-1.9 3.7 10.2 3.7 10.2m-5.3-71.9s-8.3-.9-11 9.3 4.7 12.5 4.7 12.5m127.7 297.4s0 6.5 8.3 7 16.3-4.5 16.3-4.5m18.5 4.1s1.3 4.5 8.3 4.2 14.7-8.6 14.7-8.6m134.4-2.9s-.1 4.5 6.1 6.4 16.8 1.4 16.8 1.4m32-12.8s1.4 3.4 8.1 3.1 11.1-3.8 11.1-3.8m-46.7-217.9s13.9-13.9 31-10.2 43.9 23 65.3 13.9 21.4-27.8 17.1-36.4c0 0 20.9 25.7-10.2 54.6" class="st0"/><path d="M426.2 2174.5s19.8-3.7 27.8 7.5 24.1 47.1 61.5 32.6c37.5-14.4 30-52.4 30-52.4s2.1 10.7-15.5 16.6" class="st0"/><path d="M423 2171.4s20.9-11.9 37.5 3c16.6 15 21.9 36.9 49.8 31 27.8-5.9 34.8-36.4 34.8-36.4" class="st0"/><circle cx="117.7" cy="2080.3" r="3.9"/><path d="M292.1 2284.1s-6.8-20 7.5-50.6c0 0-4.6 29.6 7.8 50.3m-3.5-134.1s-7.1 8.2-5.7 23.2 3.9 35.7-3.6 49.6c0 0 0-20.7-5.7-37.5s-2.1-36.4-2.1-36.4m37 1.1s-15.7 24.6-15.3 66.3c0 0 12.1-51.4 35.7-68.5m-76.4.7s-8.2 21.4-.4 36.4 14.3 28.9 10 48.5-4.3 34.2 0 41.7c0 0-16.3-6.6-12.1-42.8 1.8-15.3-9.3-31.7-14.3-48.5s-3.6-31.7-.7-36.7m122.4 0s-30.3 7.8-43.5 43.2c-13.2 35.3-10 61.3-8.2 63.8s6.8-50.6 39.6-78.1 41-22.1 41-22.1m13.5 10.3s-48.5 15-58.5 67.8c0 0 34.6-58.1 69.9-53.5m-71.6 83.8s15.7-51.4 81.7-56" class="st0"/><path d="M360.2 2267.4s20.3-47.1 78.1-48.2m-68.8 58.9s11.1-33.2 66.3-31" class="st0"/><path d="M373.1 2280.9s18.9-22.8 60.3-20.3m-54.6 29.6s16.4 5.4 46-5.7m-44.6 15s19.6 6.8 41.4-2.5m-25.4 28.5s11.4-4.6 26.4-4.3m-19.2 14.3s8.9-5.4 23.9-3.2m-96.7-52.4c-5-26.8 6.8-42.1 6.8-42.1s-2.9 23.5 3.9 38.5m-98.1-130.6s-8.6 29.2-2.1 49.6c6.4 20.3 14.1 27.2 10 57.1-1.4 10.3 3.6 18.5 3.6 18.5s-11.8-5-11.4-30.3-12.1-31.7-13.2-54.6c-1.1-22.8 6.8-44.9 6.8-44.9m-63.2 110.2s1.4-12.5 20-30.3c18.5-17.8 19.3-25 25-22.8 5.7 2.1 4.3 41.7 13.9 53.1 0 0-11.4-5.4-16.4-22.5s-29.6 10.7-32.8 32.1m-20.8-39.2s40.3-18.2 69.2-86" class="st0"/><path d="M222.5 2125.4s-10.7 51.7-61.3 91m40.7-113.8s1.1 51-44.9 94.5m37.7-102s-8.9 54.6-41.4 92m30.7-102.3s-10 48.5-44.2 71.3m39.6-76.7s-17.8 44.2-44.9 65.6m61.3 108.8c-2.4-2.7 8.9-12.8 13.2-12.8s12.1 13.9 11.1 16.1c-1.1 2.1-7.5-3.6-12.8-3.9s-9 3.5-11.5.6m9.6 18.6c-.6-2.8 25.3-3.6 26.8 2.5 1.4 6-25.7 2.5-26.8-2.5m3.2 24.6s21.8-7.1 35-1.8m-32.1 11.8s16.1-5.4 33.9-2.5m-30 14.6s15.7 4.3 31.4 0m-24.6 20s17.5 1.1 26.4-7.1m-23.9 20.3s15 3.9 26.4-.4m-22.5 18.2s14.2 5 24.2-1.4m-64.5-56.4s14.3-.4 24.3 2.1m-26.8-24.2s9.6 2.1 19.3.7m-15 39.2s14.6-1.1 25 2.9m-23.9 8.6s14.6 2.9 24.3 0m-24.3 23.5s12.8 5 23.5-.7m190.1-10s11.8 3.9 24.6-1.4m-27.1 7.5s8.9 5.4 24.6 1.1m.4-43.9s6.8-15 22.8-16.4m-20 21s13.2-10 29.6-8.6m-17.4 35.7s12.5 2.1 22.8-3.2m-21.8 12.5s12.1 3.6 21.8-.4m-43.2-190.1s11.1-10.3 27.8-5.4 24.3 16.6 42.1 28.2c8.2 5.4 17.8 2.5 17.8 2.5m-378.4-154s-2.9-9.3 3.2-22.5M79 2039.5s-.9-5.4-8.7-13.6M849 2205.4s-19.9 16.7-39.8 28.5-15.6 23.1-12.4 29.6 28.5 45.7 29.6 58.7c1.1 12.9.8 25.6 8.3 28.8 0 0 19.1-9.7 15.9-26.4 0 0-4.3-7.3-10.8-11.6 0 0-21-37.7-23.1-46.3 0 0 5.4-5.9 4.8-16.1 0 0 33.4-6.5 46.3-2.7m39.4 155s7.5 7 19.4-1.6" class="st0"/><path d="M826.4 2322.2s7.5 7.5 13.5-9.1m91.5-60.9s33.7 13.3 69.8-2.9" class="st0"/><path d="M897.1 1971.9s-6.1 56.5 16 106 42 62.4 42 62.4 81.3 10.2 95.3 46.8 0 73.7 7.5 94.7 16.7 16.7 14.5 31.8-7.5 84-5.4 93.6c2.2 9.7 4.8 19.9-4.8 22.1-9.7 2.2-22.1-1.1-22.1-1.1s.5-10.2 8.1-21c0 0 13.5-78-14.5-107.6s-38.7-68.9-38.7-68.9" class="st0"/><path d="M964.7 2257.9s12.9 31.5 31.8 51.9c18.8 20.4 4.3 97.9 4.3 97.9s-8.1 7.5-8.6 19.4c0 0 18.8 4.8 26.9-3.2l-.5-15.6s11.3-77.5 5.4-93.6-14.5-19.9-8.6-37.7" class="st0"/><path d="M1000.8 2407.8s3.2 5.9 17.8.5m29.5-1.1s5.7 5.7 18.8 0m-205-459c2.7 8.6 19.9 24.2 43.1 23.7 23.1-.5 44.7 8.6 53.3 4.8s16.7-14.5 12.4-23.7c-4.3-9.1-47.4-45.6-59.7-53.3l-8.6-5.4s-2.7-13.5 0-21 9.7-12.4 4.3-19.9-20.4-4.3-21 4.3c-.5 8.6 4.8 8.6 4.3 15.6s-1.6 18.3-1.6 18.3-8.6-1.1-17.8 2.7c0 0-3.8-16.1-1.6-22.6s5.9-11.8 3.2-16.7c-2.7-4.8-22.6-4.8-21 7.5 1.6 12.4 4.8 7.5 5.9 16.7s0 22.6 0 22.6-8.1-12.4-22.1-18.3-23.7-3.8-23.7-3.8 0 23.1 15.6 31.8 21 3.8 21 3.8-26.9 46.3-21.5 127.5c5.4 81.3 11.3 80.2 10.2 87.2s-10.2 53.8 23.1 85c0 0 3.3 36.5 35 84 3.2 4.8 15.1 71 12.4 103.9 0 0-9.4 17.2-5.9 23.1 3.4 5.8 27.4 2.4 29.1-5.1 1.6-7.5-3.8-19.6-3.8-19.6s-2.7-61.9 2.2-98.5c4.8-36.6 1.1-68.9 1.1-68.9" class="st0"/><path d="M903.4 1891.2s11.8-19.9 39.3-17.2c0 0 0 19.4-23.7 30.1m-97.4-10.8s18.8 0 28 15.1" class="st0"/><path d="M913.1 1901.4s3.2-10.8 18.3-16.7m17.2 68.3s2.2 7.5 13.5 9.7c0 0 8.6-2.7 8.6-9.7m-14.6 24.3s8.1-5.9 5.9-14.5m-33.3-3.8s-2 14.4 11.5 17m-89.6 62.6c6.1-2.2 20.4 4.3 22.1 10.8s1.1 24.2-2.7 28-26.9-2.7-28.5-13.5 3.2-23.1 9.1-25.3m7.8-23.3c4.6 4.6 15.1 11.8 20.4 7 5.4-4.8 6.5-25.8 2.7-29.1-3.8-3.2-16.1-7.5-19.4-3.8-3.2 3.8-5.9 23.7-3.7 25.9m-20.7-54.2c6.3-3.1 14 1.6 16.1 4.8 2.2 3.2 0 18.3-4.3 21s-15.1-4.3-15.1-8.1 2.3-17.2 3.3-17.7m50.1 129.7c3.8-1.1 21 15.1 21.5 18.8s.5 21-2.2 24.2-18.8 6.5-23.7 4.3c-4.8-2.2-9.1-18.8-9.1-24.2 0-5.3 9.7-22 13.5-23.1m-54.9 14c2.2 0 17.2 2.7 19.9 7.5s5.9 23.1 3.2 25.8-20.1 2-20.1 2m66.4-93.4s-11.8 5.9-12.9 9.7 4.8 19.9 7.5 22.6 17.8 3.8 17.8 3.8m-46.8 74.7c5.5-1.8 21 1.6 23.7 5.9s6.5 23.1 4.3 26.4c-2.2 3.2-19.9 7.5-24.8 5.4-4.8-2.2-13.5-15.6-14-20.4-.5-4.9 7.5-16.2 10.8-17.3m53.2-.5c3.2-4 19.9 0 23.1 4.3s5.4 27.4 2.7 30.1-19.9 6.5-22.6 3.2c-2.7-3.2-15.1-18.3-14-22.1 1.2-3.7 8.7-12.8 10.8-15.5m51.7 26.4c2.6-3.9 20.4 4.3 22.1 8.6 1.6 4.3-1.6 13.5-5.4 13.5s-20.4-2.7-21-7.5c-.5-4.9 3.2-13 4.3-14.6m-78 26.3c5.5 0 15.1 26.9 11.3 29.6s-18.8 3.8-19.4-.5c-.5-4.3-4.3-19.9-2.7-22.1 1.6-2.1 9.2-7 10.8-7m81.2-65.1s-2.2 15.6 1.1 18.8 16.1 5.9 20.4 4.3 10.2-14 10.2-14m1.2 25.4c3.8-3.2 18.8-5.4 21.5-1.6s6.5 14 4.8 17.2c-1.6 3.2-11.3 9.1-16.1 8.6s-11.3-5.4-12.9-9.1 2.7-15.1 2.7-15.1m5.3 46.2c3.8-3.2 19.4-2.7 21 .5s5.9 17.2 2.7 19.4-13.5 8.6-16.7 7.5-12.4-10.2-12.4-13.5c.1-3.1 5.4-13.9 5.4-13.9m-77.4-14.5c4.8-3.2 17.2-5.4 19.4-1.6s5.9 16.1 2.7 17.8c-3.2 1.6-16.1-1.1-18.3-3.2s-3.8-13-3.8-13m-5.4-96.3s-7 13.5-4.8 18.3 8.1 9.1 11.8 9.7c3.8.5 9.7-7 9.7-7m-121.7-136.9c4.8 3.2 14.5 7.7 16.1 10.9s.5 12.9-.5 15.1-15.6 7.5-15.6 7.5m56.5 226.1c5.4-2.2 14.5-.5 16.7 1.6 2.2 2.2 4.3 12.9.5 14.5s-12.9 1.1-14.5-2.2c-1.6-3.2-2.7-13.9-2.7-13.9m26.4-5.4c-1.3-3.9 10.8-4.3 12.4-2.2 1.6 2.2.5 12.4-2.2 13.5s-9.7-9.7-10.2-11.3m127 8.6c2.2-2.7 9.1 2.7 10.2 5.9s-10.2 10.8-12.9 8.6c-2.7-2.1 2.7-14.5 2.7-14.5m5.9-58.7c-2.2-2.2-5.9 5.9-3.8 9.1 2.2 3.2 7.5 1.6 9.7 1.1s-3.7-8-5.9-10.2m-179.7 21.4s9.7 2.2 11.1 5.4 1.4 8.6.7 10.4-6.5 4.3-6.5 4.3m108.1-26.2c-2.4 0-3.9 7.5-2.2 10.4 1.8 2.9 9.7-.7 11.1-2.9s-7.1-7.5-8.9-7.5" class="st0"/><circle cx="885" cy="1925.3" r="15.4" class="st0" transform="rotate(-77.83 885.024 1925.334)"/><circle cx="882.5" cy="1930.3" r="5" transform="rotate(-77.83 882.535 1930.265)"/><path d="M965.5 2235.6c1.6-.4 6.2 8.1 5.7 10.2s-11 1.1-11.6-1.6c-.5-2.7 4.9-8.4 5.9-8.6m-122.1-13.5c0-2.5 10.5 4.8 11 6.7s-7.8 7.8-10 7c-2.1-.8-1-12.9-1-13.7m-14.5 7.5s5.9 0 5.9 4.8-6.7 6.7-8.3 4.6c-1.7-2.1 2.4-9.4 2.4-9.4m153.3 38c-.7-3.6 11.6-4 13.2-4s2.4 7.8 0 10.8c-2.4 2.9-12.6-4.1-13.2-6.8m10.3 19.6c1.6-2.2 9.1-3.8 10.2-3.5s.5 8.6-.5 10-9.7-6.5-9.7-6.5m-254.3-178.6s-19-36.9 17.9-58.2c0 0 24.6 34.7-17.9 58.2" class="st0"/><path d="M798.5 2112.7s-27.9 32.1-60.8-3.7c0 0 31.5-27.2 60.8 3.7m-84.8-24.4s11 15.4 22.7 18.4c0 0-41.3 10.2-47.6-38 0 0 41.3-4.2 47.6 38" class="st0"/><path d="M746.2 2169.3s-37-21-8.4-60.3c0 0 32.8 25.4 8.4 60.3" class="st0"/><path d="M684.8 2141.5s3.9-42.4 51.4-32.6c0 .1-9.6 40.5-51.4 32.6m61.3-61.4s-9.8 14.8-7.6 27.1m2.6 2.9s16.1-5 28.4 2.2M737 2111s7.6 18.3 3.2 30.9" class="st0"/><path d="M733.2 2109.7s-13.9 13.9-25.6 15.1m-413.2-241.6s-3.5 17.4-21.1 22.7-40.9 23.9-18.8 44.1c22 20.2 44.7.4 45.3-19.7.4-20.1-9.9-34.6-5.4-47.1" class="st0"/><path d="M290.8 1895.1s-1.2 17.3-18.8 35.6c-17.6 18.4-31 28.4-28.7 49.8" class="st0"/><path d="M265.7 1939.3s19.3 5.5 32.4-1.7m-18.2-14.3s7.7 2.4 18.9-.6m-38.2-10.8s-3.8 12.7 3.8 26.3m837.4-846s-7.1 7.1-17 4c-9.9-3-26.7-1.6-22.7 14.8s20.9 14.2 27.5 4.9 6.2-19.2 12.2-23.7" class="st0"/><path d="M1096.4 1096.6s-6 7.7-20 10.9c-14 3.1-23.5 3.6-29.1 14.4" class="st0"/><path d="M1070.7 1109.5s6.4 7.6 17.3 6.8m-8.9-20.4s-8 3.9-8.7 12.7m-61.1 905c-4.3-9.2 10.9-20.4 20.4-10.4 9.4 10-12.8 26.5-20.4 10.4" class="st0"/><path d="M1023.3 2020.1s4.9 21.8 14.1 18.7-1-17.5-8.7-22.6" class="st0"/><path d="M1042 2035.3s20.7 10.9 21.3 46.7c0 0-27.8-6.9-29-41.4M1024 2025s-39.6-.5-51.9 5.3c-15.7 7.5-8.9 25 7.7 21.7 19.3-3.8 46.6-22.1 45.7-21.9m11-7.2s35.7-17.2 44-27.9c10.7-13.8-3.2-26.3-16.6-16-15.5 12-31.9 40.6-31.1 40" class="st0"/><path d="M1040 2028.6s37.8 2.8 50.4-2.3c16.2-6.5 7.1-23.3-9.8-22.9-6.7.2-12.7 2.1-12.7 2.1m-39.1 29.9s-17.4 33.7-28.3 41.7c-14 10.4-25.1-7.3-14.3-20.4 7.3-8.9 12.4-11.1 12.4-11.1m39 9.3s8.5.3 14.1-7.6m-9.7 18.8s6.9 1.3 16.7-8m-38.8-59s-6.9-12.6-.5-17.7 11 2.1 7.7 6.2m-16.4 16.1s-4.6-9.2-12.1-10.3c-7.4-1-11 11-4.6 11.8" class="st0"/><circle cx="1015.6" cy="2009.9" r="2"/><circle cx="1022.6" cy="2006.6" r="2"/><path d="M969.1 2090.4s2.7 11.1 16.9 7m-22.1 2.6s3.1 10.1 15.2 7.2m112.2-143.3s-1.2-11.4-15.8-9.3m22.2.5s-1.7-10.4-14.1-9.2M822.8 77.6s8.6-7.5-1.5-18.3m12.3 18.5s7.6-7.4-.6-16.8m-167.7-6.7s-9.4 6.6-.5 18.3M654.5 53s-8.3 6.5-1.2 16.8" class="st0"/><circle cx="602.7" cy="2050.3" r="12.6" class="st0"/><path d="M595.2 2062.1s-8.2 10.7-31.3 17.7-33.8-3.3-31.3-7.8c2-3.6 24-2.2 44.4-8.7 5.1-1.6 10-3.7 14.5-6.5" class="st0"/><path d="M580.9 2062s17.1-19.8 16.1-48-43.4-22.3-40.6 4.6" class="st0"/><path d="M572.8 2064.1s-18.9 3.7-42.4-13.9c-19.7-14.8-15.7-33.9-.3-41.1s24.7 7.4 24.7 7.4c10.6 13.9 16.2 32.7 18 47.6" class="st0"/><path d="M521.3 2041c-5.4-1.3-13.9.3-15.2 11.6s15.4 17.7 40.8 16.2m-11.9-45.5c-5.6 4.3 2.9 17.6 9.9 13.9 7-3.8-1.5-20.4-9.9-13.9m41.2-13.2c9.8-.2 9.8 19.5 0 18.5s-10.6-18.3 0-18.5m33.9 29.8s4.5-16.8 17-20.6c12.4-3.7 11.6 16.5-.2 12.3m-25.1 5.3s-2.1-8.2 2.6-24c5-17 20.2-4.6 13 1.7m-73.5 67.8s-.3 9.5-9.8 9.5m19.8-9.3s4.9 9-2.3 13.6m26.2-21.3s5.6 6.7 1 13.9m7.5-18.2s7.4 3.1 6.2 9.8m5.8-31.9.3 1.3m7.8-2.7.2 1.3m-66.4-19.4.5 1.2m35.2-11.2-.1 1.3m176.3-752.5c0 4.4-4.5 6.1-10.1 6.1s-10.1-1.7-10.1-6.1 4.5-7.9 10.1-7.9 10.1 3.5 10.1 7.9m-564.7-205.7c0 4.4-4.5 6.1-10.1 6.1s-10.1-1.7-10.1-6.1 4.5-7.9 10.1-7.9c5.6-.1 10.1 3.5 10.1 7.9m279.4 1016.8c0 4.4-4.5 6.1-10.1 6.1s-10.1-1.7-10.1-6.1 4.5-7.9 10.1-7.9 10.1 3.5 10.1 7.9m38-482c0 4.4-4.5 6.1-10.1 6.1s-10.1-1.7-10.1-6.1 4.5-7.9 10.1-7.9 10.1 3.5 10.1 7.9M594 436.4c0 4.4-4.5 6.1-10.1 6.1s-10.1-1.7-10.1-6.1 4.5-7.9 10.1-7.9 10.1 3.5 10.1 7.9m152 1786.4c0 4.4-4.5 6.1-10.1 6.1s-10.1-1.7-10.1-6.1 4.5-7.9 10.1-7.9c5.6-.1 10.1 3.5 10.1 7.9m-242.2 55.4c0 4.4-4.5 6.1-10.1 6.1s-10.1-1.7-10.1-6.1 4.5-7.9 10.1-7.9 10.1 3.5 10.1 7.9m587.4-134.7c0 4.4-4.5 6.1-10.1 6.1s-10.1-1.7-10.1-6.1 4.5-7.9 10.1-7.9c5.5 0 10.1 3.5 10.1 7.9m-932.5-161.1c0 4.4-4.5 6.1-10.1 6.1s-10.1-1.7-10.1-6.1 4.5-7.9 10.1-7.9c5.5-.1 10.1 3.5 10.1 7.9m488.4-941.1c0 3.3-3.4 4.6-7.6 4.6s-7.6-1.3-7.6-4.6 3.4-5.9 7.6-5.9 7.6 2.6 7.6 5.9m-74.1-564c0 3.3-3.4 4.6-7.6 4.6s-7.6-1.3-7.6-4.6 3.4-5.9 7.6-5.9 7.6 2.6 7.6 5.9m534.7-35.6c0 3.3-3.4 4.6-7.6 4.6s-7.6-1.3-7.6-4.6 3.4-5.9 7.6-5.9 7.6 2.6 7.6 5.9m-390.3 797c0 3.3-3.4 4.6-7.6 4.6s-7.6-1.3-7.6-4.6 3.4-5.9 7.6-5.9 7.6 2.7 7.6 5.9m-160.9 87c0 3.3-3.4 4.6-7.6 4.6s-7.6-1.3-7.6-4.6 3.4-5.9 7.6-5.9 7.6 2.6 7.6 5.9M25.1 1136c0 3.3-3.4 4.6-7.6 4.6s-7.6-1.3-7.6-4.6 3.4-5.9 7.6-5.9 7.6 2.6 7.6 5.9m780-961.8c0 3.3-3.4 4.6-7.6 4.6s-7.6-1.3-7.6-4.6 3.4-5.9 7.6-5.9 7.6 2.6 7.6 5.9M619.8 19.8c0 3.3-3.4 4.6-7.6 4.6s-7.6-1.3-7.6-4.6 3.4-5.9 7.6-5.9 7.6 2.7 7.6 5.9M61.5 228.7c0 3.3-3.4 4.6-7.6 4.6s-7.6-1.3-7.6-4.6 3.4-5.9 7.6-5.9 7.6 2.6 7.6 5.9m158-166c0 3.3-3.4 4.6-7.6 4.6s-7.6-1.3-7.6-4.6 3.4-5.9 7.6-5.9 7.6 2.6 7.6 5.9" class="st0"/><path d="M433.6 1962.7c0 3.3-3.4 4.6-7.6 4.6s-7.6-1.3-7.6-4.6 3.4-5.9 7.6-5.9 7.6 2.6 7.6 5.9M285 1754.9c0 3.3-3.4 4.6-7.6 4.6s-7.6-1.3-7.6-4.6 3.4-5.9 7.6-5.9c4.2-.1 7.6 2.6 7.6 5.9m544.4 43.1c0 3.3-3.4 4.6-7.6 4.6s-7.6-1.3-7.6-4.6 3.4-5.9 7.6-5.9 7.6 2.6 7.6 5.9m-177 162c0 3.3-3.4 4.6-7.6 4.6s-7.6-1.3-7.6-4.6 3.4-5.9 7.6-5.9 7.6 2.6 7.6 5.9m56.8-225.9c0 2.4-2.5 3.3-5.5 3.3s-5.5-.9-5.5-3.3 2.5-4.3 5.5-4.3 5.5 1.9 5.5 4.3m-17.7 294.6c0 2.4-2.5 3.3-5.5 3.3s-5.5-.9-5.5-3.3 2.5-4.3 5.5-4.3 5.5 1.9 5.5 4.3m288.9-760.1c0 2.4-2.5 3.3-5.5 3.3s-5.5-.9-5.5-3.3 2.5-4.3 5.5-4.3 5.5 1.9 5.5 4.3m-98.3-316c0 2.4-2.5 3.3-5.5 3.3s-5.5-.9-5.5-3.3 2.5-4.3 5.5-4.3 5.5 2 5.5 4.3M453.6 838.8c0 2.4-2.5 3.3-5.5 3.3s-5.5-.9-5.5-3.3 2.5-4.3 5.5-4.3 5.5 1.9 5.5 4.3m66.4 394.4c0 2.4-2.5 3.3-5.5 3.3s-5.5-.9-5.5-3.3 2.5-4.3 5.5-4.3c3.1 0 5.5 1.9 5.5 4.3m199.4 1018c0 2.4-2.5 3.3-5.5 3.3s-5.5-.9-5.5-3.3 2.5-4.3 5.5-4.3 5.5 1.9 5.5 4.3M426.7 193.7c0 2.4-2.5 3.3-5.5 3.3s-5.5-.9-5.5-3.3 2.5-4.3 5.5-4.3 5.5 2 5.5 4.3M437 10.3c0 2.4-2.5 3.3-5.5 3.3s-5.5-.9-5.5-3.3 2.5-4.3 5.5-4.3 5.5 1.9 5.5 4.3m433.4 14c0 2.4-2.5 3.3-5.5 3.3s-5.5-.9-5.5-3.3 2.5-4.3 5.5-4.3 5.5 1.9 5.5 4.3M767.2 161.4c0 2.4-2.5 3.3-5.5 3.3s-5.5-.9-5.5-3.3 2.5-4.3 5.5-4.3 5.5 1.9 5.5 4.3M16.1 221.5c0 2.4-2.5 3.3-5.5 3.3s-5.5-.9-5.5-3.3 2.5-4.3 5.5-4.3 5.5 1.9 5.5 4.3m346.8 323c0 2.4-2.5 3.3-5.5 3.3s-5.5-.9-5.5-3.3 2.5-4.3 5.5-4.3 5.5 1.9 5.5 4.3M590 666.7c0 2.4-2.5 3.3-5.5 3.3s-5.5-.9-5.5-3.3 2.5-4.3 5.5-4.3 5.5 1.9 5.5 4.3M45 1688.3c0 3.3-3.4 4.6-7.6 4.6s-7.6-1.3-7.6-4.6 3.4-5.9 7.6-5.9 7.6 2.6 7.6 5.9m741.6-628.5c0 3.3-3.4 4.6-7.6 4.6s-7.6-1.3-7.6-4.6 3.4-5.9 7.6-5.9 7.6 2.6 7.6 5.9M603.8 692c0 3.3-3.4 4.6-7.6 4.6s-7.6-1.3-7.6-4.6 3.4-5.9 7.6-5.9 7.6 2.7 7.6 5.9M347 565.6c0 3.3-3.4 4.6-7.6 4.6s-7.6-1.3-7.6-4.6 3.4-5.9 7.6-5.9 7.6 2.6 7.6 5.9m343.7-29.4c0 3.3-3.4 4.6-7.6 4.6s-7.6-1.3-7.6-4.6 3.4-5.9 7.6-5.9 7.6 2.6 7.6 5.9M538 263.6c0 3.3-3.4 4.6-7.6 4.6s-7.6-1.3-7.6-4.6 3.4-5.9 7.6-5.9 7.6 2.7 7.6 5.9m341.7 46.6c0 3.3-3.4 4.6-7.6 4.6s-7.6-1.3-7.6-4.6 3.4-5.9 7.6-5.9 7.6 2.6 7.6 5.9m-375.5 890.2c0 3.3-3.4 4.6-7.6 4.6s-7.6-1.3-7.6-4.6 3.4-5.9 7.6-5.9 7.6 2.6 7.6 5.9M316.9 2345.5c0 3.3-3.4 4.6-7.6 4.6s-7.6-1.3-7.6-4.6 3.4-5.9 7.6-5.9 7.6 2.6 7.6 5.9M38.2 1970c0 3.3-3.4 4.6-7.6 4.6s-7.6-1.3-7.6-4.6 3.4-5.9 7.6-5.9 7.6 2.7 7.6 5.9m656.6 258.9c0 3.3-3.4 4.6-7.6 4.6s-7.6-1.3-7.6-4.6 3.4-5.9 7.6-5.9 7.6 2.6 7.6 5.9m419.5-50.7c0 3.3-3.4 4.6-7.6 4.6s-7.6-1.3-7.6-4.6 3.4-5.9 7.6-5.9 7.6 2.7 7.6 5.9M108.7 1302.1c0 3.3-3.4 4.6-7.6 4.6s-7.6-1.3-7.6-4.6 3.4-5.9 7.6-5.9c4.2-.1 7.6 2.6 7.6 5.9m105.8 711.8c0 3.3-3.4 4.6-7.6 4.6s-7.6-1.3-7.6-4.6 3.4-5.9 7.6-5.9 7.6 2.6 7.6 5.9"/><path d="M807.5 1363.5c4.1-3.2 6.9-7.5 2.5-11.9-6.6-6.7-12.9-1-14 7.4-2-5.4-5.6-10.4-11.5-6.9-8.5 5-3.9 12.9 4.7 15.8-6.1.5-12.7 2.6-10.6 9.7 2.7 9 10.9 7 15.8.1-1.6 5.7-1.7 12 5.3 12.6 9.2.8 10.5-7.3 6.2-14.3 4.9 2.5 10.5 3.6 12.6-2.7 2.7-8.2-3.7-11.5-11-9.8" class="st0"/><circle cx="798.8" cy="1368.9" r="3.2"/><path d="M328.1 1517c-.2-4.8-1.9-9.2-7.6-8.2-8.6 1.5-7.7 9.2-1.9 14.5-5.1-1.4-10.7-1.3-11.3 5-.8 9 7.6 9.8 14.4 4.9-2.9 4.9-4.8 11 1.7 13.1 8.2 2.7 11.1-4.5 8.4-11.9 3.4 4.2 8.1 7.7 12.3 2.7 5.5-6.5.1-11.8-7.5-12.2 4.5-2.4 8.3-6 4.7-10.9-4.7-6.5-10.6-3.4-13.2 3" class="st0"/><circle cx="327.6" cy="1526.4" r="2.9" transform="rotate(-54.783 327.62 1526.423)"/><path d="M259.9 2077.7c-.2-4.8-1.9-9.2-7.6-8.2-8.6 1.5-7.7 9.2-1.9 14.5-5.1-1.4-10.7-1.3-11.3 5-.8 9 7.6 9.8 14.4 4.9-2.9 4.9-4.8 11 1.7 13.1 8.2 2.7 11.1-4.5 8.4-11.9 3.4 4.2 8.1 7.7 12.3 2.7 5.5-6.5.1-11.8-7.5-12.2 4.5-2.4 8.3-6 4.7-10.9-4.8-6.5-10.6-3.4-13.2 3" class="st0"/><circle cx="259.3" cy="2087.2" r="2.9" transform="rotate(-54.783 259.345 2087.188)"/><path d="M30.3 1266.2c-.2-4.8-1.9-9.2-7.6-8.2-8.6 1.5-7.7 9.2-1.9 14.5-5.1-1.4-10.7-1.3-11.3 5-.8 9 7.6 9.8 14.4 4.9-2.9 4.9-4.8 11 1.7 13.1 8.2 2.7 11.1-4.5 8.4-11.9 3.4 4.2 8.1 7.7 12.3 2.7 5.5-6.5.1-11.8-7.5-12.2 4.5-2.4 8.3-6 4.7-10.9-4.7-6.5-10.6-3.4-13.2 3" class="st0"/><circle cx="29.8" cy="1275.7" r="2.9" transform="rotate(-54.783 29.756 1275.672)"/><path d="M75 768.6c-.2-4.8-1.9-9.2-7.6-8.2-8.6 1.5-7.7 9.2-1.9 14.5-5.1-1.4-10.7-1.3-11.3 5-.8 9 7.6 9.8 14.4 4.9-2.9 4.9-4.8 11 1.7 13.1 8.2 2.7 11.1-4.5 8.4-11.9 3.4 4.2 8.1 7.7 12.3 2.7 5.5-6.5.1-11.8-7.5-12.2 4.5-2.4 8.3-6 4.7-10.9-4.8-6.5-10.6-3.4-13.2 3" class="st0"/><circle cx="74.5" cy="778" r="2.9" transform="rotate(-54.783 74.452 778.03)"/><path d="M816 762.4c-.2-4.8-1.9-9.2-7.6-8.2-8.6 1.5-7.7 9.2-1.9 14.5-5.1-1.4-10.7-1.3-11.3 5-.8 9 7.6 9.8 14.4 4.9-2.9 4.9-4.8 11 1.7 13.1 8.2 2.7 11.1-4.5 8.4-11.9 3.4 4.2 8.1 7.7 12.3 2.7 5.5-6.5.1-11.8-7.5-12.2 4.5-2.4 8.3-6 4.7-10.9-4.7-6.5-10.6-3.4-13.2 3" class="st0"/><circle cx="815.5" cy="771.8" r="2.9" transform="rotate(-54.783 815.515 771.777)"/><path d="M1051.8 244.8c-.2-4.8-1.9-9.2-7.6-8.2-8.6 1.5-7.7 9.2-1.9 14.5-5.1-1.4-10.7-1.3-11.3 5-.8 9 7.6 9.8 14.4 4.9-2.9 4.9-4.8 11 1.7 13.1 8.2 2.7 11.1-4.5 8.4-11.9 3.4 4.2 8.1 7.7 12.3 2.7 5.5-6.5.1-11.8-7.5-12.2 4.5-2.4 8.3-6 4.7-10.9-4.8-6.5-10.7-3.4-13.2 3" class="st0"/><circle cx="1051.3" cy="254.1" r="2.9" transform="rotate(-54.783 1051.254 254.148)"/><path d="M626.5 147.7c-.2-4.8-1.9-9.2-7.6-8.2-8.6 1.5-7.7 9.2-1.9 14.5-5.1-1.4-10.7-1.3-11.3 5-.8 9 7.6 9.8 14.4 4.9-2.9 4.9-4.8 11 1.7 13.1 8.2 2.7 11.1-4.5 8.4-11.9 3.4 4.2 8.1 7.7 12.3 2.7 5.5-6.5.1-11.8-7.5-12.2 4.5-2.4 8.3-6 4.7-10.9-4.7-6.5-10.6-3.4-13.2 3" class="st0"/><circle cx="626" cy="157.1" r="2.9" transform="rotate(-54.783 626.002 157.065)"/><path d="M22.1 393.8c-4.1-2.5-8.7-3.5-11.1 1.8-3.5 7.9 3.4 11.5 11 9.6-4 3.5-7.1 8.2-2.1 12.2 7.1 5.6 12.4-.9 12-9.2 2.5 5.1 6.5 10.1 11.8 5.9 6.8-5.3 2.4-11.7-5.2-13.6 5.4-.5 10.9-2.5 9.1-8.7-2.4-8.2-9.7-6.7-14.3-.6.6-5.1-.4-10.2-6.5-9.9-7.9.2-8.6 6.8-4.7 12.5" class="st0"/><circle cx="29.5" cy="399.5" r="2.9" transform="rotate(-20.996 29.506 399.514)"/><path d="M456.5 1127.2c5.1-5.1 8.3-11.5 1.5-16.8-10.3-8.1-18 .7-18 12.5-3.7-7.1-9.4-13.3-17-7.5-10.8 8.3-3.2 18.4 9.1 20.9-8.3 1.7-17.1 5.8-13 15.1 5.3 11.9 16.2 7.8 21.8-2.5-1.2 8.1-.4 16.8 9.4 16.5 12.8-.4 13.3-11.8 6.1-20.7 7.2 2.7 15.1 3.2 16.9-5.8 2.4-11.8-7-15.3-16.8-11.7" class="st0"/><circle cx="445.5" cy="1136.1" r="4.4" transform="rotate(-6.915 445.48 1136.074)"/><path d="M1121.9 573.2c0 .9 0 1.7 3.1 1.8v-5.6c-1.8.5-3.1 2-3.1 3.8M6.7 1902.4c4.4-.1 7.3-1.7 8.6-4.4 1.6-3.6.2-9-3.6-13.8-.4-.5-.5-1.3 0-1.9.4-.6 1.1-.8 1.8-.5 5 1.9 9 2.1 11.4.7 1.7-1 2.8-2.7 3.4-5.4.8-4.1.1-7.3-2-9.2-2.7-2.3-7.5-2.5-12.6-.7-.7.3-1.5 0-1.9-.6s-.3-1.4.2-1.9c3.4-3.4 5.1-6.5 4.9-9.2-.1-1.9-1.2-3.7-3.3-5.3-3.5-2.7-6.7-3.5-9.4-2.2-1.7.8-3.1 2.3-4.1 4.3v18.4c.4-.2.9-.4 1.4-.4 2.4-.3 4.6 1.4 4.9 3.8s-1.4 4.6-3.8 4.9c-.9.1-1.7-.1-2.5-.4v20.9c.2.3.4.6.6.8q1.95 2.25 6 2.1M0 1429.9v12.1c4.7-1.4 8.3-4.2 9.9-5.8-3.3-3.3-6.6-5.2-9.9-6.3m1114.6 261.3c0 4.1 6 4.6 8.6 4.6.5 0 1.2 0 1.9-.1V1685c-.6-.1-1.3-.2-1.9-.2-4.8 0-8.6 2.9-8.6 6.4M13.2 1602c.1-.3.2-1.1 0-2.4-.9-4.9-4.9-12.4-13.1-20.8v16.8c3.6 1.4 6.5 3 8.8 4.3 1.6.9 3.5 2 4.3 2.1m1100.3-185.7c1.6-7.1-1.4-13.5-2.8-16.1-16.3 10.3-11.8 26-9.8 31.1.8-.5 1.8-1.2 3-1.8q7.8-5.7 9.6-13.2M6.7 1691.2c0-3-2.9-5.6-6.7-6.2v10.7c2.9-.3 6.7-1.3 6.7-4.5M1106 1431.8c-1.1.8-2.2 1.6-3.5 2.3.6.5 1.2 1.2 1.9 2 5 4.4 10.2 6.6 15.5 6.6 1.8 0 3.5-.3 5.1-.8v-12.1c-7.6-2.6-14.6-.3-19 2M8.4 2306.2c-2.5-1.1-5.3-1.9-8.4-2.3v3.6c1.2-.2 2.4-.4 3.5-.6 1.7-.3 3.3-.5 4.9-.7m-8.4-7.7v2.3c2.9.3 5.7 1 8.1 1.9-2.5-1.6-5.3-3.1-8.1-4.2m1097.3-867.3c-3.6-19.2-20.2-20.6-25.5-20.5 1.3 8 4.5 13.8 9.5 17.2 6 4.2 13 3.7 16 3.3m16-737.2c3.5 5 7.5 8.1 11.8 9.4v-11.9c-5.2-.2-9.6 1.5-11.8 2.5m-18 761.3c1.5 7.1 6.9 11.6 9.4 13.4 8.8-13.7 2.6-24.6-2-29.9-.8-.7-1.7-1.5-2.5-2.4-.3.4-.5.8-.8 1.2-.6 1.5-1.5 3.4-2.8 5.5-1.7 4.2-2.1 8.3-1.3 12.2M155.9 53.2c-9.9 7.4-34.1 27.9-58 67.1 12.2-9 40.7-32.4 58-67.1M0 2292.1v3c3 1.2 6.2 2.8 9.1 4.6-2.4-2.7-5.5-5.4-9.1-7.6m1097-857c-1.5-.2-2.9-.4-4.3-.5h-.8q-8.7-.3-14.4 3.9c-5.8 4.3-7.7 11.1-8.3 14.1 13.1 1.9 20.4-4.5 24.3-10.4.8-2 1.8-4.1 3.1-6.1.2-.4.3-.7.4-1M86.9 116.4c-1.2-5.3-2.3-10.4-3.2-15.4-7-25.4-20.8-65.3-45.4-101h-.6c4 17.4 16.5 60.8 49 116.2.1 0 .1.1.2.2" class="st3"/><path d="M75.4 102.5C48.6 53.4 38.1 15.6 34.5 0H0v33.9c13.6 9 42.5 30.4 75.4 68.6M76.4 0H42c17.7 26.2 29.8 54.6 37.7 77.7-5.1-36.3-4.4-63.3-3.3-77.7" class="st3"/><path d="M85 119.3c-.3-.5-.6-.9-.8-1.4C48.3 73.2 15.7 48.2 0 37.6v3c29.2 40.6 68.5 68.2 85 78.7m1.6 11.6c-10.9 2.5-35.9 10.2-67.1 31.1 13.3-3 42.3-11.3 67.1-31.1m40-118.6c-7.1 13.2-24 49.4-32.4 106.4 8.7-16.1 29.1-58.3 32.4-106.4m-39.9 88.1c1.7 6.3 3 11.7 4 15.9 2-20.5 4.6-68.5-9.4-116.3h-1.8c-1.3 17-2.1 52.3 7.2 100.4m62.3 10.1c-10.6 1-30.6 4.2-49.5 14.8 9-.9 26.7-4.1 49.5-14.8M0 706.6v7.5c.8-2.4 2.1-4.7 4.1-6.9-1.3 0-2.7-.2-4.1-.6m1109.4 107.9c-.3 0-.6 0-1 .1-3.3.4-5.5 1.9-5.8 4.1s1.4 5.2 5.6 6.7c6 2.1 11.2-.3 13.4-1.6-1.5-2.8-5.9-9.3-12.2-9.3M5.4 573.2c0-2.2-1.9-3.9-4.3-3.9-.4 0-.8.1-1.2.2v5.6h1.2c4.3 0 4.3-.9 4.3-1.9M1121.3 1863c-.7.2-1.4-.2-1.8-.8-2.7-5.1-5.6-8.2-8.5-8.9-2-.4-4 .2-6.2 1.8-3.6 2.7-5.1 5.8-4.4 8.8 1 4.2 6.1 8 12.9 9.4.7.1 1.2.8 1.2 1.5s-.5 1.4-1.2 1.5c-6.5 1.3-10.7 3.6-12.2 6.5-.9 1.8-.8 3.9.3 6.5 1.8 4 4.3 6.2 7.3 6.3 4.1.2 8.6-3.4 11.7-9 .3-.5.8-.8 1.4-.8.2 0 .3 0 .5.1.7.2 1.2 1 1 1.7-.9 5.9-.3 10.2 1.6 12.5v-21.4c-1.5-.5-2.7-1.9-2.9-3.6-.3-2.1 1-4 2.9-4.7v-19.1c-1.6 2.5-2.5 6.1-2.5 10 .1.9-.4 1.5-1.1 1.7" class="st3"/><path d="M8.5 703.7h.3c.6 0 1.2.4 1.4.9.3.7.1 1.5-.6 1.9-9.4 6.4-7.9 16.7-7 20.4 8.4-2.7 13.4-8.1 14.9-16.2.1-.8.8-1.3 1.6-1.3s1.4.6 1.5 1.4c1.6 12.1 12 15.1 15.8 15.8 1.5-12.3-5.2-18.7-11.2-22-.7-.4-1-1.2-.7-1.9.2-.7 1-1.2 1.7-1 14.1 2.4 19.6-8.2 21.2-12.1-11.2-3.7-18.7 1-23 5.8-.5.6-1.3.7-2 .3-.6-.4-.9-1.2-.6-1.9 5.1-12.8-3.7-20.4-7-22.7-6.3 10.1-3.4 18.4.2 23.7.4.7.3 1.5-.3 2.1-.6.5-1.5.5-2.1 0-4.1-3.8-8.6-5.1-12.7-5.3v11.9c2.8.7 5.6.8 8.6.2M1125 109.4v-7.3c-9.2-1.3-16.3-1.7-20.9-1.9 6.9 3.5 14 6.6 20.9 9.2M0 46v53c19.6 2.7 48.9 9 84.2 23.6C68.6 112.7 29.8 85.8 0 46m1125-5.3v-3c-1.5-1-2.8-1.9-3.9-2.6 1.3 1.9 2.6 3.7 3.9 5.6" class="st3"/><path d="M0 102.1v7.3c34.7 13.1 68.2 15.5 82.8 16-34.7-14.5-63.4-20.7-82.8-23.3" class="st3"/><path d="M93.3 129.4c-.3.2-.5.5-.8.7 5 6.9 14.5 24.3 5.6 47.8-.3.8.1 1.7.9 2 .2.1.4.1.6.1.6 0 1.2-.4 1.5-1 9.1-24.1-.2-42.4-5.7-50.2h-1.7c-.1.2-.2.4-.4.6m-6.6-13.2C54.1 60.8 41.7 17.4 37.7 0h-3.2c3.6 15.6 14.1 53.4 40.9 102.5 3.7 4.3 7.5 8.9 11.3 13.7m3.8 2c.1-.6.1-1.2.2-1.9-1-4.2-2.3-9.6-4-15.9 1.1 5.7 2.4 11.7 3.8 17.8m-4.9 1.5c-.5-.6-1-1.2-1.4-1.8.3.5.5.9.8 1.4.2.2.4.3.6.4m-5.9-41.9C71.8 54.6 59.8 26.2 42 0h-3.8c24.6 35.7 38.4 75.6 45.4 101-1.5-8.1-2.8-15.9-3.9-23.2"/><path d="M79.7 77.8c1 7.4 2.3 15.1 3.9 23.2 1 5 2 10.1 3.2 15.4 1.3 1.6 2.5 3.2 3.8 4.8 1.3-9.3 2.9-18.2 4.6-26.4.8-24.5-.5-59.6-10.6-94.8h-3.2c13.9 47.8 11.4 95.8 9.4 116.3-.1.7-.1 1.3-.2 1.9-1.4-6.1-2.7-12.1-3.8-17.8C77.4 52.3 78.2 17 79.5 0h-3.1c-1.1 14.4-1.8 41.4 3.3 77.8"/><path d="M90.7 121.2c.6.7 1.2 1.5 1.7 2.2 4.4-7.4 8.7-14.2 13.1-20.4 10.2-22.5 23.2-58.2 24.6-97 0-.7-.4-1.3-1.1-1.5s-1.4.1-1.8.6c-.2.4-19.9 31.3-31.9 89.7-1.8 8.2-3.3 17-4.6 26.4m3.5-2.4c8.4-57.1 25.4-93.2 32.4-106.4-3.3 48-23.7 90.2-32.4 106.4"/><path d="M92.4 123.4c.3.4.6.7.9 1.1.2.2.3.5.3.7 3.5-2.2 7-4.1 10.6-5.8 14.7-11.5 41.6-35.8 57.1-70.3.3-.6.1-1.4-.4-1.8-.5-.5-1.3-.5-1.8-.2-.3.2-25.7 15.8-53.6 55.8-4.4 6.3-8.7 13.1-13.1 20.5m63.5-70.2c-17.3 34.7-45.8 58.1-58 67.1 24-39.3 48.1-59.7 58-67.1m-62.2 75.6h-.4c-.6 0-1.2-.4-1.4-1-.3.4-.7.7-1.2.7H88c-1.2 0-2.7 0-4.6-.1-13.1 3.4-39.7 12.4-71.8 35.2-.6.4-.8 1.2-.5 1.8.2.6.8 1 1.4 1h.2c.5-.1 45.2-6.6 79.8-36.4.3-.2.5-.5.8-.7.2-.1.3-.3.4-.5M19.5 162c31.2-21 56.2-28.6 67.1-31.1C61.8 150.7 32.8 159 19.5 162"/><path d="M93.5 125.3c.1.4 0 .9-.3 1.2s-.7.5-1.1.5v.2c0 .2-.1.4-.2.5.2.6.8 1 1.4 1h2.2c6.9-.3 30.1-2.5 62-18.8.6-.3 1-1 .8-1.7s-.8-1.2-1.5-1.2c-.3 0-26.5 0-52.5 12.5-3.7 1.6-7.3 3.6-10.8 5.8m6.1 0c18.8-10.5 38.8-13.8 49.5-14.8-22.9 10.7-40.6 13.9-49.5 14.8"/><path d="M88 128.5h2.7c.5 0 1-.3 1.2-.7.1-.2.2-.3.2-.5v-.2H92c-.3 0-.5-.1-.8-.2-.1-.1-2.7-1.5-7-4.3C48.9 107.9 19.6 101.6 0 99v3.1c19.3 2.7 48 8.9 82.8 23.3-14.6-.4-48.1-2.9-82.8-16v3.3c35.2 13.1 69 15.4 83.4 15.8z"/><path d="M84.2 122.6c4.3 2.7 6.9 4.2 7 4.3.2.1.5.2.8.2h.1c.4 0 .8-.2 1.1-.5s.4-.8.3-1.2c0-.3-.1-.5-.3-.7-.3-.4-.6-.7-.9-1.1-.6-.8-1.2-1.5-1.7-2.2-1.3-1.6-2.5-3.2-3.8-4.8l-.2-.2c-3.8-4.8-7.6-9.4-11.4-13.7C42.5 64.3 13.6 42.9 0 33.9v3.7c15.7 10.6 48.3 35.5 84.1 80.3.5.6 1 1.2 1.4 1.8-.2-.1-.4-.3-.6-.4C68.5 108.8 29.2 81.2 0 40.7V46c29.8 39.8 68.6 66.7 84.2 76.6M1125 823.5v-2.9c-.3.5-.5.9-.8 1.4.5.7.7 1.3.8 1.5m-4.2 4.2c-6.6 10.3-16 21.3-29.2 32.1-19.5 15.9-44.7 28.9-74.7 38.5-21.4 6.9-36.2 8.4-53.4 9.7-.9.1-1.5.8-1.4 1.7.1.8.7 1.4 1.6 1.4h.1c17.4-1.3 32.4-2.8 54.1-9.8 30.4-9.8 55.9-23 75.8-39.1 14.6-11.9 24.6-24.1 31.4-35.4V825c-.1.2-.2.4-.4.5s-1.6 1.2-3.9 2.2"/><path d="M1108.1 811.4c-5.8.6-8.2 4-8.5 6.9-.5 4.1 2.7 8.2 7.7 10 2.1.7 4 1 5.9 1 3.1 0 5.7-.8 7.7-1.7 2.3-1 3.7-2.1 3.8-2.2.2-.1.3-.3.4-.5v-1.5c-.1-.2-.4-.8-.8-1.5-2.1-3.4-7.6-11.4-16.2-10.5m.2 14c-4.2-1.5-5.9-4.5-5.6-6.7s2.4-3.8 5.8-4.1c.3 0 .7-.1 1-.1 6.3 0 10.7 6.6 12.2 9.3-2.2 1.3-7.5 3.7-13.4 1.6M1.6 730.4c.1 0 .3 0 .4-.1 9.8-2.6 14.7-8.2 17-13.7 4.8 12 18.5 13.1 18.7 13.1.8 0 1.5-.5 1.6-1.3 2-11.9-2.8-19.2-7.8-23.4 14.9-.8 19.3-15.9 19.3-16.1.2-.8-.2-1.6-.9-1.9-10.6-4-18.3-1.6-23.7 2.3 2.3-14.4-11-22-11.2-22-.7-.4-1.6-.2-2 .5-6.1 8.9-5.9 16.7-3.6 22.8-3.2-1.6-6.4-2.2-9.4-2.3v3.1c4.1.1 8.6 1.5 12.7 5.3.6.5 1.5.5 2.1 0s.7-1.4.3-2.1c-3.6-5.3-6.5-13.6-.2-23.7 3.4 2.4 12.2 10 7 22.7-.3.7 0 1.5.6 1.9s1.5.3 2-.3c4.3-4.7 11.7-9.5 23-5.8-1.5 3.9-7.1 14.5-21.2 12.1-.8-.1-1.5.3-1.7 1s.1 1.5.7 1.9c6 3.2 12.7 9.6 11.2 22-3.9-.7-14.2-3.6-15.8-15.8-.1-.8-.7-1.3-1.5-1.4-.8 0-1.4.5-1.6 1.3-1.5 8.1-6.5 13.6-14.9 16.2-.9-3.7-2.4-14 7-20.4.6-.4.8-1.2.6-1.9-.2-.6-.8-.9-1.4-.9h-.3c-3 .6-5.8.5-8.5-.3v3.2c1.4.4 2.8.6 4.1.6-2 2.2-3.3 4.6-4.1 6.9v14.9c.1.2.1.3.1.3.2.9.8 1.3 1.4 1.3m1123.4-1.1V714c-2.5 7.2-.3 14.2 0 15.3m-14.8-37.2c-.4.2-.6.6-.7 1s0 .8.2 1.2c5 7.7 10.4 11.1 15.3 12.4v-3.2c-4.3-1.3-8.2-4.4-11.8-9.4 2.2-1 6.6-2.7 11.8-2.5v-3.1c-8.1-.4-14.7 3.5-14.8 3.6m-9.3 739.2c-2-5.1-6.5-20.8 9.8-31.1 1.5 2.6 4.4 9.1 2.8 16.1-1.1 5-4.4 9.4-9.6 13.2 2.1-1.1 4.8-2.3 7.9-3.1 2.4-2.9 4-6.1 4.8-9.5 2.4-10.5-3.8-19.4-4.1-19.8-.5-.7-1.4-.9-2-.4-11.1 6.4-14.3 15-14.7 22.4 2.2 3.2 3.9 7.2 4.8 12.4 0 0 .2-.1.3-.2m5.1.5c-1.5.8-2.7 1.6-3.6 2.2l.1.1c1.3-.7 2.4-1.5 3.5-2.3m-5.7 4.4c0 .1-.1.1-.1.2.8.8 1.7 1.6 2.5 2.4-.9-1.1-1.8-2-2.4-2.6m4.2 0c1.5 1.8 3.3 4.1 4.8 7.1 3.4 1.7 6.9 2.6 10.5 2.6h.3c1.8 0 3.4-.3 5-.7v-3.2c-1.6.5-3.3.7-5.1.8-5.3 0-10.5-2.2-15.5-6.6"/><path d="M1111.8 1426.4c-3.1.7-5.8 1.9-7.9 3.1-1.2.6-2.2 1.3-3 1.8-.1.1-.3.2-.4.3 0 .2.1.5.1.7v.2c.1 0 .2.1.3.2 0 0 .6.5 1.5 1.3.9-.6 2.1-1.4 3.6-2.2 4.5-2.3 11.4-4.6 19-1.9v-3.2c-4.8-1.5-9.3-1.2-13.2-.3"/><path d="M1099.3 1432.3c.1 0 .2 0 .2.1.1 0 .1 0 .2-.1.3 0 .6 0 .9.1v-.2c0-.2-.1-.5-.1-.7-.9-5.2-2.6-9.2-4.8-12.4-8.9-12.9-25.7-11.5-25.9-11.4-.4 0-.8.3-1.1.6s-.4.8-.3 1.2c1.3 9.8 5 16.9 11.1 21.1 1.1.8 2.3 1.4 3.4 1.9 4.7-1.4 10.2-1.4 16.4-.2m-27.5-21.6c5.3-.1 21.9 1.3 25.5 20.5-3 .4-10 .8-16-3.3-5-3.3-8.2-9.1-9.5-17.2m20.2 23.9h.8z"/><path d="M1102.5 1434.1c-1-.9-1.5-1.4-1.6-1.4-.1-.1-.2-.1-.3-.2-.3-.1-.6-.2-.9-.1-.1 0-.1 0-.2.1.3.1.6.3.8.6.2.4.3.8.2 1.2 0 .1-.3 1.4-1.1 3.4.2-.4.5-.8.8-1.2 0-.1.1-.1.1-.2.7.6 1.5 1.5 2.4 2.5 4.6 5.3 10.8 16.2 2 29.9-2.4-1.7-7.8-6.3-9.4-13.4-.8-3.9-.4-8 1.3-12.2-1.2 1.9-2.8 4-4.7 5.8-.3 2.4-.2 4.8.3 7.1 2.3 10.5 11.7 16 12.1 16.2.2.1.5.2.8.2.5 0 1-.2 1.3-.7 8.1-11.5 6.4-21.5 2.9-28.5-1.5-2.9-3.2-5.3-4.8-7.1zm-8.9 8c1.5-2.3 2.5-4.5 3.1-6.1-1.3 2-2.3 4.1-3.1 6.1"/><path d="M1096.6 1443c1.3-2 2.2-3.9 2.8-5.5.8-2 1.1-3.3 1.1-3.4.1-.4 0-.8-.2-1.2-.2-.3-.5-.5-.8-.6-.1 0-.2-.1-.2-.1-6.2-1.3-11.7-1.2-16.4.1-2.7.8-5.1 1.9-7.2 3.5-8.7 6.4-9.7 17.2-9.8 17.7-.1.8.5 1.5 1.3 1.7q3.6.6 6.6.6c8.2 0 14-3.2 18-7.1 2-1.7 3.6-3.7 4.8-5.7m-27.3 9.5c.6-2.9 2.5-9.8 8.3-14.1q5.7-4.2 14.4-3.9h.8c1.4.1 2.8.2 4.3.5l-.3.9c-.6 1.6-1.6 3.8-3.1 6.1-4 6-11.3 12.4-24.4 10.5M8.6 573.2c0-3.9-3.3-7-7.4-7-.4 0-.8 0-1.2.1v3.2c.4-.1.8-.2 1.2-.2 2.3 0 4.3 1.8 4.3 3.9 0 1 0 1.9-4.3 1.9H0v3.1h1.2c2.2 0 7.4 0 7.4-5m1088.4 1713c-2.1-.6-14.8-5.6-20.5-38.5-6.5-37.6-24.9-61.3-25.1-61.5-.5-.7-1.5-.8-2.2-.3s-.8 1.5-.3 2.2c.2.2 18.1 23.3 24.4 60.1 6.6 38.4 22.7 41 23.4 41.1.2 0 .5 0 .7-.1 11.2-3.7 20.4-1.4 27.4 2.8v-3.4c-7.2-4-16.5-6.1-27.8-2.4"/><path d="M1113 2307.2c-14.3-3-15.9-14.3-16-14.8-.1-.6-.5-1.1-1-1.3-.2-.1-19.2-7.2-25.4-36-6.5-30.1-11.9-37.9-12.1-38.3-.5-.7-1.5-.9-2.2-.4s-.9 1.5-.4 2.2c.1.1 5.3 7.9 11.6 37.1 5.9 27.5 22.5 36.2 26.5 37.9.8 3.2 4.3 13.6 18.3 16.5 5.1 1.1 9.2.9 12.6.4v-3.2c-3.2.7-7 .9-11.9-.1"/><path d="M1105.3 2296.3c-.6-.6-1.6-.5-2.2.2-.6.6-.5 1.6.1 2.2.2.2 6 5.1 18.8 5.1 1 0 2 .1 3 .2v-3.1c-1-.1-2-.2-3-.2-11.5-.1-16.7-4.4-16.7-4.4m6.1-605.1c0 4.8 4.4 7.7 11.7 7.7.7 0 1.3 0 1.9-.1v-3.1c-.7.1-1.4.1-1.9.1-2.6 0-8.6-.4-8.6-4.6 0-3.5 3.8-6.4 8.6-6.4.7 0 1.3.1 1.9.2v-3.1c-.6-.1-1.3-.1-1.9-.1-6.4-.1-11.7 4.1-11.7 9.4M8.6 256.5c0-3.3-3.4-5.9-7.6-5.9-.4 0-.7 0-1 .1v10.4h1c4.3 0 7.6-1.3 7.6-4.6m1111.3 1600.1c-2.5-3.5-5.2-5.7-8.1-6.3q-4.35-.9-8.7 2.4c-4.6 3.5-6.5 7.7-5.6 12 1 4.2 4.7 7.9 10 10.1-4.5 1.6-7.6 3.8-9 6.7-1.4 2.7-1.3 5.8.2 9.2 2.3 5.1 5.8 8 10 8.2 3.8.2 7.8-2 11.2-5.8.1 4.1 1 7.2 2.9 9.3.6.7 1.4 1.3 2.2 1.8v-4c-1.9-2.3-2.5-6.6-1.6-12.5.1-.8-.3-1.5-1-1.7-.2-.1-.3-.1-.5-.1-.6 0-1.1.3-1.4.8-3 5.6-7.6 9.2-11.7 9-3-.1-5.5-2.3-7.3-6.3-1.1-2.6-1.2-4.7-.3-6.5 1.5-2.9 5.7-5.1 12.2-6.5.7-.2 1.2-.8 1.2-1.5s-.5-1.4-1.2-1.5c-6.7-1.4-11.9-5.2-12.9-9.4-.7-3 .8-6.1 4.4-8.8 2.2-1.7 4.2-2.3 6.2-1.8 2.9.7 5.8 3.7 8.5 8.9.3.6 1 1 1.8.8.7-.2 1.2-.8 1.2-1.5 0-4 .9-7.5 2.5-10v-4.8c-2.6 2.1-4.4 5.6-5.2 9.8"/><path d="M1122.1 1875.2c.2 1.7 1.4 3.1 2.9 3.6v-8.2c-1.9.6-3.1 2.5-2.9 4.6M6.8 1905.5c5.5-.2 9.6-2.4 11.3-6.2 1.7-3.7 1.1-8.6-1.5-13.4 4 .9 7.3.6 9.8-.7 2.5-1.4 4.2-3.9 4.9-7.5 1.4-6.7-.9-10.3-3.1-12.2-2.6-2.3-6.5-3.1-10.9-2.5 1.9-2.7 2.7-5.3 2.6-7.7-.2-2.8-1.7-5.4-4.5-7.6-4.4-3.5-8.9-4.4-12.7-2.5-1 .5-1.9 1.1-2.7 1.9v5.2c1-2 2.4-3.5 4.1-4.3 2.7-1.3 6-.6 9.4 2.2 2.1 1.7 3.2 3.4 3.3 5.3.2 2.7-1.5 5.7-4.9 9.2-.5.5-.6 1.3-.2 1.9s1.2.9 1.9.6c5.1-1.9 10-1.6 12.6.7 2.2 1.9 2.9 5 2 9.2-.5 2.7-1.7 4.4-3.4 5.4-2.5 1.4-6.4 1.1-11.4-.7-.7-.2-1.4 0-1.8.5-.4.6-.4 1.3 0 1.9 3.9 4.8 5.3 10.3 3.6 13.8-1.2 2.7-4.2 4.2-8.6 4.4-2.8.1-4.8-.6-6.1-2.1-.2-.2-.4-.5-.6-.8v4.4c1.7 1.1 3.7 1.7 6.2 1.7.3-.1.5-.1.7-.1"/><path d="M2.5 1879c2.4-.3 4.1-2.5 3.8-4.9s-2.5-4.1-4.9-3.8c-.5.1-1 .2-1.4.4v7.8c.8.4 1.6.6 2.5.5M1097.8 97c-.7 0-1.3.5-1.4 1.2-.2.7.2 1.4.8 1.7 9.2 5.1 18.6 9.3 27.9 12.8v-3.3c-7-2.6-14-5.7-20.9-9.2 4.6.2 11.7.6 20.9 1.9V99c-17.3-2.4-27.1-2-27.3-2m17.1-67.9c-.5.5-.6 1.3-.2 1.9 3.3 5.2 6.7 10.2 10.3 15v-5.3c-1.3-1.9-2.7-3.7-3.9-5.6 1.2.7 2.5 1.6 3.9 2.6V34c-5.2-3.4-8.1-5.1-8.3-5.1-.6-.4-1.3-.3-1.8.2m3.9 544.1c0 4.2 3.7 4.9 6.2 5V575c-3.1-.2-3.1-1-3.1-1.8 0-1.8 1.3-3.3 3.1-3.8v-3.2c-3.5.6-6.2 3.5-6.2 7m-.3-316.7c0 3 2.8 4.3 6.5 4.5v-10.4c-3.6.5-6.5 2.9-6.5 5.9M13.6 781.1c-.9 0-1.6.7-1.6 1.6 0 .3-.2 16.6-12 37.9v2.9s0 .1.1.1c.2.4.2.9-.1 1.4v1.8c14.8-24.3 15.1-43.8 15.1-44.1 0-.9-.7-1.6-1.5-1.6"/><path d="M.1 823.6s0-.1-.1-.1v1.5c.2-.4.3-.9.1-1.4m13.3 781.6c.9 0 1.6-.3 2.2-1.1.8-1 1-2.6.6-4.7-.9-5.8-5.8-14.8-16.2-24.9v4.4c8.2 8.4 12.2 15.9 13.1 20.8.2 1.3.1 2.1 0 2.4-.8-.1-2.7-1.2-4.3-2.1-2.3-1.3-5.2-2.9-8.8-4.3v3.4c2.9 1.2 5.3 2.5 7.3 3.7 2.5 1.2 4.6 2.4 6.1 2.4m-.1-168c.5-.6.5-1.5 0-2.1-4.4-4.7-8.9-7.2-13.2-8.5v3.2c3.2 1.1 6.6 3.1 9.9 6.3-1.6 1.5-5.2 4.4-9.9 5.8v3.2c7.9-1.9 13-7.6 13.2-7.9m4.7 875c.1.1.2.1.2.1-.1-.1-.3-.1-.4-.2s-3.8-3.4-9.5-5.8c-1.6.1-3.2.4-4.9.7-1.1.2-2.3.4-3.5.6v3.2c1.5-.2 2.8-.5 4.1-.7 5.2-1 8.9-1.7 14 2.1m-8.8-12.5c2.6 1.7 5 3.6 6.8 5.8.3.4.4 1 .3 1.4 2.2 1.5 3.6 2.7 3.7 2.8.2.1.3.3.4.5-.1-.2-7.1-14.2-20.3-21.6v3.4c3.5 2.3 6.6 5 9.1 7.7m9.7 12.8c-.2 0-.3 0-.5-.1.2 0 .4.1.5.1m1-.4q.15 0 0 0c.1 0 0 0 0 0m-.4.3s-.1 0 0 0c-.1 0 0 0 0 0m1-1.2s0 .1 0 0c0 .1 0 0 0 0m0-.5"/><path d="M17.9 2312.1c.1.1.2.2.4.2.1 0 .1.1.2.1.2.1.3.1.5.1s.3 0 .5-.1h.1c.1-.1.3-.1.4-.2 0 0 .1 0 .1-.1l.1-.1c.1-.1.1-.2.2-.2.1-.1.1-.3.2-.4v-.6c0-.2-.1-.3-.1-.4-.1-.2-.2-.3-.4-.5-.1-.1-1.5-1.3-3.7-2.8-.1.3-.3.6-.5.8-.3.2-.6.3-1 .3q-.75 0-1.2-.6c-1.4-1.8-3.3-3.3-5.4-4.7-2.4-.9-5.2-1.6-8.1-1.9v3.1c3.1.4 5.9 1.2 8.4 2.3 5.5 2.3 9.2 5.6 9.3 5.7"/><path d="M13.6 2307.5c.3.4.8.6 1.2.6.3 0 .7-.1 1-.3s.4-.5.5-.8c.1-.5.1-1-.3-1.4-1.8-2.2-4.2-4.1-6.8-5.8-2.9-1.9-6.1-3.4-9.1-4.6v3.4c2.7 1.2 5.6 2.6 8.1 4.3 2 1.2 3.9 2.8 5.4 4.6m-3.8-616.3c0-4.7-4.2-8.6-9.8-9.3v3.1c3.8.6 6.7 3.2 6.7 6.2 0 3.3-3.8 4.2-6.7 4.5v3.1c6.2-.5 9.8-3.3 9.8-7.6m1101.4 601.2c-.2.8.3 1.7 1.2 1.9.1 0 6.2 1.4 12.7 4.2v-3.4c-6.2-2.5-11.6-3.8-12.1-3.9-.8-.2-1.6.4-1.8 1.2m-60.8-745.8c-.9.1-1.5.8-1.4 1.7s.8 1.5 1.7 1.4c.3 0 31.5-2.8 57.5 15.1 6.9 4.8 12.4 9.5 16.8 13.9v-4.4c-4.1-4-9.1-8.1-15-12.1-27-18.5-58.3-15.7-59.6-15.6m56.8 45.9c-1.1 0-2.3.1-3.6.2-14.4.8-36.1 1.9-44-18.9-.3-.8-1.2-1.2-2-.9s-1.2 1.2-.9 2c8.7 23 32.7 21.7 47.1 21 1.2-.1 2.4-.1 3.5-.2 7.1-.3 13 1.3 17.7 3.3v-3.4c-4.8-1.8-10.7-3.3-17.8-3.1"/><path d="M151.2 2104s-6.7-7.5-21.5-8.2c0 0 10 6.8 13.8 16.7m-5.8 5s-2.3-9.3-12.5-12.8c0 0 4.5 9.8 4 18M147 2052s-7.2 11.3-7.3 18.3c0 0 10.2-3.3 16-12.5m4 3.7s-4.2 6.8-5.5 16c0 0 5.5-.5 12.8-9.3" class="st0"/></g></svg>